<?xml version="1.0" encoding="UTF-8"?><svg id="Layer_2" xmlns="http://www.w3.org/2000/svg" viewBox="0 0 289.77 80.18"><defs><style>.cls-1{fill:#ffedec;}</style></defs><g id="Layer_1-2"><g><g><g><path d="m213.97,78.49c-8.29,0-16.2-2.56-22.27-7.21-10.05-7.7-15.15-21.81-12.68-35.1,3.06-16.5,17.82-28.48,35.08-28.48,11.1,0,20.79,4.51,24.68,11.49,3.89,6.98,2.08,12.91-.12,16.65-4.31,7.34-13.95,12.67-22.92,12.67-.68,0-1.36-.02-2.05-.06-1.16-.07-1.49,1.54-.4,1.94,1.16.42,2.44.63,3.83.63,2.97,0,6.17-.95,8.91-1.89,2.69-.92,5.24-1.78,7.61-1.78,3.13,0,5.34,1.21,6.58,3.59,2.5,4.83.12,13.36-2.69,17.34-4.43,6.29-13.46,10.19-23.57,10.19Zm-1.42-47.57c-.57.49-.43,1.42.27,1.69.59.22,1.34.41,2.2.41.86,0,2.84-.66,3.28-1.56.09-.18.17-.48-.18-.92-.44-.56-1.47-1.01-2.29-1.01-1.26,0-2.46.7-3.27,1.39Z"/><path d="m214.1,8.2c10.92,0,20.44,4.41,24.25,11.23,8.31,14.89-8.53,28.58-22.59,28.58-2.47,0-4.96-.26-7.45-.77,2.5,3.2,5.55,4.29,8.82,4.29,2.94,0,6.05-.89,9.08-1.91,2.66-.9,5.17-1.76,7.45-1.76,10.63,0,7.23,14.83,3.48,20.15-4.34,6.16-13.22,9.98-23.16,9.98-8.19,0-15.99-2.53-21.97-7.11-9.91-7.59-14.93-21.5-12.5-34.62,3.09-16.64,17.92-28.07,34.59-28.07m.92,25.33c1.36,0,5.02-1.35,3.49-3.29-.57-.72-1.77-1.2-2.68-1.2-2.38,0-4.7,2.21-4.76,3.08.17.32,1.8,1.41,3.96,1.41m-.92-26.33c-17.51,0-32.47,12.15-35.57,28.89-2.5,13.47,2.67,27.78,12.87,35.59,6.16,4.72,14.17,7.31,22.58,7.31,10.26,0,19.45-3.99,23.98-10.4,2.88-4.09,5.32-12.86,2.73-17.86-.91-1.76-2.87-3.86-7.02-3.86-2.46,0-5.04.88-7.77,1.81-2.7.92-5.86,1.86-8.75,1.86-2.28,0-4.23-.59-5.88-1.79,1.51.19,3.02.28,4.51.28,9.13,0,18.95-5.43,23.35-12.92,2.27-3.86,4.13-9.97.12-17.15-3.98-7.14-13.84-11.75-25.12-11.75h0Zm-1.78,24.63c.6-.7,2.06-1.8,3.5-1.8.67,0,1.55.38,1.9.82.2.25.16.34.13.39-.31.63-2.04,1.28-2.83,1.28-1.17,0-2.14-.39-2.7-.69h0Z"/></g><g><path d="m260.45,79.68c-3.9,0-11.38-.54-17.74-4.12-5.94-3.34-9.09-8.5-9.12-14.9-.02-5.51,2.38-11.95,7.72-13.07.53-.11,1.08-.17,1.64-.17,3.61,0,7.11,2.36,9.92,4.25l.86.58c.36.24.74.5,1.12.76,1.64,1.13,3.49,2.41,5.32,2.86.22.05.45.08.69.08.88,0,1.91-.4,1.91-1.53,0-1.18-4.95-3.25-7.61-4.37-6.6-2.75-14.8-6.18-18.01-14.05-2.69-6.61-.7-13.67,1.83-17.71,4.22-6.76,13.26-10.79,24.18-10.79s19.89,3.91,23.18,9.96c2.25,4.14,2.27,10.06.06,14.09-1.68,3.07-4.15,4.62-7.34,4.62s-6.53-1.53-8.8-2.67c-1.04-.53-4.21-2.12-6.28-2.12-.62,0-1.07.15-1.33.44-.29.33-.4.9-.3,1.68.14,1.11,4.31,2.37,7.07,3.2,5.93,1.79,13.29,4.01,17.26,10.58,3.97,6.58,3.32,15.49-1.65,22.7-4.47,6.49-13.67,8.6-18.76,9.29-1.93.26-3.89.39-5.83.39Z"/><path d="m263.16,8.01c10.61,0,19.54,3.81,22.74,9.7,2.11,3.89,2.26,9.61.07,13.61-1.77,3.22-4.21,4.36-6.9,4.36s-5.78-1.21-8.57-2.62c-1.13-.57-4.32-2.18-6.5-2.18-1.4,0-2.38.66-2.12,2.69.18,1.44,4.03,2.6,7.43,3.62,5.84,1.76,13.1,3.95,16.96,10.36,4.17,6.92,2.82,15.71-1.63,22.16-3.93,5.71-11.88,8.2-18.41,9.08-1.91.26-3.84.39-5.76.39-11.56,0-26.3-4.63-26.36-18.51-.02-4.76,1.93-11.44,7.32-12.58.51-.11,1.03-.16,1.54-.16,3.81,0,7.51,2.76,10.5,4.74,1.98,1.31,4.25,3.11,6.6,3.69.26.06.53.1.81.1,1.2,0,2.4-.63,2.41-2.03,0-1.52-4.39-3.36-7.93-4.83-6.51-2.71-14.6-6.09-17.73-13.77-2.62-6.43-.67-13.32,1.79-17.26,4.13-6.61,13.01-10.56,23.75-10.56m0-1c-11.09,0-20.29,4.12-24.6,11.03-2.59,4.14-4.63,11.38-1.87,18.17,3.28,8.06,11.59,11.53,18.27,14.32,2.11.88,7.03,2.94,7.32,3.94,0,.93-1.09,1-1.42,1-.2,0-.39-.02-.57-.07-1.74-.43-3.56-1.68-5.16-2.79-.39-.27-.76-.53-1.13-.77-.28-.19-.56-.38-.86-.57-2.87-1.93-6.44-4.34-10.2-4.34-.59,0-1.18.06-1.74.18-5.61,1.18-8.14,7.85-8.12,13.56.03,6.59,3.27,11.89,9.37,15.33,6.46,3.64,14.04,4.18,17.99,4.18,1.96,0,3.94-.13,5.9-.4,5.17-.7,14.52-2.86,19.1-9.5,5.08-7.38,5.74-16.5,1.67-23.25-4.06-6.73-11.53-8.99-17.53-10.8-2.09-.63-6.42-1.94-6.73-2.81-.07-.6-.01-1.06.18-1.27.2-.23.63-.27.96-.27,1.95,0,5.04,1.56,6.05,2.07,2.32,1.17,5.78,2.73,9.02,2.73s6-1.64,7.78-4.88c2.29-4.16,2.26-10.29-.06-14.57-3.37-6.21-12.64-10.22-23.62-10.22h0Z"/></g><g><path d="m97.05,79.07c-2.66,0-5.37-.59-7.65-1.66-11.38-5.37-11.98-22.59-11.32-32.38.54-8,1.44-21.39,12.62-30.31,5.99-4.78,13.88-7.41,22.2-7.41,6.14,0,12.32,1.5,17.46,4.23,5.15-2.77,11.15-4.23,17.36-4.23,9.26,0,18.05,3.27,24.11,8.96,6.63,6.24,8.26,13.91,9.45,19.52,2.76,13.07,1.9,35.88-12.16,41.43-2.23.88-4.66,1.35-7.01,1.35-3.44,0-6.51-.98-8.87-2.83-7.35-5.76-5.88-17.71-4.58-28.25.71-5.78,1.79-14.5-.5-15.73-.32-.17-.71-.26-1.13-.26-.48,0-.97.11-1.38.31-2.8,1.37-2.24,9.96-1.79,16.86.69,10.56,1.47,22.53-6.14,27.7-2.32,1.58-5.24,2.45-8.2,2.45-2.6,0-5.01-.67-6.98-1.95-7.15-4.64-6.23-15.82-5.34-26.63.59-7.22,1.33-16.18-1.61-17.68-.53-.27-1.01-.41-1.42-.41-.48,0-.89.19-1.24.57-2.17,2.34-1.54,10.77-1.33,13.54.03.38.05.69.06.91l.06,1.11c.61,10.87,1.31,23.19-6.63,28.56-2.13,1.44-4.87,2.22-7.92,2.24h-.11Z"/><path d="m112.9,7.8c6.2,0,12.33,1.52,17.46,4.3,5.14-2.81,11.1-4.29,17.36-4.29,9.14,0,17.8,3.22,23.77,8.83,6.52,6.13,8.13,13.72,9.3,19.26,2.73,12.92,1.92,35.43-11.85,40.86-2.12.84-4.48,1.31-6.83,1.31-3.08,0-6.13-.82-8.57-2.72-7.13-5.58-5.68-17.39-4.4-27.8.82-6.61,1.83-14.84-.76-16.23-.41-.22-.89-.32-1.37-.32-.56,0-1.12.13-1.6.36-3.1,1.52-2.55,9.92-2.06,17.34.68,10.43,1.45,22.25-5.92,27.26-2.25,1.53-5.1,2.36-7.92,2.36-2.38,0-4.75-.59-6.71-1.87-6.9-4.47-6-15.5-5.12-26.17.64-7.74,1.36-16.51-1.88-18.17-.62-.32-1.17-.46-1.65-.46-4.58,0-3.14,13.16-3.01,15.55.02.37.04.74.06,1.11.6,10.74,1.29,22.9-6.41,28.11-2.17,1.47-4.89,2.13-7.64,2.15-.04,0-.07,0-.11,0-2.61,0-5.24-.58-7.43-1.61-11.12-5.24-11.69-22.23-11.04-31.9.53-7.95,1.42-21.17,12.44-29.96,5.9-4.71,13.68-7.3,21.89-7.3m0-1c-8.44,0-16.43,2.67-22.51,7.52-11.36,9.06-12.27,22.59-12.81,30.67-.67,9.91-.04,27.37,11.61,32.87,2.34,1.1,5.13,1.71,7.86,1.71h.12c3.15-.02,5.98-.83,8.2-2.32,8.17-5.53,7.47-18,6.85-29-.02-.37-.04-.74-.06-1.11-.01-.22-.04-.54-.06-.92-.2-2.72-.82-10.99,1.2-13.17.26-.28.53-.41.87-.41.33,0,.74.12,1.19.35,2.64,1.35,1.89,10.5,1.34,17.18-.9,10.98-1.84,22.31,5.57,27.11,2.05,1.33,4.56,2.03,7.25,2.03,3.06,0,6.08-.9,8.48-2.53,7.84-5.33,7.06-17.45,6.36-28.15-.42-6.4-.99-15.16,1.51-16.38.34-.17.76-.26,1.16-.26.34,0,.65.07.9.2,1.99,1.07.9,9.93.25,15.23-1.31,10.68-2.8,22.78,4.77,28.71,2.46,1.92,5.63,2.94,9.18,2.94,2.42,0,4.9-.48,7.19-1.38,14.35-5.66,15.26-28.77,12.46-42-1.2-5.67-2.85-13.43-9.6-19.78-6.15-5.78-15.06-9.1-24.45-9.1-6.2,0-12.19,1.44-17.36,4.16-5.16-2.69-11.33-4.16-17.46-4.16h0Z"/></g><path d="m67.44,78.92c-10.07,0-15.7-6.12-16.73-18.18-.61-7.05-.7-23.92,11.69-28.15,1.55-.53,3.21-.8,4.93-.8,3.65,0,6.44,1.19,6.96,1.43,10.5,4.79,9.99,17,9.69,24.3v.21c-.37,9.1-2.47,21.19-16.54,21.19Z"/><path d="m71.82,25c-4.32,1.75-8.77,1.48-11.9-.71-3.13-2.19-4.92-6.36-4.34-10.13.61-3.99,3.85-7.63,8.47-9.5,4.34-1.76,8.77-1.5,11.84.68,3.2,2.27,4.9,6.65,4.13,10.64-.75,3.87-3.81,7.24-8.2,9.02h0Z"/><polyline points="82.21 21.33 82.21 21.33 82.21 21.33"/><path d="m76.18,4.93c-3.21-2.28-7.82-2.56-12.32-.74-4.78,1.93-8.14,5.72-8.78,9.89-.6,3.96,1.27,8.33,4.55,10.62,3.27,2.29,7.9,2.57,12.38.76h0c4.55-1.84,7.73-5.35,8.5-9.38.8-4.18-.98-8.76-4.33-11.14Zm3.35,10.95c-.71,3.7-3.66,6.93-7.9,8.65-4.16,1.68-8.44,1.44-11.43-.65-2.98-2.08-4.68-6.05-4.13-9.65.58-3.82,3.71-7.31,8.17-9.11,4.18-1.69,8.43-1.46,11.37.63,3.05,2.16,4.66,6.33,3.93,10.14Z"/><path d="m74.51,32.8c-.54-.25-3.43-1.48-7.18-1.48-1.78,0-3.5.28-5.1.83-12.71,4.34-12.63,21.47-12.01,28.63,1.06,12.35,6.85,18.61,17.23,18.61,14.5,0,16.66-12.35,17.03-21.63v-.21c.31-7.41.83-19.81-9.96-24.73Zm8.97,24.7v.21c-.4,9.95-2.91,20.74-16.04,20.74-11.59,0-15.43-8.37-16.23-17.76-.61-7.02-.7-23.55,11.36-27.68,1.49-.51,3.09-.77,4.76-.77,3.53,0,6.24,1.15,6.74,1.38,10.2,4.65,9.71,16.68,9.41,23.87Z"/><g><path d="m34.74,78.73c-6.68-.08-13.75-2.06-18.91-5.32C-1.65,62.38-.14,37.91,1.32,27.9,3.27,14.59,10.79,8.55,21.18,8.55c6.19,0,11.47,1.5,15.37,5.53,6.55,6.77,8.45,20.79-.32,34.81.97-.09,1.93-.14,2.89-.14,7.26,0,13.13,2.76,15.7,7.4,2.36,4.25,2.41,8.52.15,12.36-3.77,6.4-13.13,10.22-20,10.22h-.21Z"/><path d="m21.18,9.05c6.06,0,11.2,1.44,15.01,5.38,6.93,7.16,7.88,21.66-.95,35.08,1.3-.17,2.6-.26,3.88-.26,7.08,0,12.78,2.67,15.26,7.14,7.05,12.72-8.8,21.84-19.42,21.84-.07,0-.14,0-.21,0-6.79-.08-13.77-2.16-18.64-5.24C-1.14,62.11.37,37.88,1.82,27.97c1.54-10.54,7.34-18.92,19.36-18.92m0-1C10.5,8.05,2.81,14.24.83,27.83c-1.48,10.1-3,34.81,14.74,46,5.23,3.3,12.4,5.32,19.17,5.4h.22c7.01,0,16.57-3.92,20.43-10.47,2.35-4,2.31-8.44-.14-12.86-2.66-4.79-8.69-7.65-16.13-7.65-.64,0-1.3.02-1.95.06,8.31-13.95,6.3-27.81-.26-34.58-3.99-4.12-9.4-5.68-15.73-5.68h0Z"/></g></g><g><g><path class="cls-1" d="m213.97,75.49c-8.29,0-16.2-2.56-22.27-7.21-10.05-7.7-15.15-21.81-12.68-35.1,3.06-16.5,17.82-28.48,35.08-28.48,11.1,0,20.79,4.51,24.68,11.49,3.89,6.98,2.08,12.91-.12,16.65-4.31,7.34-13.95,12.67-22.92,12.67-2.02,0-4.07-.17-6.12-.52,2,2.04,4.47,3.03,7.5,3.03s6.17-.95,8.91-1.89c2.69-.92,5.24-1.78,7.61-1.78,3.13,0,5.34,1.21,6.58,3.59,2.5,4.83.12,13.36-2.69,17.34-4.43,6.29-13.46,10.19-23.57,10.19Zm.47-48.7c-1.7.62-1.29,3.21.52,3.23.02,0,.03,0,.05,0,.86,0,2.84-.66,3.28-1.56.09-.18.17-.48-.18-.92-.44-.56-1.47-1.01-2.29-1.01-.47,0-.94.1-1.38.26Z"/><path d="m214.1,5.2c10.92,0,20.44,4.41,24.25,11.23,8.31,14.89-8.53,28.58-22.59,28.58-2.47,0-4.96-.26-7.45-.77,2.5,3.2,5.55,4.29,8.82,4.29,2.94,0,6.05-.89,9.08-1.91,2.66-.9,5.17-1.76,7.45-1.76,10.63,0,7.23,14.83,3.48,20.15-4.34,6.16-13.22,9.98-23.16,9.98-8.19,0-15.99-2.53-21.97-7.11-9.91-7.59-14.93-21.5-12.5-34.62,3.09-16.64,17.92-28.07,34.59-28.07m.92,25.33c1.36,0,5.02-1.35,3.49-3.29-.57-.72-1.77-1.2-2.68-1.2-1.15,0-2.29.52-3.17,1.16-1.18.86-.87,2.67.53,3.07.54.16,1.16.26,1.83.26m-.92-26.33c-17.51,0-32.47,12.15-35.57,28.89-2.5,13.47,2.67,27.78,12.87,35.59,6.16,4.72,14.17,7.31,22.58,7.31,10.26,0,19.45-3.99,23.98-10.4,2.88-4.09,5.32-12.86,2.73-17.86-.91-1.76-2.87-3.86-7.02-3.86-2.46,0-5.04.88-7.77,1.81-2.7.92-5.86,1.86-8.75,1.86-2.28,0-4.23-.59-5.88-1.79,1.51.19,3.02.28,4.51.28,9.13,0,18.95-5.43,23.35-12.92,2.27-3.86,4.13-9.97.12-17.15-3.98-7.14-13.84-11.75-25.12-11.75h0Z"/></g><g><path class="cls-1" d="m260.45,76.68c-3.9,0-11.38-.54-17.74-4.12-5.94-3.34-9.09-8.5-9.12-14.9-.02-5.51,2.38-11.95,7.72-13.07.53-.11,1.08-.17,1.64-.17,3.61,0,7.11,2.36,9.92,4.25l.86.58c.36.24.74.5,1.12.76,1.64,1.13,3.49,2.41,5.32,2.86.22.05.45.08.69.08.88,0,1.91-.4,1.91-1.53,0-1.18-4.95-3.25-7.61-4.37-6.6-2.75-14.8-6.18-18.01-14.05-2.69-6.61-.7-13.67,1.83-17.71,4.22-6.76,13.26-10.79,24.18-10.79s19.89,3.91,23.18,9.96c2.25,4.14,2.27,10.06.06,14.09-1.68,3.07-4.15,4.62-7.34,4.62s-6.53-1.53-8.8-2.67c-1.04-.53-4.21-2.12-6.28-2.12-.62,0-1.07.15-1.33.44-.29.33-.4.9-.3,1.68.14,1.11,4.31,2.37,7.07,3.2,5.93,1.79,13.29,4.01,17.26,10.58,3.97,6.58,3.32,15.49-1.65,22.7-4.47,6.49-13.67,8.6-18.76,9.29-1.93.26-3.89.39-5.83.39Z"/><path d="m263.16,5.01c10.61,0,19.54,3.81,22.74,9.7,2.11,3.89,2.26,9.61.07,13.61-1.77,3.22-4.21,4.36-6.9,4.36s-5.78-1.21-8.57-2.62c-1.13-.57-4.32-2.18-6.5-2.18-1.4,0-2.38.66-2.12,2.69.18,1.44,4.03,2.6,7.43,3.62,5.84,1.76,13.1,3.95,16.96,10.36,4.17,6.92,2.82,15.71-1.63,22.16-3.93,5.71-11.88,8.2-18.41,9.08-1.91.26-3.84.39-5.76.39-11.56,0-26.3-4.63-26.36-18.51-.02-4.76,1.93-11.44,7.32-12.58.51-.11,1.03-.16,1.54-.16,3.81,0,7.51,2.76,10.5,4.74,1.98,1.31,4.25,3.11,6.6,3.69.26.06.53.1.81.1,1.2,0,2.4-.63,2.41-2.03,0-1.52-4.39-3.36-7.93-4.83-6.51-2.71-14.6-6.09-17.73-13.77-2.62-6.43-.67-13.32,1.79-17.26,4.13-6.61,13.01-10.56,23.75-10.56m0-1c-11.09,0-20.29,4.12-24.6,11.03-2.59,4.14-4.63,11.38-1.87,18.17,3.28,8.06,11.59,11.53,18.27,14.32,2.11.88,7.03,2.94,7.32,3.94,0,.93-1.09,1-1.42,1-.2,0-.39-.02-.57-.07-1.74-.43-3.56-1.68-5.16-2.79-.39-.27-.76-.53-1.13-.77-.28-.19-.56-.38-.86-.57-2.87-1.93-6.44-4.34-10.2-4.34-.59,0-1.18.06-1.74.18-5.61,1.18-8.14,7.85-8.12,13.56.03,6.59,3.27,11.89,9.37,15.33,6.46,3.64,14.04,4.18,17.99,4.18,1.96,0,3.94-.13,5.9-.4,5.17-.7,14.52-2.86,19.1-9.5,5.08-7.38,5.74-16.5,1.67-23.25-4.06-6.73-11.53-8.99-17.53-10.8-2.09-.63-6.42-1.94-6.73-2.81-.07-.6-.01-1.06.18-1.27.2-.23.63-.27.96-.27,1.95,0,5.04,1.56,6.05,2.07,2.32,1.17,5.78,2.73,9.02,2.73s6-1.64,7.78-4.88c2.29-4.16,2.26-10.29-.06-14.57-3.37-6.21-12.64-10.22-23.62-10.22h0Z"/></g><g><path class="cls-1" d="m97.05,76.07c-2.66,0-5.37-.59-7.65-1.66-11.38-5.37-11.98-22.59-11.32-32.38.54-8,1.44-21.39,12.62-30.31,5.99-4.78,13.88-7.41,22.2-7.41,6.14,0,12.32,1.5,17.46,4.23,5.15-2.77,11.15-4.23,17.36-4.23,9.26,0,18.05,3.27,24.11,8.96,6.63,6.24,8.26,13.91,9.45,19.52,2.76,13.07,1.9,35.88-12.16,41.43-2.23.88-4.66,1.35-7.01,1.35-3.44,0-6.51-.98-8.87-2.83-7.35-5.76-5.88-17.71-4.58-28.25.71-5.78,1.79-14.5-.5-15.73-.32-.17-.71-.26-1.13-.26-.48,0-.97.11-1.38.31-2.8,1.37-2.24,9.96-1.79,16.86.69,10.56,1.47,22.53-6.14,27.7-2.32,1.58-5.24,2.45-8.2,2.45-2.6,0-5.01-.67-6.98-1.95-7.15-4.64-6.23-15.82-5.34-26.63.59-7.22,1.33-16.18-1.61-17.68-.53-.27-1.01-.41-1.42-.41-.48,0-.89.19-1.24.57-2.17,2.34-1.54,10.77-1.33,13.54.03.38.05.69.06.91l.06,1.11c.61,10.87,1.31,23.19-6.63,28.56-2.13,1.44-4.87,2.22-7.92,2.24h-.11Z"/><path d="m112.9,4.8c6.2,0,12.33,1.52,17.46,4.3,5.14-2.81,11.1-4.29,17.36-4.29,9.14,0,17.8,3.22,23.77,8.83,6.52,6.13,8.13,13.72,9.3,19.26,2.73,12.92,1.92,35.43-11.85,40.86-2.12.84-4.48,1.31-6.83,1.31-3.08,0-6.13-.82-8.57-2.72-7.13-5.58-5.68-17.39-4.4-27.8.82-6.61,1.83-14.84-.76-16.23-.41-.22-.89-.32-1.37-.32-.56,0-1.12.13-1.6.36-3.1,1.52-2.55,9.92-2.06,17.34.68,10.43,1.45,22.25-5.92,27.26-2.25,1.53-5.1,2.36-7.92,2.36-2.38,0-4.75-.59-6.71-1.87-6.9-4.47-6-15.5-5.12-26.17.64-7.74,1.36-16.51-1.88-18.17-.62-.32-1.17-.46-1.65-.46-4.58,0-3.14,13.16-3.01,15.55.02.37.04.74.06,1.11.6,10.74,1.29,22.9-6.41,28.11-2.17,1.47-4.89,2.13-7.64,2.15-.04,0-.07,0-.11,0-2.61,0-5.24-.58-7.43-1.61-11.12-5.24-11.69-22.23-11.04-31.9.53-7.95,1.42-21.17,12.44-29.96,5.9-4.71,13.68-7.3,21.89-7.3m0-1c-8.44,0-16.43,2.67-22.51,7.52-11.36,9.06-12.27,22.59-12.81,30.67-.67,9.91-.04,27.37,11.61,32.87,2.34,1.1,5.13,1.71,7.86,1.71h.12c3.15-.02,5.98-.83,8.2-2.32,8.17-5.53,7.47-18,6.85-29-.02-.37-.04-.74-.06-1.11-.01-.22-.04-.54-.06-.92-.2-2.72-.82-10.99,1.2-13.17.26-.28.53-.41.87-.41.33,0,.74.12,1.19.35,2.64,1.35,1.89,10.5,1.34,17.18-.9,10.98-1.84,22.31,5.57,27.11,2.05,1.33,4.56,2.03,7.25,2.03,3.06,0,6.08-.9,8.48-2.53,7.84-5.33,7.06-17.45,6.36-28.15-.42-6.4-.99-15.16,1.51-16.38.34-.17.76-.26,1.16-.26.34,0,.65.07.9.2,1.99,1.07.9,9.93.25,15.23-1.31,10.68-2.8,22.78,4.77,28.71,2.46,1.92,5.63,2.94,9.18,2.94,2.42,0,4.9-.48,7.19-1.38,14.35-5.66,15.26-28.77,12.46-42-1.2-5.67-2.85-13.43-9.6-19.78-6.15-5.78-15.06-9.1-24.45-9.1-6.2,0-12.19,1.44-17.36,4.16-5.16-2.69-11.33-4.16-17.46-4.16h0Z"/></g><path class="cls-1" d="m67.44,75.92c-10.07,0-15.7-6.12-16.73-18.18-.61-7.05-.7-23.92,11.69-28.15,1.55-.53,3.21-.8,4.93-.8,3.65,0,6.44,1.19,6.96,1.43,10.5,4.79,9.99,17,9.69,24.3v.21c-.37,9.1-2.47,21.19-16.54,21.19Z"/><path class="cls-1" d="m71.82,22c-4.32,1.75-8.77,1.48-11.9-.71-3.13-2.19-4.92-6.36-4.34-10.13.61-3.99,3.85-7.63,8.47-9.5,4.34-1.76,8.77-1.5,11.84.68,3.2,2.27,4.9,6.65,4.13,10.64-.75,3.87-3.81,7.24-8.2,9.02h0Z"/><polyline points="82.21 18.33 82.21 18.33 82.21 18.33"/><path d="m76.18,1.93c-3.21-2.28-7.82-2.56-12.32-.74-4.78,1.93-8.14,5.72-8.78,9.89-.6,3.96,1.27,8.33,4.55,10.62,3.27,2.29,7.9,2.57,12.38.76h0c4.55-1.84,7.73-5.35,8.5-9.38.8-4.18-.98-8.76-4.33-11.14Zm3.35,10.95c-.71,3.7-3.66,6.93-7.9,8.65-4.16,1.68-8.44,1.44-11.43-.65-2.98-2.08-4.68-6.05-4.13-9.65.58-3.82,3.71-7.31,8.17-9.11,4.18-1.69,8.43-1.46,11.37.63,3.05,2.16,4.66,6.33,3.93,10.14Z"/><path d="m74.51,29.8c-.54-.25-3.43-1.48-7.18-1.48-1.78,0-3.5.28-5.1.83-12.71,4.34-12.63,21.47-12.01,28.63,1.06,12.35,6.85,18.61,17.23,18.61,14.5,0,16.66-12.35,17.03-21.63v-.21c.31-7.41.83-19.81-9.96-24.73Zm8.97,24.7v.21c-.4,9.95-2.91,20.74-16.04,20.74-11.59,0-15.43-8.37-16.23-17.76-.61-7.02-.7-23.55,11.36-27.68,1.49-.51,3.09-.77,4.76-.77,3.53,0,6.24,1.15,6.74,1.38,10.2,4.65,9.71,16.68,9.41,23.87Z"/><g><path class="cls-1" d="m34.74,75.73c-6.68-.08-13.75-2.06-18.91-5.32C-1.65,59.38-.14,34.91,1.32,24.9,3.27,11.59,10.79,5.55,21.18,5.55c6.19,0,11.47,1.5,15.37,5.53,6.55,6.77,8.45,20.79-.32,34.81.97-.09,1.93-.14,2.89-.14,7.26,0,13.13,2.76,15.7,7.4,2.36,4.25,2.41,8.52.15,12.36-3.77,6.4-13.13,10.22-20,10.22h-.21Z"/><path d="m21.18,6.05c6.06,0,11.2,1.44,15.01,5.38,6.93,7.16,7.88,21.66-.95,35.08,1.3-.17,2.6-.26,3.88-.26,7.08,0,12.78,2.67,15.26,7.14,7.05,12.72-8.8,21.84-19.42,21.84-.07,0-.14,0-.21,0-6.79-.08-13.77-2.16-18.64-5.24C-1.14,59.11.37,34.88,1.82,24.97,3.36,14.43,9.15,6.05,21.18,6.05m0-1C10.5,5.05,2.81,11.24.83,24.83c-1.48,10.1-3,34.81,14.74,46,5.23,3.3,12.4,5.32,19.17,5.4h.22c7.01,0,16.57-3.92,20.43-10.47,2.35-4,2.31-8.44-.14-12.86-2.66-4.79-8.69-7.65-16.13-7.65-.64,0-1.3.02-1.95.06,8.31-13.95,6.3-27.81-.26-34.58-3.99-4.12-9.4-5.68-15.73-5.68h0Z"/></g></g></g></g></svg>