<svg width="165" height="96" viewBox="0 0 165 96" fill="none" xmlns="http://www.w3.org/2000/svg">
<mask id="path-1-inside-1_104_622" fill="white">
<path fill-rule="evenodd" clip-rule="evenodd" d="M164.826 62.9981H164.944V61.1452V34.2783C164.944 15.3469 128.02 0 82.4721 0C36.924 0 0 15.3469 0 34.2783C0 34.2783 0 34.2784 0 34.2784V61.1452V62.9981H0.118435C2.43419 81.0679 38.4197 95.4235 82.4721 95.4235C126.525 95.4235 162.51 81.0679 164.826 62.9981Z"/>
</mask>
<path fill-rule="evenodd" clip-rule="evenodd" d="M164.826 62.9981H164.944V61.1452V34.2783C164.944 15.3469 128.02 0 82.4721 0C36.924 0 0 15.3469 0 34.2783C0 34.2783 0 34.2784 0 34.2784V61.1452V62.9981H0.118435C2.43419 81.0679 38.4197 95.4235 82.4721 95.4235C126.525 95.4235 162.51 81.0679 164.826 62.9981Z" fill="#F9C818"/>
<path d="M164.944 62.9981V63.9981H165.944V62.9981H164.944ZM164.826 62.9981V61.9981H163.946L163.834 62.8709L164.826 62.9981ZM0 62.9981H-1V63.9981H0V62.9981ZM0.118435 62.9981L1.11032 62.8709L0.998457 61.9981H0.118435V62.9981ZM164.944 61.9981H164.826V63.9981H164.944V61.9981ZM163.944 61.1452V62.9981H165.944V61.1452H163.944ZM163.944 34.2783V61.1452H165.944V34.2783H163.944ZM165.944 34.2783C165.944 29.1962 163.462 24.4458 159.164 20.2224C154.87 16.0024 148.707 12.248 141.173 9.11647C126.099 2.85148 105.345 -1 82.4721 -1V1C105.147 1 125.629 4.82198 140.405 10.9633C147.795 14.0349 153.71 17.6669 157.762 21.6489C161.811 25.6275 163.944 29.8947 163.944 34.2783H165.944ZM82.4721 -1C59.5993 -1 38.845 2.85148 23.7717 9.11647C16.2373 12.248 10.0746 16.0024 5.78017 20.2224C1.48228 24.4458 -1 29.1962 -1 34.2783H1C1 29.8947 3.13322 25.6275 7.18197 21.6489C11.2342 17.6669 17.1492 14.0349 24.5393 10.9633C39.3151 4.82198 59.7968 1 82.4721 1V-1ZM-1 34.2783C-1 34.2783 -1 34.2783 -1 34.2783C-1 34.2783 -1 34.2783 -1 34.2783C-1 34.2783 -1 34.2783 -1 34.2783V34.2783V34.2783C-1 34.2783 -1 34.2783 -1 34.2783C-1 34.2783 -1 34.2783 -1 34.2784C-1 34.2784 -1 34.2784 -1 34.2784C-1 34.2784 -1 34.2784 -1 34.2784C-1 34.2784 -1 34.2784 -1 34.2784V34.2784V34.2784V34.2784C-1 34.2784 -1 34.2784 -1 34.2784C-1 34.2784 -1 34.2784 -1 34.2784H1C1 34.2784 1 34.2784 1 34.2784C1 34.2784 1 34.2784 1 34.2784V34.2784V34.2784V34.2784C1 34.2784 1 34.2784 1 34.2784C1 34.2784 1 34.2784 1 34.2784C1 34.2784 1 34.2784 1 34.2784C1 34.2783 1 34.2783 1 34.2783C1 34.2783 1 34.2783 1 34.2783V34.2783V34.2783C1 34.2783 1 34.2783 1 34.2783C1 34.2783 1 34.2783 1 34.2783C1 34.2783 1 34.2783 1 34.2783H-1ZM1 61.1452V34.2784H-1V61.1452H1ZM1 62.9981V61.1452H-1V62.9981H1ZM0.118435 61.9981H0V63.9981H0.118435V61.9981ZM-0.873453 63.1252C-0.25373 67.9609 2.60561 72.4502 7.10518 76.4363C11.6067 80.424 17.8109 83.9657 25.2764 86.9169C40.2101 92.8204 60.3491 96.4235 82.4721 96.4235V94.4235C60.5427 94.4235 40.6627 90.8487 26.0116 85.057C18.6847 82.1605 12.7051 78.7253 8.43139 74.9392C4.15573 71.1515 1.64848 67.0702 1.11032 62.8709L-0.873453 63.1252ZM82.4721 96.4235C104.595 96.4235 124.734 92.8204 139.668 86.9169C147.133 83.9657 153.338 80.424 157.839 76.4363C162.339 72.4502 165.198 67.9609 165.818 63.1252L163.834 62.8709C163.296 67.0702 160.788 71.1515 156.513 74.9392C152.239 78.7253 146.26 82.1605 138.933 85.057C124.282 90.8487 104.402 94.4235 82.4721 94.4235V96.4235Z" fill="black" mask="url(#path-1-inside-1_104_622)"/>
<path d="M164.444 34.5342C164.444 39.1291 162.222 43.5512 158.111 47.6211C153.999 51.693 148.022 55.3829 140.596 58.4924C125.746 64.7105 105.196 68.5684 82.4721 68.5684C59.7479 68.5684 39.1984 64.7105 24.3486 58.4924C16.9227 55.3829 10.9457 51.693 6.83284 47.6211C2.72177 43.5512 0.5 39.1291 0.5 34.5342C0.5 29.9393 2.72177 25.5172 6.83284 21.4473C10.9457 17.3755 16.9227 13.6856 24.3486 10.576C39.1984 4.35787 59.7479 0.5 82.4721 0.5C105.196 0.5 125.746 4.35787 140.596 10.576C148.022 13.6856 153.999 17.3755 158.111 21.4473C162.222 25.5172 164.444 29.9393 164.444 34.5342Z" fill="#F9DC4A" stroke="black"/>
<path d="M93.9305 15.684C93.9305 17.882 93.9554 19.6091 94.0053 20.8651C94.0553 22.0862 94.1301 23.1678 94.2299 24.1098C93.8307 24.04 93.057 23.9877 91.9091 23.9528C90.8111 23.9179 89.5383 23.9004 88.0909 23.9004C86.6435 23.8655 85.221 23.8481 83.8235 23.8481H73.492L72.369 33.1635C73.5668 32.6751 74.9893 32.2389 76.6364 31.8552C78.3333 31.4714 80.4046 31.2795 82.8503 31.2795C86.0945 31.2795 88.7647 31.6458 90.861 32.3785C92.9572 33.0763 94.5045 34.0532 95.5027 35.3092C96.5009 36.5303 97 37.9084 97 39.4436C97 41.4671 96.1765 43.2988 94.5294 44.9386C92.8824 46.5784 90.6863 47.974 87.9412 49.1253C85.246 50.2767 82.2513 51.1489 78.9572 51.742C75.6631 52.37 72.344 52.684 69 52.684V51.742C71.2959 51.742 73.5169 51.4803 75.6631 50.957C77.8093 50.4337 79.7558 49.6661 81.5027 48.6543C83.2496 47.6774 84.6221 46.4563 85.6203 44.991C86.6684 43.5256 87.1925 41.816 87.1925 39.8622C87.1925 37.6642 86.4189 35.9721 84.8717 34.7859C83.3743 33.5647 81.2032 32.9542 78.3583 32.9542C76.9608 32.9542 75.7629 33.0763 74.7647 33.3205C73.8164 33.5647 72.8182 33.8787 71.7701 34.2625L70.8717 33.8439L72.893 17.725C73.4421 17.7948 74.066 17.8472 74.7647 17.882C75.5134 17.9169 76.2371 17.9344 76.9358 17.9344H87.9412C89.6381 17.9344 90.7611 17.7774 91.3102 17.4634C91.8592 17.1145 92.2086 16.5214 92.3583 15.684H93.9305Z" fill="#752B00"/>
</svg>
