<?xml version="1.0" encoding="UTF-8"?><svg id="Layer_2" xmlns="http://www.w3.org/2000/svg" viewBox="0 0 168.39 46.59"><defs><style>.cls-1{fill:#c0f467;}</style></defs><g id="Layer_1-2"><g><g><g><path d="m124.34,45.61c-4.82,0-9.42-1.49-12.94-4.19-5.84-4.48-8.8-12.67-7.37-20.4,1.78-9.59,10.35-16.55,20.39-16.55,6.45,0,12.08,2.62,14.34,6.68,2.26,4.05,1.21,7.5-.07,9.68-2.51,4.27-8.11,7.36-13.32,7.36-.4,0-.79-.01-1.19-.03-.67-.04-.87.9-.23,1.13.68.25,1.42.37,2.23.37,1.72,0,3.59-.55,5.18-1.1,1.57-.53,3.05-1.04,4.42-1.04,1.82,0,3.1.7,3.82,2.09,1.46,2.81.07,7.76-1.56,10.08-2.58,3.65-7.82,5.92-13.7,5.92Zm-.82-27.64c-.33.28-.25.83.16.98.34.13.78.24,1.28.24.5,0,1.65-.38,1.91-.91.05-.11.1-.28-.11-.53-.26-.32-.85-.59-1.33-.59-.73,0-1.43.41-1.9.81Z"/><path d="m124.41,4.76c6.35,0,11.88,2.56,14.09,6.53,4.83,8.65-4.96,16.61-13.13,16.61-1.43,0-2.88-.15-4.33-.45,1.45,1.86,3.23,2.49,5.13,2.49,1.71,0,3.52-.51,5.27-1.11,1.54-.53,3-1.02,4.33-1.02,6.18,0,4.2,8.62,2.02,11.71-2.52,3.58-7.68,5.8-13.46,5.8-4.76,0-9.29-1.47-12.77-4.13-5.76-4.41-8.68-12.5-7.26-20.12,1.79-9.67,10.42-16.31,20.1-16.31m.53,14.72c.79,0,2.92-.78,2.03-1.91-.33-.42-1.03-.7-1.56-.7-1.38,0-2.73,1.29-2.77,1.79.1.18,1.05.82,2.3.82m-.53-15.3c-10.17,0-18.87,7.06-20.67,16.79-1.45,7.83,1.55,16.14,7.48,20.68,3.58,2.74,8.24,4.25,13.12,4.25,5.96,0,11.3-2.32,13.93-6.05,1.68-2.38,3.09-7.47,1.58-10.38-.53-1.02-1.67-2.24-4.08-2.24-1.43,0-2.93.51-4.52,1.05-1.57.53-3.4,1.08-5.09,1.08-1.33,0-2.46-.34-3.42-1.04.88.11,1.75.16,2.62.16,5.31,0,11.01-3.16,13.57-7.51,1.32-2.24,2.4-5.79.07-9.97-2.31-4.15-8.04-6.83-14.6-6.83h0Zm-1.03,14.32c.35-.41,1.19-1.04,2.04-1.04.39,0,.9.22,1.1.48.11.14.09.19.07.23-.18.37-1.18.74-1.64.74-.68,0-1.25-.22-1.57-.4h0Z"/></g><g><path d="m151.35,46.3c-2.26,0-6.61-.31-10.31-2.39-3.45-1.94-5.28-4.94-5.3-8.66-.01-3.2,1.39-6.94,4.49-7.59.31-.06.63-.1.95-.1,2.1,0,4.13,1.37,5.77,2.47l.5.33c.21.14.43.29.65.44.95.66,2.03,1.4,3.09,1.66.13.03.26.05.4.05.51,0,1.11-.23,1.11-.89,0-.69-2.88-1.89-4.42-2.54-3.84-1.6-8.6-3.59-10.46-8.16-1.56-3.84-.41-7.94,1.06-10.29,2.45-3.93,7.71-6.27,14.05-6.27s11.56,2.27,13.47,5.79c1.31,2.4,1.32,5.85.04,8.19-.98,1.78-2.41,2.69-4.26,2.69s-3.79-.89-5.11-1.55c-.6-.31-2.45-1.23-3.65-1.23-.36,0-.62.09-.77.26-.17.19-.23.52-.17.98.08.65,2.5,1.38,4.11,1.86,3.45,1.04,7.72,2.33,10.03,6.15,2.31,3.82,1.93,9-.96,13.19-2.6,3.77-7.94,5-10.9,5.4-1.12.15-2.26.23-3.39.23Z"/><path d="m152.92,4.66c6.17,0,11.36,2.21,13.21,5.64,1.23,2.26,1.31,5.58.04,7.91-1.03,1.87-2.45,2.54-4.01,2.54s-3.36-.7-4.98-1.52c-.66-.33-2.51-1.27-3.78-1.27-.81,0-1.38.38-1.23,1.56.1.83,2.34,1.51,4.32,2.1,3.39,1.02,7.61,2.3,9.86,6.02,2.43,4.02,1.64,9.13-.95,12.88-2.28,3.32-6.9,4.76-10.7,5.27-1.11.15-2.23.23-3.35.23-6.72,0-15.29-2.69-15.32-10.76-.01-2.77,1.12-6.65,4.25-7.31.3-.06.6-.09.89-.09,2.22,0,4.37,1.6,6.1,2.76,1.15.76,2.47,1.81,3.84,2.15.15.04.31.06.47.06.7,0,1.4-.36,1.4-1.18,0-.88-2.55-1.95-4.61-2.81-3.78-1.58-8.49-3.54-10.3-8-1.52-3.74-.39-7.74,1.04-10.03,2.4-3.84,7.56-6.13,13.8-6.13m0-.58c-6.44,0-11.79,2.4-14.3,6.41-1.5,2.41-2.69,6.62-1.08,10.56,1.91,4.69,6.74,6.7,10.62,8.32,1.23.51,4.09,1.71,4.25,2.29,0,.54-.63.58-.82.58-.11,0-.22-.01-.33-.04-1.01-.25-2.07-.98-3-1.62-.22-.15-.44-.31-.66-.45-.16-.11-.33-.22-.5-.33-1.67-1.12-3.74-2.52-5.93-2.52-.34,0-.68.03-1.01.1-3.26.68-4.73,4.56-4.72,7.88.01,3.83,1.9,6.91,5.45,8.91,3.75,2.11,8.16,2.43,10.45,2.43,1.14,0,2.29-.08,3.43-.23,3-.4,8.44-1.66,11.1-5.52,2.95-4.29,3.33-9.59.97-13.51-2.36-3.91-6.7-5.22-10.19-6.27-1.22-.37-3.73-1.13-3.91-1.63-.04-.35,0-.61.1-.74.12-.13.37-.16.56-.16,1.13,0,2.93.91,3.52,1.2,1.35.68,3.36,1.58,5.24,1.58s3.49-.95,4.52-2.84c1.33-2.42,1.31-5.98-.04-8.46-1.96-3.61-7.35-5.94-13.73-5.94h0Z"/></g><g><path d="m56.39,45.95c-1.54,0-3.12-.34-4.44-.97-6.62-3.12-6.96-13.13-6.58-18.82.31-4.65.84-12.43,7.33-17.61,3.48-2.78,8.06-4.31,12.9-4.31,3.57,0,7.16.87,10.15,2.46,2.99-1.61,6.48-2.46,10.09-2.46,5.38,0,10.49,1.9,14.01,5.21,3.85,3.62,4.8,8.08,5.49,11.34,1.6,7.6,1.11,20.85-7.07,24.08-1.3.51-2.71.78-4.07.78-2,0-3.78-.57-5.16-1.65-4.27-3.35-3.42-10.29-2.66-16.42.41-3.36,1.04-8.42-.29-9.14-.18-.1-.41-.15-.66-.15-.28,0-.56.06-.8.18-1.63.8-1.3,5.79-1.04,9.8.4,6.14.85,13.09-3.57,16.1-1.35.92-3.04,1.42-4.77,1.42-1.51,0-2.91-.39-4.06-1.13-4.16-2.69-3.62-9.19-3.11-15.48.34-4.19.77-9.4-.93-10.28-.31-.16-.59-.24-.83-.24-.28,0-.51.11-.72.33-1.26,1.36-.89,6.26-.77,7.87.02.22.03.4.04.53l.04.65c.36,6.32.76,13.47-3.85,16.59-1.24.84-2.83,1.29-4.6,1.3h-.07Z"/><path d="m65.61,4.53c3.6,0,7.17.88,10.15,2.5,2.99-1.63,6.45-2.5,10.09-2.5,5.31,0,10.35,1.87,13.81,5.13,3.79,3.56,4.72,7.97,5.41,11.19,1.59,7.51,1.12,20.59-6.89,23.75-1.23.49-2.6.76-3.97.76-1.79,0-3.56-.48-4.98-1.58-4.14-3.24-3.3-10.1-2.55-16.15.47-3.84,1.06-8.62-.44-9.43-.24-.13-.52-.19-.8-.19-.32,0-.65.08-.93.21-1.8.88-1.48,5.77-1.2,10.08.39,6.06.84,12.93-3.44,15.84-1.31.89-2.96,1.37-4.6,1.37-1.38,0-2.76-.35-3.9-1.08-4.01-2.6-3.48-9.01-2.97-15.21.37-4.5.79-9.59-1.09-10.56-.36-.18-.68-.27-.96-.27-2.66,0-1.82,7.65-1.75,9.03.01.22.02.43.04.65.35,6.24.75,13.31-3.72,16.34-1.26.85-2.84,1.24-4.44,1.25-.02,0-.04,0-.06,0-1.52,0-3.05-.34-4.32-.94-6.46-3.05-6.79-12.92-6.41-18.53.31-4.62.83-12.3,7.23-17.41,3.43-2.74,7.95-4.24,12.72-4.24m0-.58c-4.9,0-9.55,1.55-13.08,4.37-6.6,5.27-7.13,13.13-7.44,17.82-.39,5.76-.03,15.9,6.75,19.1,1.36.64,2.98.99,4.57.99h.07c1.83-.01,3.48-.48,4.76-1.35,4.75-3.21,4.34-10.46,3.98-16.85-.01-.22-.02-.43-.04-.65,0-.13-.02-.31-.04-.54-.12-1.58-.48-6.39.7-7.65.15-.16.31-.24.51-.24.19,0,.43.07.69.21,1.53.78,1.1,6.1.78,9.98-.52,6.38-1.07,12.96,3.24,15.75,1.19.77,2.65,1.18,4.21,1.18,1.78,0,3.53-.52,4.93-1.47,4.56-3.1,4.1-10.14,3.7-16.36-.24-3.72-.58-8.81.88-9.52.2-.1.44-.15.67-.15.2,0,.38.04.52.12,1.16.62.52,5.77.14,8.85-.76,6.21-1.63,13.24,2.77,16.68,1.43,1.12,3.27,1.71,5.34,1.71,1.4,0,2.85-.28,4.18-.8,8.34-3.29,8.87-16.72,7.24-24.41-.7-3.29-1.66-7.81-5.58-11.49-3.57-3.36-8.75-5.29-14.21-5.29-3.6,0-7.08.84-10.09,2.42-3-1.56-6.59-2.42-10.14-2.42h0Z"/></g><path d="m39.19,45.86c-5.85,0-9.12-3.55-9.72-10.57-.35-4.1-.4-13.9,6.79-16.36.9-.31,1.87-.46,2.86-.46,2.12,0,3.74.69,4.05.83,6.1,2.78,5.81,9.88,5.63,14.12v.12c-.21,5.29-1.44,12.31-9.61,12.31Z"/><path d="m41.74,14.53c-2.51,1.01-5.1.86-6.92-.41-1.82-1.27-2.86-3.69-2.52-5.89.35-2.32,2.24-4.43,4.92-5.52,2.52-1.02,5.1-.87,6.88.4,1.86,1.32,2.85,3.86,2.4,6.18-.43,2.25-2.21,4.21-4.76,5.24h0Z"/><polyline points="47.77 12.4 47.77 12.4 47.77 12.4"/><path d="m44.27,2.87c-1.87-1.33-4.54-1.49-7.16-.43-2.78,1.12-4.73,3.33-5.1,5.75-.35,2.3.74,4.84,2.64,6.17,1.9,1.33,4.59,1.49,7.19.44h0c2.64-1.07,4.49-3.11,4.94-5.45.47-2.43-.57-5.09-2.52-6.48Zm1.95,6.37c-.41,2.15-2.13,4.03-4.59,5.02-2.42.98-4.9.84-6.64-.38-1.73-1.21-2.72-3.52-2.4-5.61.34-2.22,2.16-4.25,4.74-5.29,2.43-.98,4.9-.85,6.61.36,1.77,1.26,2.71,3.68,2.28,5.89Z"/><path d="m43.3,19.06c-.31-.14-1.99-.86-4.17-.86-1.03,0-2.03.16-2.96.48-7.38,2.52-7.34,12.47-6.98,16.63.61,7.18,3.98,10.81,10.01,10.81,8.42,0,9.68-7.18,9.9-12.57v-.12c.18-4.3.48-11.51-5.79-14.37Zm5.21,14.35v.12c-.23,5.78-1.69,12.05-9.32,12.05-6.73,0-8.97-4.86-9.43-10.32-.35-4.08-.41-13.69,6.6-16.08.87-.3,1.8-.45,2.76-.45,2.05,0,3.62.67,3.92.8,5.93,2.7,5.64,9.69,5.47,13.87Z"/><g><path d="m20.18,45.75c-3.88-.04-7.99-1.2-10.99-3.09C-.96,36.25-.08,22.03.77,16.21,1.9,8.48,6.27,4.97,12.31,4.97c3.6,0,6.66.87,8.93,3.21,3.81,3.93,4.91,12.08-.19,20.23.56-.05,1.12-.08,1.68-.08,4.22,0,7.63,1.61,9.12,4.3,1.37,2.47,1.4,4.95.09,7.18-2.19,3.72-7.63,5.94-11.62,5.94h-.12Z"/><path d="m12.31,5.26c3.52,0,6.51.84,8.72,3.13,4.03,4.16,4.58,12.58-.55,20.38.76-.1,1.51-.15,2.25-.15,4.11,0,7.43,1.55,8.87,4.15,4.1,7.39-5.12,12.69-11.28,12.69-.04,0-.08,0-.12,0-3.95-.04-8-1.26-10.83-3.05C-.66,36.09.21,22.01,1.06,16.25c.89-6.12,4.26-10.99,11.25-10.99m0-.58C6.1,4.68,1.63,8.27.48,16.17c-.86,5.87-1.74,20.23,8.56,26.73,3.04,1.92,7.2,3.09,11.14,3.14h.13c4.07,0,9.63-2.28,11.87-6.08,1.37-2.32,1.34-4.91-.08-7.47-1.54-2.78-5.05-4.45-9.38-4.45-.37,0-.75.01-1.13.04,4.83-8.11,3.66-16.16-.15-20.09-2.32-2.4-5.46-3.3-9.14-3.3h0Z"/></g></g><g><path class="cls-1" d="m124.34,43.87c-4.82,0-9.42-1.49-12.94-4.19-5.84-4.48-8.8-12.67-7.37-20.4,1.78-9.59,10.35-16.55,20.39-16.55,6.45,0,12.08,2.62,14.34,6.68,2.26,4.05,1.21,7.5-.07,9.68-2.51,4.27-8.11,7.36-13.32,7.36-1.17,0-2.37-.1-3.56-.3,1.16,1.18,2.6,1.76,4.36,1.76s3.59-.55,5.18-1.1c1.57-.53,3.05-1.04,4.42-1.04,1.82,0,3.1.7,3.82,2.09,1.46,2.81.07,7.76-1.56,10.08-2.58,3.65-7.82,5.92-13.7,5.92Zm.28-28.3c-.99.36-.75,1.87.3,1.88,0,0,.02,0,.03,0,.5,0,1.65-.38,1.91-.91.05-.11.1-.28-.11-.53-.26-.32-.85-.59-1.33-.59-.27,0-.55.06-.8.15Z"/><path d="m124.41,3.02c6.35,0,11.88,2.56,14.09,6.53,4.83,8.65-4.96,16.61-13.13,16.61-1.33,0-2.66-.13-4-.39-.11-.02-.19.11-.11.19,1.41,1.66,3.11,2.24,4.92,2.24,1.71,0,3.52-.51,5.27-1.11,1.54-.53,3-1.02,4.33-1.02,6.18,0,4.2,8.62,2.02,11.71-2.52,3.58-7.68,5.8-13.46,5.8-4.76,0-9.29-1.47-12.77-4.13-5.76-4.41-8.68-12.5-7.26-20.12,1.79-9.67,10.42-16.31,20.1-16.31m.53,14.72c.79,0,2.92-.78,2.03-1.91-.33-.42-1.03-.7-1.56-.7s-1.09.2-1.55.48c-.88.53-.65,1.86.36,2.06.23.04.47.07.73.07m-.53-15.3c-10.17,0-18.87,7.06-20.67,16.79-1.45,7.83,1.55,16.14,7.48,20.68,3.58,2.74,8.24,4.25,13.12,4.25,5.96,0,11.3-2.32,13.93-6.05,1.68-2.38,3.09-7.47,1.58-10.38-.53-1.02-1.67-2.24-4.08-2.24-1.43,0-2.93.51-4.52,1.05-1.57.53-3.4,1.08-5.09,1.08-1.33,0-2.46-.34-3.42-1.04.88.11,1.75.16,2.62.16,5.31,0,11.01-3.16,13.57-7.51,1.32-2.24,2.4-5.79.07-9.97-2.31-4.15-8.04-6.83-14.6-6.83h0Z"/><path class="cls-1" d="m151.35,44.56c-2.26,0-6.61-.31-10.31-2.39-3.45-1.94-5.28-4.94-5.3-8.66-.01-3.2,1.39-6.94,4.49-7.59.31-.06.63-.1.95-.1,2.1,0,4.13,1.37,5.77,2.47l.5.33c.21.14.43.29.65.44.95.66,2.03,1.4,3.09,1.66.13.03.26.05.4.05.51,0,1.11-.23,1.11-.89,0-.69-2.88-1.89-4.42-2.54-3.84-1.6-8.6-3.59-10.46-8.16-1.56-3.84-.41-7.94,1.06-10.29,2.45-3.93,7.71-6.27,14.05-6.27s11.56,2.27,13.47,5.79c1.31,2.4,1.32,5.85.04,8.19-.98,1.78-2.41,2.69-4.26,2.69s-3.79-.89-5.11-1.55c-.6-.31-2.45-1.23-3.65-1.23-.36,0-.62.09-.77.26-.17.19-.23.52-.17.98.08.65,2.5,1.38,4.11,1.86,3.45,1.04,7.72,2.33,10.03,6.15,2.31,3.82,1.93,9-.96,13.19-2.6,3.77-7.94,5-10.9,5.4-1.12.15-2.26.23-3.39.23Z"/><path d="m152.92,2.91c6.17,0,11.36,2.21,13.21,5.64,1.23,2.26,1.31,5.58.04,7.91-1.03,1.87-2.45,2.54-4.01,2.54s-3.36-.7-4.98-1.52c-.66-.33-2.51-1.27-3.78-1.27-.81,0-1.38.38-1.23,1.56.1.83,2.34,1.51,4.32,2.1,3.39,1.02,7.61,2.3,9.86,6.02,2.43,4.02,1.64,9.13-.95,12.88-2.28,3.32-6.9,4.76-10.7,5.27-1.11.15-2.23.23-3.35.23-6.72,0-15.29-2.69-15.32-10.76-.01-2.77,1.12-6.65,4.25-7.31.3-.06.6-.09.89-.09,2.22,0,4.37,1.6,6.1,2.76,1.15.76,2.47,1.81,3.84,2.15.15.04.31.06.47.06.7,0,1.4-.36,1.4-1.18,0-.88-2.55-1.95-4.61-2.81-3.78-1.58-8.49-3.54-10.3-8-1.52-3.74-.39-7.74,1.04-10.03,2.4-3.84,7.56-6.13,13.8-6.13m0-.58c-6.44,0-11.79,2.4-14.3,6.41-1.5,2.41-2.69,6.62-1.08,10.56,1.91,4.69,6.74,6.7,10.62,8.32,1.23.51,4.09,1.71,4.25,2.29,0,.54-.63.58-.82.58-.11,0-.22-.01-.33-.04-1.01-.25-2.07-.98-3-1.62-.22-.15-.44-.31-.66-.45-.16-.11-.33-.22-.5-.33-1.67-1.12-3.74-2.52-5.93-2.52-.34,0-.68.03-1.01.1-3.26.68-4.73,4.56-4.72,7.88.01,3.83,1.9,6.91,5.45,8.91,3.75,2.11,8.16,2.43,10.45,2.43,1.14,0,2.29-.08,3.43-.23,3-.4,8.44-1.66,11.1-5.52,2.95-4.29,3.33-9.59.97-13.51-2.36-3.91-6.7-5.22-10.19-6.27-1.22-.37-3.73-1.13-3.91-1.63-.04-.35,0-.61.1-.74.12-.13.37-.16.56-.16,1.13,0,2.93.91,3.52,1.2,1.35.68,3.36,1.58,5.24,1.58s3.49-.95,4.52-2.84c1.33-2.42,1.31-5.98-.04-8.46-1.96-3.61-7.35-5.94-13.73-5.94h0Z"/><path class="cls-1" d="m56.39,44.2c-1.54,0-3.12-.34-4.44-.97-6.62-3.12-6.96-13.13-6.58-18.82.31-4.65.84-12.43,7.33-17.61,3.48-2.78,8.06-4.31,12.9-4.31,3.57,0,7.16.87,10.15,2.46,2.99-1.61,6.48-2.46,10.09-2.46,5.38,0,10.49,1.9,14.01,5.21,3.85,3.62,4.8,8.08,5.49,11.34,1.6,7.6,1.11,20.85-7.07,24.08-1.3.51-2.71.78-4.07.78-2,0-3.78-.57-5.16-1.65-4.27-3.35-3.42-10.29-2.66-16.42.41-3.36,1.04-8.42-.29-9.14-.18-.1-.41-.15-.66-.15-.28,0-.56.06-.8.18-1.63.8-1.3,5.79-1.04,9.8.4,6.14.85,13.09-3.57,16.1-1.35.92-3.04,1.42-4.77,1.42-1.51,0-2.91-.39-4.06-1.13-4.16-2.69-3.62-9.19-3.11-15.48.34-4.19.77-9.4-.93-10.28-.31-.16-.59-.24-.83-.24-.28,0-.51.11-.72.33-1.26,1.36-.89,6.26-.77,7.87.02.22.03.4.04.53l.04.65c.36,6.32.76,13.47-3.85,16.59-1.24.84-2.83,1.29-4.6,1.3h-.07Z"/><path d="m65.61,2.79c3.6,0,7.17.88,10.15,2.5,2.99-1.63,6.45-2.5,10.09-2.5,5.31,0,10.35,1.87,13.81,5.13,3.79,3.56,4.72,7.97,5.41,11.19,1.59,7.51,1.12,20.59-6.89,23.75-1.23.49-2.6.76-3.97.76-1.79,0-3.56-.48-4.98-1.58-4.14-3.24-3.3-10.1-2.55-16.15.47-3.84,1.06-8.62-.44-9.43-.24-.13-.52-.19-.8-.19-.32,0-.65.08-.93.21-1.8.88-1.48,5.77-1.2,10.08.39,6.06.84,12.93-3.44,15.84-1.31.89-2.96,1.37-4.6,1.37-1.38,0-2.76-.35-3.9-1.08-4.01-2.6-3.48-9.01-2.97-15.21.37-4.5.79-9.59-1.09-10.56-.36-.18-.68-.27-.96-.27-2.66,0-1.82,7.65-1.75,9.03.01.22.02.43.04.65.35,6.24.75,13.31-3.72,16.34-1.26.85-2.84,1.24-4.44,1.25-.02,0-.04,0-.06,0-1.52,0-3.05-.34-4.32-.94-6.46-3.05-6.79-12.92-6.41-18.53.31-4.62.83-12.3,7.23-17.41,3.43-2.74,7.95-4.24,12.72-4.24m0-.58c-4.9,0-9.55,1.55-13.08,4.37-6.6,5.27-7.13,13.13-7.44,17.82-.39,5.76-.03,15.9,6.75,19.1,1.36.64,2.98.99,4.57.99h.07c1.83-.01,3.48-.48,4.76-1.35,4.75-3.21,4.34-10.46,3.98-16.85-.01-.22-.02-.43-.04-.65,0-.13-.02-.31-.04-.54-.12-1.58-.48-6.39.7-7.65.15-.16.31-.24.51-.24.19,0,.43.07.69.21,1.53.78,1.1,6.1.78,9.98-.52,6.38-1.07,12.96,3.24,15.75,1.19.77,2.65,1.18,4.21,1.18,1.78,0,3.53-.52,4.93-1.47,4.56-3.1,4.1-10.14,3.7-16.36-.24-3.72-.58-8.81.88-9.52.2-.1.44-.15.67-.15.2,0,.38.04.52.12,1.16.62.52,5.77.14,8.85-.76,6.21-1.63,13.24,2.77,16.68,1.43,1.12,3.27,1.71,5.34,1.71,1.4,0,2.85-.28,4.18-.8,8.34-3.29,8.87-16.72,7.24-24.41-.7-3.29-1.66-7.81-5.58-11.49-3.57-3.36-8.75-5.29-14.21-5.29-3.6,0-7.08.84-10.09,2.42-3-1.56-6.59-2.42-10.14-2.42h0Z"/><path class="cls-1" d="m39.19,44.12c-5.85,0-9.12-3.55-9.72-10.57-.35-4.1-.4-13.9,6.79-16.36.9-.31,1.87-.46,2.86-.46,2.12,0,3.74.69,4.05.83,6.1,2.78,5.81,9.88,5.63,14.12v.12c-.21,5.29-1.44,12.31-9.61,12.31Z"/><path class="cls-1" d="m41.74,12.78c-2.51,1.01-5.1.86-6.92-.41-1.82-1.27-2.86-3.69-2.52-5.89.35-2.32,2.24-4.43,4.92-5.52,2.52-1.02,5.1-.87,6.88.4,1.86,1.32,2.85,3.86,2.4,6.18-.43,2.25-2.21,4.21-4.76,5.24h0Z"/><polyline points="47.77 10.65 47.77 10.65 47.77 10.65"/><path d="m44.27,1.12c-1.87-1.33-4.54-1.49-7.16-.43-2.78,1.12-4.73,3.33-5.1,5.75-.35,2.3.74,4.84,2.64,6.17,1.9,1.33,4.59,1.49,7.19.44h0c2.64-1.07,4.49-3.11,4.94-5.45.47-2.43-.57-5.09-2.52-6.48Zm1.95,6.37c-.41,2.15-2.13,4.03-4.59,5.02-2.42.98-4.9.84-6.64-.38-1.73-1.21-2.72-3.52-2.4-5.61.34-2.22,2.16-4.25,4.74-5.29,2.43-.98,4.9-.85,6.61.36,1.77,1.26,2.71,3.68,2.28,5.89Z"/><path d="m43.3,17.32c-.31-.14-1.99-.86-4.17-.86-1.03,0-2.03.16-2.96.48-7.38,2.52-7.34,12.47-6.98,16.63.61,7.18,3.98,10.81,10.01,10.81,8.42,0,9.68-7.18,9.9-12.57v-.12c.18-4.3.48-11.51-5.79-14.37Zm5.21,14.35v.12c-.23,5.78-1.69,12.05-9.32,12.05-6.73,0-8.97-4.86-9.43-10.32-.35-4.08-.41-13.69,6.6-16.08.87-.3,1.8-.45,2.76-.45,2.05,0,3.62.67,3.92.8,5.93,2.7,5.64,9.69,5.47,13.87Z"/><path class="cls-1" d="m20.18,44.01c-3.88-.04-7.99-1.2-10.99-3.09C-.96,34.5-.08,20.29.77,14.47,1.9,6.73,6.27,3.23,12.31,3.23c3.6,0,6.66.87,8.93,3.21,3.81,3.93,4.91,12.08-.19,20.23.56-.05,1.12-.08,1.68-.08,4.22,0,7.63,1.61,9.12,4.3,1.37,2.47,1.4,4.95.09,7.18-2.19,3.72-7.63,5.94-11.62,5.94h-.12Z"/><path d="m12.31,3.52c3.52,0,6.51.84,8.72,3.13,4.03,4.16,4.58,12.58-.55,20.38.76-.1,1.51-.15,2.25-.15,4.11,0,7.43,1.55,8.87,4.15,4.1,7.39-5.12,12.69-11.28,12.69-.04,0-.08,0-.12,0-3.95-.04-8-1.26-10.83-3.05C-.66,34.35.21,20.27,1.06,14.51,1.95,8.39,5.32,3.52,12.31,3.52m0-.58C6.1,2.94,1.63,6.53.48,14.43c-.86,5.87-1.74,20.23,8.56,26.73,3.04,1.92,7.2,3.09,11.14,3.14h.13c4.07,0,9.63-2.28,11.87-6.08,1.37-2.32,1.34-4.91-.08-7.47-1.54-2.78-5.05-4.45-9.38-4.45-.37,0-.75.01-1.13.04,4.83-8.11,3.66-16.16-.15-20.09-2.32-2.4-5.46-3.3-9.14-3.3h0Z"/></g></g></g></svg>