<svg width="300" height="83" viewBox="0 0 300 83" fill="none" xmlns="http://www.w3.org/2000/svg">
<path d="M221.55 81.202C212.962 81.202 204.766 78.5496 198.494 73.7431C188.088 65.768 182.814 51.1885 185.362 37.4278C188.534 20.356 203.804 7.96605 221.693 7.96605C233.186 7.96605 243.217 12.6301 247.244 19.8575C251.271 27.0672 249.4 33.2088 247.119 37.0896C242.647 44.6909 232.669 50.1916 223.386 50.1916C222.673 50.1916 221.978 50.1738 221.265 50.1382C220.072 50.067 219.715 51.7403 220.856 52.1497C222.067 52.5948 223.386 52.8084 224.829 52.8084C227.894 52.8084 231.226 51.8293 234.059 50.8502C236.856 49.9067 239.493 48.9989 241.934 48.9989C245.177 48.9989 247.458 50.245 248.741 52.7194C251.342 57.7217 248.865 66.5335 245.961 70.6635C241.364 77.1611 232.027 81.202 221.55 81.202ZM220.089 31.9983C219.501 32.4967 219.644 33.4758 220.374 33.7428C220.98 33.9743 221.764 34.1701 222.655 34.1701C223.546 34.1701 225.595 33.4936 226.058 32.5501C226.148 32.3543 226.237 32.0517 225.862 31.6066C225.399 31.037 224.348 30.5563 223.493 30.5563C222.192 30.5563 220.945 31.2862 220.107 31.9983H220.089Z" fill="black"/>
<path d="M221.675 8.4823C232.99 8.4823 242.843 13.0395 246.781 20.1068C255.387 35.5052 237.943 49.6753 223.386 49.6753C220.838 49.6753 218.254 49.4083 215.671 48.8742C218.254 52.1853 221.426 53.3069 224.811 53.3069C227.858 53.3069 231.083 52.399 234.201 51.3309C236.945 50.3874 239.547 49.5151 241.916 49.5151C252.928 49.5151 249.4 64.8601 245.516 70.3608C241.025 76.7338 231.831 80.6858 221.533 80.6858C213.051 80.6858 204.98 78.0689 198.779 73.3337C188.516 65.4832 183.313 51.0816 185.843 37.5168C189.033 20.3026 204.41 8.4823 221.657 8.4823M222.602 34.6863C224.009 34.6863 227.805 33.2978 226.219 31.2862C225.631 30.5385 224.384 30.0401 223.439 30.0401C220.98 30.0401 218.575 32.3365 218.504 33.2266C218.682 33.547 220.374 34.6863 222.602 34.6863ZM221.657 7.4498C203.537 7.4498 188.035 20.0178 184.828 37.3388C182.244 51.2775 187.589 66.0706 198.156 74.1526C204.534 79.0302 212.837 81.7183 221.533 81.7183C232.152 81.7183 241.667 77.5883 246.353 70.9483C249.346 66.7115 251.859 57.6505 249.168 52.4702C248.224 50.6544 246.193 48.4826 241.899 48.4826C239.351 48.4826 236.678 49.3905 233.845 50.3518C231.047 51.2953 227.787 52.2744 224.776 52.2744C222.406 52.2744 220.392 51.6691 218.682 50.423C220.25 50.6188 221.8 50.7078 223.35 50.7078C232.811 50.7078 242.968 45.0825 247.529 37.3388C249.881 33.3512 251.805 27.0316 247.654 19.5905C243.538 12.2028 233.328 7.432 221.64 7.432L221.657 7.4498ZM219.822 32.9418C220.446 32.2119 221.942 31.0904 223.457 31.0904C224.152 31.0904 225.061 31.482 225.417 31.9449C225.613 32.1941 225.577 32.2831 225.542 32.3543C225.221 33.013 223.439 33.6716 222.62 33.6716C221.408 33.6716 220.392 33.28 219.822 32.9596V32.9418Z" fill="black"/>
<path d="M269.677 82.4304C265.65 82.4304 257.899 81.8785 251.306 78.1758C245.159 74.7222 241.899 69.3817 241.863 62.7595C241.845 57.063 244.34 50.4052 249.863 49.2481C250.416 49.1413 250.986 49.0701 251.556 49.0701C255.298 49.0701 258.915 51.5089 261.837 53.4671L262.728 54.0545C263.102 54.3037 263.494 54.5708 263.886 54.8378C265.579 56.0127 267.503 57.33 269.392 57.7929C269.623 57.8463 269.855 57.8819 270.104 57.8819C271.013 57.8819 272.082 57.4724 272.082 56.2975C272.082 55.0692 266.951 52.933 264.207 51.7759C257.365 48.9276 248.883 45.3851 245.569 37.2498C242.789 30.4139 244.839 23.1153 247.458 18.9319C251.823 11.9358 261.195 7.77023 272.492 7.77023C283.789 7.77023 293.09 11.8112 296.493 18.0774C298.827 22.3498 298.845 28.4914 296.564 32.6569C294.818 35.8256 292.27 37.4456 288.974 37.4456C285.677 37.4456 282.221 35.8612 279.869 34.6863C278.8 34.1345 275.503 32.4967 273.365 32.4967C272.724 32.4967 272.26 32.6569 271.993 32.9596C271.69 33.2978 271.583 33.8853 271.69 34.7041C271.833 35.8612 276.145 37.1608 279.013 38.0152C285.161 39.8666 292.769 42.163 296.885 48.9632C301.001 55.7635 300.324 64.9847 295.174 72.4436C290.542 79.1548 281.027 81.3445 275.753 82.0565C273.757 82.3235 271.726 82.466 269.712 82.466L269.677 82.4304Z" fill="black"/>
<path d="M272.474 8.30428C283.468 8.30428 292.715 12.2384 296.012 18.3444C298.203 22.3676 298.346 28.2777 296.083 32.4255C294.248 35.7544 291.718 36.9471 288.938 36.9471C286.158 36.9471 282.951 35.701 280.065 34.2413C278.889 33.6538 275.592 31.9805 273.329 31.9805C271.886 31.9805 270.871 32.6569 271.138 34.7575C271.316 36.2351 275.307 37.4456 278.835 38.4959C284.875 40.3116 292.395 42.5903 296.404 49.2125C300.733 56.3687 299.326 65.4654 294.711 72.141C290.648 78.0511 282.417 80.6146 275.646 81.5225C273.668 81.7895 271.672 81.9319 269.677 81.9319C257.703 81.9319 242.433 77.1432 242.38 62.7773C242.362 57.8463 244.375 50.9392 249.952 49.7643C250.487 49.6575 251.021 49.6041 251.538 49.6041C255.494 49.6041 259.325 52.4524 262.407 54.5174C264.456 55.8703 266.808 57.7395 269.249 58.3447C269.516 58.4159 269.801 58.4515 270.087 58.4515C271.334 58.4515 272.581 57.8107 272.581 56.3509C272.581 54.7844 268.037 52.8796 264.367 51.3487C257.632 48.536 249.24 45.0469 246.015 37.1073C243.306 30.4495 245.32 23.3289 247.868 19.2523C252.144 12.4165 261.338 8.33988 272.456 8.33988M272.456 7.30739C260.982 7.30739 251.449 11.5798 246.977 18.7182C244.304 23.0084 242.184 30.5029 245.052 37.5168C248.456 45.8658 257.062 49.4439 263.975 52.3278C266.167 53.2356 271.263 55.3718 271.548 56.4043C271.548 57.3656 270.425 57.4368 270.087 57.4368C269.891 57.4368 269.695 57.419 269.499 57.3656C267.699 56.9206 265.81 55.6211 264.153 54.4818C263.761 54.2147 263.369 53.9299 262.977 53.6807C262.692 53.4849 262.389 53.289 262.086 53.0932C259.111 51.0994 255.422 48.6072 251.52 48.6072C250.914 48.6072 250.309 48.6606 249.721 48.7852C243.912 49.9957 241.293 56.9028 241.311 62.8129C241.328 69.631 244.696 75.1139 251.021 78.6742C257.703 82.4304 265.561 83 269.641 83C271.672 83 273.721 82.8576 275.753 82.5906C281.098 81.8785 290.791 79.6355 295.531 72.7641C300.787 65.1271 301.464 55.6923 297.259 48.714C293.054 41.7536 285.321 39.4216 279.102 37.5524C276.929 36.8937 272.456 35.5408 272.136 34.6507C272.064 34.0277 272.136 33.5648 272.314 33.3334C272.528 33.102 272.973 33.0486 273.312 33.0486C275.325 33.0486 278.532 34.6685 279.584 35.1848C281.989 36.3953 285.57 37.9974 288.92 37.9974C292.27 37.9974 295.139 36.3063 296.974 32.9418C299.344 28.6338 299.308 22.2964 296.903 17.8816C293.41 11.4552 283.806 7.30739 272.439 7.30739H272.456Z" fill="black"/>
<path d="M100.478 81.8073C97.7336 81.8073 94.9184 81.202 92.5664 80.0805C80.7709 74.5264 80.1651 56.707 80.8422 46.5778C81.3946 38.3001 82.3389 24.4504 93.9028 15.2291C100.103 10.2803 108.264 7.55661 116.888 7.55661C123.249 7.55661 129.646 9.10535 134.973 11.9358C140.301 9.06975 146.519 7.55661 152.951 7.55661C162.537 7.55661 171.642 10.9389 177.914 16.8313C184.774 23.2755 186.467 31.215 187.696 37.0183C190.547 50.5476 189.674 74.1348 175.099 79.8847C172.783 80.7926 170.27 81.2732 167.847 81.2732C164.284 81.2732 161.112 80.2586 158.653 78.336C151.045 72.3724 152.559 60.0181 153.914 49.1057C154.644 43.1243 155.767 34.1167 153.397 32.835C153.076 32.6569 152.666 32.5679 152.221 32.5679C151.722 32.5679 151.223 32.6747 150.795 32.8884C147.891 34.3125 148.479 43.1955 148.942 50.334C149.655 61.2642 150.457 73.6363 142.581 78.9946C140.176 80.6324 137.165 81.5225 134.082 81.5225C131.392 81.5225 128.897 80.8282 126.848 79.5109C119.436 74.7222 120.398 63.1512 121.307 51.9539C121.913 44.495 122.679 35.2204 119.65 33.6538C119.097 33.369 118.598 33.2266 118.171 33.2266C117.672 33.2266 117.262 33.4224 116.888 33.814C114.643 36.2351 115.302 44.9579 115.516 47.8239C115.552 48.2156 115.569 48.536 115.587 48.7674L115.658 49.9245C116.3 61.1752 117.013 73.9034 108.799 79.4575C106.589 80.9528 103.756 81.7539 100.602 81.7717H100.478V81.8073Z" fill="black"/>
<path d="M116.906 8.07286C123.32 8.07286 129.681 9.6394 134.991 12.5233C140.318 9.6216 146.483 8.07286 152.969 8.07286C162.431 8.07286 171.411 11.4018 177.576 17.2051C184.329 23.5425 185.986 31.393 187.215 37.1251C190.048 50.4942 189.211 73.7787 174.939 79.4041C172.747 80.2764 170.306 80.757 167.865 80.757C164.676 80.757 161.522 79.9025 158.992 77.9443C151.615 72.1766 153.112 59.9647 154.448 49.1947C155.286 42.3588 156.337 33.8496 153.664 32.4077C153.236 32.1763 152.738 32.0695 152.239 32.0695C151.669 32.0695 151.081 32.2119 150.582 32.4433C147.374 34.0099 147.945 42.7149 148.443 50.3874C149.138 61.1752 149.94 73.4049 142.314 78.5852C139.98 80.1695 137.04 81.024 134.118 81.024C131.659 81.024 129.2 80.401 127.169 79.1014C120.024 74.473 120.968 63.0622 121.877 52.0251C122.536 44.0144 123.285 34.9534 119.935 33.2266C119.293 32.9062 118.723 32.7459 118.224 32.7459C113.485 32.7459 114.981 46.3642 115.106 48.8208C115.124 49.2125 115.142 49.5863 115.177 49.9779C115.801 61.0862 116.514 73.6719 108.549 79.0658C106.304 80.579 103.489 81.2732 100.638 81.291C100.602 81.291 100.567 81.291 100.531 81.291C97.8227 81.291 95.0966 80.6858 92.8337 79.6177C81.3233 74.1882 80.7353 56.618 81.4124 46.6312C81.9647 38.4069 82.8913 24.7352 94.2948 15.6386C100.406 10.7609 108.46 8.09066 116.959 8.09066M116.959 7.05816C108.228 7.05816 99.943 9.81742 93.6533 14.8375C81.8935 24.219 80.9491 38.211 80.3968 46.56C79.7019 56.8138 80.3433 74.8646 92.4239 80.5612C94.8471 81.7005 97.7336 82.3235 100.567 82.3235H100.691C103.952 82.3057 106.892 81.4691 109.173 79.9203C117.636 74.206 116.906 61.2998 116.264 49.9245C116.246 49.5329 116.229 49.1591 116.193 48.7674C116.193 48.536 116.157 48.2156 116.122 47.8061C115.908 44.9935 115.266 36.4309 117.369 34.1879C117.636 33.9031 117.921 33.7606 118.278 33.7606C118.616 33.7606 119.044 33.8853 119.507 34.1345C122.233 35.523 121.467 44.9935 120.897 51.9005C119.97 63.258 118.99 74.9715 126.67 79.9381C128.79 81.3089 131.392 82.0387 134.171 82.0387C137.343 82.0387 140.461 81.113 142.956 79.4219C151.081 73.9034 150.261 61.371 149.548 50.2984C149.121 43.6762 148.515 34.6151 151.116 33.3512C151.473 33.1732 151.9 33.0842 152.31 33.0842C152.666 33.0842 152.987 33.1554 153.237 33.2978C155.303 34.4015 154.163 43.5693 153.486 49.0523C152.132 60.1071 150.582 72.6216 158.422 78.7454C160.969 80.7392 164.248 81.7895 167.936 81.7895C170.431 81.7895 173.014 81.291 175.384 80.3654C190.244 74.5086 191.189 50.601 188.284 36.9115C187.037 31.0548 185.327 23.0084 178.342 16.4574C171.981 10.4761 162.751 7.04036 153.023 7.04036C146.608 7.04036 140.408 8.5357 135.044 11.3484C129.699 8.5713 123.302 7.04036 116.977 7.04036L116.959 7.05816Z" fill="black"/>
<path d="M69.8307 81.6471C59.4072 81.6471 53.5808 75.3275 52.5117 62.8307C51.8881 55.5321 51.799 38.0864 64.6101 33.7072C66.2137 33.1554 67.942 32.8884 69.706 32.8884C73.4834 32.8884 76.3699 34.1167 76.9223 34.3659C87.7912 39.3148 87.2745 51.9539 86.9538 59.5018V59.7154C86.5796 69.1325 84.388 81.6293 69.8307 81.6293V81.6471Z" fill="black"/>
<path d="M74.3743 25.8745C69.902 27.6725 65.2872 27.4054 62.0443 25.1446C58.8014 22.8838 56.9484 18.5758 57.5542 14.6595C58.1778 10.5295 61.5454 6.77334 66.3206 4.83296C70.8107 3.01719 75.4077 3.28421 78.5793 5.54502C81.8935 7.89484 83.6575 12.4165 82.8556 16.5464C82.0895 20.5518 78.9179 24.0409 74.3743 25.8745Z" fill="black"/>
<path d="M78.8823 5.11778C75.5503 2.75016 70.7929 2.46534 66.1246 4.35231C61.1712 6.3461 57.6967 10.2803 57.0375 14.5883C56.4138 18.6826 58.356 23.2043 61.7414 25.5719C65.1268 27.9395 69.9198 28.2243 74.5525 26.3552C79.2564 24.4504 82.5527 20.8188 83.3545 16.6533C84.192 12.3275 82.3389 7.59221 78.8644 5.11778H78.8823ZM82.3568 16.4574C81.6262 20.2848 78.5615 23.6315 74.1783 25.3939C69.8664 27.1384 65.4475 26.8892 62.3472 24.7174C59.2647 22.5634 57.5007 18.4512 58.0709 14.7307C58.6767 10.7787 61.9196 7.16497 66.5166 5.3136C70.8464 3.56904 75.2474 3.80046 78.2943 5.95446C81.448 8.19747 83.1229 12.5055 82.3568 16.4396V16.4574Z" fill="black"/>
<path d="M77.1539 33.9387C76.6016 33.6894 73.6081 32.4077 69.7238 32.4077C67.8886 32.4077 66.1068 32.6925 64.4497 33.2622C51.3001 37.7482 51.3714 55.4608 52.0128 62.8663C53.0997 75.6479 59.1043 82.1099 69.8486 82.1099C84.8513 82.1099 87.0963 69.3283 87.4883 59.7332V59.5196C87.809 51.8649 88.3436 39.0299 77.1717 33.9387H77.1539ZM86.437 59.6976C86.0272 69.987 83.4258 81.1486 69.8307 81.1486C57.8393 81.1486 53.848 72.497 53.0284 62.7773C52.4048 55.5143 52.2979 38.4069 64.7883 34.1523C66.3384 33.6182 67.9955 33.3512 69.706 33.3512C73.3587 33.3512 76.1561 34.5439 76.6906 34.7753C87.2567 39.5818 86.74 52.0251 86.437 59.4662V59.6976Z" fill="black"/>
<path d="M35.9588 81.4513C29.0455 81.3801 21.7223 79.3151 16.3769 75.9505C-1.70829 64.5397 -0.140311 39.2257 1.37421 28.8652C3.38764 15.1045 11.1741 8.85613 21.9361 8.85613C28.3506 8.85613 33.8029 10.4049 37.8475 14.5705C44.6362 21.5665 46.5961 36.0749 37.509 50.5832C38.5068 50.4942 39.5046 50.4408 40.5024 50.4408C48.0216 50.4408 54.0975 53.3069 56.7524 58.0955C59.1934 62.4925 59.2469 66.9073 56.9127 70.8771C53.0106 77.4993 43.3176 81.4513 36.2083 81.4513H35.9588Z" fill="black"/>
<path d="M21.9361 9.37238C28.208 9.37238 33.5356 10.8677 37.4734 14.9443C44.654 22.3498 45.634 37.3388 36.4934 51.2241C37.8475 51.046 39.1839 50.957 40.5024 50.957C47.8256 50.957 53.7411 53.7163 56.3069 58.3447C63.6123 71.5001 47.1841 80.935 36.2083 80.935C36.137 80.935 36.0657 80.935 35.9945 80.935C28.9564 80.8638 21.7401 78.692 16.6976 75.5055C-1.17375 64.2549 0.376409 39.1901 1.89093 28.9364C3.47673 18.0418 9.48138 9.37238 21.9361 9.37238ZM21.9361 8.33988C10.8712 8.33988 2.90656 14.7307 0.857494 28.794C-0.674849 39.2435 -2.24283 64.8067 16.1097 76.3778C21.5263 79.7957 28.9386 81.8785 35.9588 81.9675H36.1905C43.4424 81.9675 53.3491 77.9087 57.3404 71.1441C59.7814 67.0141 59.728 62.4035 57.1978 57.8463C54.4538 52.8974 48.1998 49.9245 40.4846 49.9245C39.8253 49.9245 39.1482 49.9423 38.4712 49.9957C47.0772 35.5586 44.9925 21.2283 38.2039 14.2322C34.0701 9.95983 28.4753 8.35768 21.9183 8.35768L21.9361 8.33988Z" fill="black"/>
<path d="M221.55 78.1045C212.962 78.1045 204.766 75.4521 198.494 70.6457C188.088 62.6705 182.814 48.091 185.362 34.3303C188.534 17.2585 203.804 4.86856 221.693 4.86856C233.186 4.86856 243.217 9.53259 247.244 16.7601C251.271 23.9697 249.4 30.1113 247.119 33.9921C242.647 41.5934 232.669 47.0941 223.386 47.0941C221.301 47.0941 219.163 46.9161 217.043 46.56C219.109 48.6606 221.675 49.6931 224.811 49.6931C227.947 49.6931 231.208 48.714 234.041 47.7349C236.838 46.7914 239.475 45.8836 241.916 45.8836C245.159 45.8836 247.44 47.1297 248.723 49.6041C251.324 54.6064 248.848 63.4182 245.943 67.5482C241.346 74.0458 232.01 78.0868 221.533 78.0868L221.55 78.1045ZM222.049 27.7259C220.285 28.3667 220.713 31.0548 222.584 31.0726C222.584 31.0726 222.62 31.0726 222.637 31.0726C223.528 31.0726 225.577 30.3961 226.041 29.4526C226.13 29.2568 226.219 28.9542 225.845 28.5092C225.381 27.9395 224.33 27.4589 223.475 27.4589C222.994 27.4589 222.495 27.5657 222.049 27.7259Z" fill="white"/>
<path d="M221.675 5.38481C232.99 5.38481 242.843 9.94203 246.781 17.0093C255.387 32.4077 237.943 46.5778 223.386 46.5778C221.016 46.5778 218.646 46.3464 216.259 45.8836C216.063 45.848 215.92 46.0794 216.063 46.2218C218.575 49.1769 221.604 50.2094 224.829 50.2094C227.876 50.2094 231.101 49.3015 234.219 48.2334C236.963 47.2899 239.564 46.4176 241.934 46.4176C252.946 46.4176 249.418 61.7626 245.533 67.2633C241.043 73.6363 231.849 77.5883 221.55 77.5883C213.069 77.5883 204.998 74.9715 198.797 70.2362C188.534 62.3857 183.331 47.9842 185.861 34.4193C189.051 17.2051 204.427 5.38481 221.675 5.38481ZM222.62 31.5888C224.027 31.5888 227.822 30.2003 226.237 28.1887C225.649 27.4411 224.401 26.9426 223.457 26.9426C222.513 26.9426 221.515 27.2986 220.695 27.7971C219.127 28.7406 219.537 31.1082 221.337 31.4642C221.746 31.5354 222.174 31.5888 222.637 31.5888M221.693 4.35231C203.572 4.35231 188.071 16.9203 184.863 34.2413C182.28 48.18 187.625 62.9731 198.191 71.0551C204.57 75.9327 212.873 78.6208 221.568 78.6208C232.188 78.6208 241.703 74.4908 246.389 67.8508C249.382 63.614 251.894 54.553 249.204 49.3727C248.26 47.5569 246.228 45.3851 241.934 45.3851C239.386 45.3851 236.714 46.293 233.88 47.2543C231.083 48.1978 227.822 49.1769 224.811 49.1769C222.441 49.1769 220.428 48.5716 218.717 47.3255C220.285 47.5213 221.836 47.6103 223.386 47.6103C232.847 47.6103 243.003 41.985 247.565 34.2413C249.917 30.2537 251.841 23.9341 247.689 16.493C243.573 9.10535 233.364 4.33451 221.675 4.33451L221.693 4.35231Z" fill="black"/>
<path d="M269.677 79.3329C265.65 79.3329 257.899 78.781 251.306 75.0783C245.159 71.6247 241.899 66.2843 241.863 59.662C241.845 53.9655 244.34 47.3077 249.863 46.1506C250.416 46.0438 250.986 45.9726 251.556 45.9726C255.298 45.9726 258.915 48.4114 261.837 50.3696L262.728 50.957C263.102 51.2063 263.494 51.4733 263.886 51.7403C265.579 52.9152 267.503 54.2325 269.392 54.6954C269.623 54.7488 269.855 54.7844 270.104 54.7844C271.013 54.7844 272.082 54.3749 272.082 53.2C272.082 51.9717 266.951 49.8355 264.207 48.6784C257.365 45.8302 248.883 42.2876 245.569 34.1523C242.789 27.3164 244.839 20.0178 247.458 15.8344C251.823 8.83833 261.195 4.67274 272.492 4.67274C283.789 4.67274 293.09 8.71372 296.493 14.9799C298.827 19.2523 298.845 25.3939 296.564 29.5595C294.818 32.7281 292.27 34.3481 288.974 34.3481C285.677 34.3481 282.221 32.7637 279.869 31.5888C278.8 31.037 275.503 29.3992 273.365 29.3992C272.724 29.3992 272.26 29.5595 271.993 29.8621C271.69 30.2003 271.583 30.7878 271.69 31.6066C271.833 32.7637 276.145 34.0633 279.013 34.9177C285.161 36.7691 292.769 39.0655 296.885 45.8658C301.001 52.666 300.324 61.8872 295.174 69.3461C290.542 76.0574 281.027 78.247 275.753 78.959C273.757 79.2261 271.726 79.3685 269.712 79.3685L269.677 79.3329Z" fill="white"/>
<path d="M272.474 5.18899C283.468 5.18899 292.715 9.12316 296.012 15.2291C298.203 19.2523 298.346 25.1624 296.083 29.3102C294.248 32.6391 291.718 33.8318 288.938 33.8318C286.158 33.8318 282.951 32.5857 280.065 31.126C278.889 30.5385 275.592 28.8652 273.329 28.8652C271.886 28.8652 270.871 29.5416 271.138 31.6422C271.316 33.1198 275.307 34.3303 278.835 35.3806C284.875 37.1964 292.395 39.475 296.404 46.0972C300.733 53.2534 299.326 62.3501 294.711 69.0257C290.648 74.9359 282.417 77.4993 275.646 78.4072C273.668 78.6742 271.672 78.8166 269.677 78.8166C257.703 78.8166 242.433 74.028 242.38 59.662C242.362 54.731 244.375 47.8239 249.952 46.649C250.487 46.5422 251.021 46.4888 251.538 46.4888C255.494 46.4888 259.325 49.3371 262.407 51.4021C264.456 52.755 266.808 54.6242 269.249 55.2294C269.516 55.3006 269.801 55.3362 270.087 55.3362C271.334 55.3362 272.581 54.6954 272.581 53.2356C272.581 51.6691 268.037 49.7643 264.367 48.2334C257.632 45.4207 249.24 41.9316 246.015 33.9921C243.306 27.3342 245.32 20.2136 247.868 16.137C252.144 9.30117 261.338 5.22459 272.456 5.22459M272.456 4.1921C260.982 4.1921 251.449 8.46449 246.977 15.603C244.304 19.8932 242.184 27.3876 245.052 34.4015C248.456 42.7505 257.062 46.3286 263.975 49.2125C266.167 50.1203 271.263 52.2565 271.548 53.289C271.548 54.2503 270.425 54.3215 270.087 54.3215C269.891 54.3215 269.695 54.3037 269.499 54.2503C267.699 53.8053 265.81 52.5058 264.153 51.3665C263.761 51.0994 263.369 50.8146 262.977 50.5654C262.692 50.3696 262.389 50.1738 262.086 49.9779C259.111 47.9842 255.422 45.4919 251.52 45.4919C250.914 45.4919 250.309 45.5453 249.721 45.6699C243.912 46.8805 241.293 53.7875 241.311 59.6976C241.328 66.5157 244.696 71.9986 251.021 75.5589C257.703 79.3151 265.561 79.8847 269.641 79.8847C271.672 79.8847 273.721 79.7423 275.753 79.4753C281.098 78.7632 290.791 76.5202 295.531 69.6488C300.787 62.0119 301.464 52.577 297.259 45.5987C293.054 38.6383 285.321 36.3063 279.102 34.4371C276.929 33.7784 272.456 32.4255 272.136 31.5354C272.064 30.9124 272.136 30.4495 272.314 30.2181C272.528 29.9867 272.973 29.9333 273.312 29.9333C275.325 29.9333 278.532 31.5532 279.584 32.0695C281.989 33.28 285.57 34.8821 288.92 34.8821C292.27 34.8821 295.139 33.191 296.974 29.8265C299.344 25.5185 299.308 19.1811 296.903 14.7663C293.41 8.33988 283.806 4.1921 272.439 4.1921H272.456Z" fill="black"/>
<path d="M100.478 78.692C97.7336 78.692 94.9184 78.0867 92.5664 76.9652C80.7709 71.4111 80.1651 53.5917 80.8422 43.4625C81.3946 35.1848 82.3389 21.3351 93.9028 12.1138C100.103 7.16497 108.264 4.44132 116.888 4.44132C123.249 4.44132 129.646 5.99006 134.973 8.82053C140.301 5.95446 146.519 4.44132 152.951 4.44132C162.537 4.44132 171.642 7.82363 177.914 13.716C184.774 20.1602 186.467 28.0997 187.696 33.9031C190.547 47.4323 189.674 71.0195 175.099 76.7694C172.783 77.6773 170.27 78.158 167.847 78.158C164.284 78.158 161.112 77.1432 158.653 75.2207C151.045 69.2571 152.559 56.9028 153.914 45.9904C154.644 40.009 155.767 31.0014 153.397 29.7197C153.076 29.5416 152.666 29.4526 152.221 29.4526C151.722 29.4526 151.223 29.5594 150.795 29.7731C147.891 31.1972 148.479 40.0802 148.942 47.2187C149.655 58.1489 150.457 70.521 142.581 75.8793C140.176 77.5171 137.165 78.4072 134.082 78.4072C131.392 78.4072 128.897 77.7129 126.848 76.3956C119.436 71.6069 120.398 60.0359 121.307 48.8386C121.913 41.3797 122.679 32.1051 119.65 30.5385C119.097 30.2537 118.598 30.1113 118.171 30.1113C117.672 30.1113 117.262 30.3071 116.888 30.6988C114.643 33.1198 115.302 41.8426 115.516 44.7087C115.552 45.1003 115.569 45.4207 115.587 45.6521L115.658 46.8092C116.3 58.0599 117.013 70.7881 108.799 76.3422C106.589 77.8375 103.756 78.6386 100.602 78.6564H100.478V78.692Z" fill="white"/>
<path d="M116.906 4.97537C123.32 4.97537 129.681 6.54191 134.991 9.42578C140.318 6.52411 146.483 4.97537 152.969 4.97537C162.431 4.97537 171.411 8.30428 177.576 14.1076C184.329 20.445 185.986 28.2955 187.215 34.0277C190.048 47.3967 189.211 70.6813 174.939 76.3066C172.747 77.1789 170.306 77.6595 167.865 77.6595C164.676 77.6595 161.522 76.805 158.992 74.8469C151.615 69.0791 153.112 56.8672 154.448 46.0972C155.286 39.2613 156.337 30.7522 153.664 29.3102C153.236 29.0788 152.738 28.972 152.239 28.972C151.669 28.972 151.081 29.1144 150.582 29.3458C147.374 30.9124 147.945 39.6174 148.443 47.2899C149.138 58.0777 149.94 70.3074 142.314 75.4877C139.98 77.0721 137.04 77.9265 134.118 77.9265C131.659 77.9265 129.2 77.3035 127.169 76.004C120.024 71.3755 120.968 59.9647 121.877 48.9276C122.536 40.9169 123.285 31.8559 119.935 30.1291C119.293 29.8087 118.723 29.6485 118.224 29.6485C113.485 29.6485 114.981 43.2667 115.106 45.7234C115.124 46.115 115.142 46.4888 115.177 46.8805C115.801 57.9887 116.514 70.5744 108.549 75.9684C106.304 77.4815 103.489 78.1758 100.638 78.1936C100.602 78.1936 100.567 78.1936 100.531 78.1936C97.8227 78.1936 95.0966 77.5883 92.8337 76.5202C81.3233 71.0907 80.7353 53.5205 81.4124 43.5337C81.9647 35.3094 82.8913 21.6377 94.2948 12.5411C100.406 7.66342 108.46 4.99317 116.959 4.99317M116.959 3.96068C108.228 3.96068 99.943 6.71993 93.6533 11.74C81.8935 21.1215 80.9491 35.1136 80.3968 43.4625C79.7019 53.7163 80.3433 71.7672 92.4239 77.4637C94.8471 78.603 97.7336 79.2261 100.567 79.2261H100.691C103.952 79.2083 106.892 78.3716 109.173 76.8228C117.636 71.1085 116.906 58.2023 116.264 46.827C116.246 46.4354 116.229 46.0616 116.193 45.6699C116.193 45.4385 116.157 45.1181 116.122 44.7087C115.908 41.896 115.266 33.3334 117.369 31.0904C117.636 30.8056 117.921 30.6632 118.278 30.6632C118.616 30.6632 119.044 30.7878 119.507 31.037C122.233 32.4255 121.467 41.896 120.897 48.803C119.97 60.1605 118.99 71.874 126.67 76.8406C128.79 78.2114 131.392 78.9412 134.171 78.9412C137.343 78.9412 140.461 78.0155 142.956 76.3244C151.081 70.8059 150.261 58.2735 149.548 47.2009C149.121 40.5787 148.515 31.5176 151.116 30.2537C151.473 30.0757 151.9 29.9867 152.31 29.9867C152.666 29.9867 152.987 30.0579 153.237 30.2003C155.303 31.304 154.163 40.4719 153.486 45.9548C152.132 57.0096 150.582 69.5242 158.422 75.6479C160.969 77.6417 164.248 78.692 167.936 78.692C170.431 78.692 173.014 78.1936 175.384 77.2679C190.244 71.4111 191.189 47.5035 188.284 33.814C187.037 27.9573 185.327 19.911 178.342 13.3599C171.981 7.37859 162.751 3.94287 153.023 3.94287C146.608 3.94287 140.408 5.43821 135.044 8.25087C129.699 5.47382 123.302 3.94287 116.977 3.94287L116.959 3.96068Z" fill="black"/>
<path d="M69.8307 78.5496C59.4072 78.5496 53.5808 72.23 52.5117 59.7332C51.8881 52.4346 51.799 34.989 64.6101 30.6097C66.2137 30.0579 67.942 29.7909 69.706 29.7909C73.4834 29.7909 76.3699 31.0192 76.9223 31.2684C87.7912 36.2173 87.2745 48.8564 86.9538 56.4043V56.618C86.5796 66.035 84.388 78.5318 69.8307 78.5318V78.5496Z" fill="white"/>
<path d="M74.3743 22.7592C69.902 24.5572 65.2872 24.2902 62.0443 22.0294C58.8014 19.7685 56.9484 15.4605 57.5542 11.5442C58.1778 7.4142 61.5454 3.65805 66.3206 1.71767C70.8107 -0.0981001 75.4077 0.168925 78.5793 2.42973C81.8935 4.77955 83.6575 9.30117 82.8556 13.4312C82.0895 17.4365 78.9179 20.9256 74.3743 22.7592Z" fill="white"/>
<path d="M78.8823 2.00249C75.5503 -0.365125 70.7929 -0.649951 66.1246 1.23702C61.1712 3.23081 57.6967 7.16497 57.0375 11.473C56.4138 15.5674 58.356 20.089 61.7414 22.4566C65.1268 24.8242 69.9198 25.109 74.5525 23.2399C79.2564 21.3351 82.5527 17.7035 83.3545 13.538C84.192 9.21216 82.3389 4.47692 78.8644 2.00249H78.8823ZM82.3568 13.3421C81.6262 17.1695 78.5615 20.5162 74.1783 22.2786C69.8664 24.0231 65.4475 23.7739 62.3472 21.6021C59.2647 19.4481 57.5007 15.3359 58.0709 11.6154C58.6767 7.66342 61.9196 4.04968 66.5166 2.19831C70.8464 0.453751 75.2474 0.685173 78.2943 2.83917C81.448 5.08218 83.1229 9.39018 82.3568 13.3243V13.3421Z" fill="black"/>
<path d="M77.1539 30.8412C76.6016 30.5919 73.6081 29.3102 69.7238 29.3102C67.8886 29.3102 66.1068 29.5951 64.4497 30.1647C51.3001 34.6507 51.3714 52.3634 52.0128 59.7688C53.0997 72.5504 59.1043 79.0124 69.8486 79.0124C84.8513 79.0124 87.0963 66.2308 87.4883 56.6358V56.4221C87.809 48.7674 88.3436 35.9324 77.1717 30.8412H77.1539ZM86.437 56.6002C86.0272 66.8895 83.4258 78.0511 69.8307 78.0511C57.8393 78.0511 53.848 69.3995 53.0284 59.6798C52.4048 52.4168 52.2979 35.3094 64.7883 31.0548C66.3384 30.5207 67.9955 30.2537 69.706 30.2537C73.3587 30.2537 76.1561 31.4464 76.6906 31.6778C87.2567 36.4843 86.74 48.9276 86.437 56.3687V56.6002Z" fill="black"/>
<path d="M35.9588 78.3538C29.0455 78.2826 21.7223 76.2176 16.3769 72.8531C-1.70829 61.4244 -0.140311 36.1283 1.37421 25.7677C3.38764 11.9892 11.1741 5.75864 21.9361 5.75864C28.3506 5.75864 33.8029 7.30739 37.8475 11.473C44.6362 18.469 46.5961 32.9774 37.509 47.4857C38.5068 47.3967 39.5046 47.3433 40.5024 47.3433C48.0216 47.3433 54.0975 50.2094 56.7524 54.998C59.1934 59.395 59.2469 63.8098 56.9127 67.7796C53.0106 74.4018 43.3176 78.3538 36.2083 78.3538H35.9588Z" fill="white"/>
<path d="M21.9361 6.27489C28.208 6.27489 33.5356 7.77023 37.4734 11.8468C44.654 19.2523 45.634 34.2413 36.4934 48.1266C37.8475 47.9486 39.1839 47.8595 40.5024 47.8595C47.8256 47.8595 53.7411 50.6188 56.3069 55.2472C63.6123 68.4026 47.1841 77.8375 36.2083 77.8375C36.137 77.8375 36.0657 77.8375 35.9945 77.8375C28.9564 77.7663 21.7401 75.5945 16.6976 72.408C-1.17375 61.1574 0.376409 36.0927 1.89093 25.8389C3.47673 14.9443 9.48138 6.27489 21.9361 6.27489ZM21.9361 5.24239C10.8712 5.24239 2.90656 11.6332 0.857494 25.6965C-0.674849 36.1461 -2.24283 61.7092 16.1097 73.2803C21.5263 76.6982 28.9386 78.781 35.9588 78.87H36.1905C43.4424 78.87 53.3491 74.8112 57.3404 68.0466C59.7814 63.9166 59.728 59.306 57.1978 54.7488C54.4538 49.7999 48.1998 46.827 40.4846 46.827C39.8253 46.827 39.1482 46.8448 38.4712 46.8983C47.0772 32.4611 44.9925 18.1308 38.2039 11.1347C34.0701 6.86235 28.4753 5.2602 21.9183 5.2602L21.9361 5.24239Z" fill="black"/>
</svg>
