<svg width="169" height="47" viewBox="0 0 169 47" fill="none" xmlns="http://www.w3.org/2000/svg">
<path d="M124.341 45.6149C119.521 45.6149 114.921 44.1249 111.401 41.4249C105.561 36.9449 102.601 28.7549 104.031 21.0249C105.811 11.4349 114.381 4.47485 124.421 4.47485C130.871 4.47485 136.501 7.09485 138.761 11.1549C141.021 15.2049 139.971 18.6549 138.691 20.8349C136.181 25.1049 130.581 28.1949 125.371 28.1949C124.971 28.1949 124.581 28.1849 124.181 28.1649C123.511 28.1249 123.311 29.0649 123.951 29.2949C124.631 29.5449 125.371 29.6649 126.181 29.6649C127.901 29.6649 129.771 29.1149 131.361 28.5649C132.931 28.0349 134.411 27.5249 135.781 27.5249C137.601 27.5249 138.881 28.2249 139.601 29.6149C141.061 32.4249 139.671 37.3749 138.041 39.6949C135.461 43.3449 130.221 45.6149 124.341 45.6149V45.6149ZM123.521 17.9749C123.191 18.2549 123.271 18.8049 123.681 18.9549C124.021 19.0849 124.461 19.1949 124.961 19.1949C125.461 19.1949 126.611 18.8149 126.871 18.2849C126.921 18.1749 126.971 18.0049 126.761 17.7549C126.501 17.4349 125.911 17.1649 125.431 17.1649C124.701 17.1649 124.001 17.5749 123.531 17.9749H123.521Z" fill="white"/>
<path d="M124.411 4.7648C130.761 4.7648 136.291 7.3248 138.501 11.2948C143.331 19.9448 133.541 27.9048 125.371 27.9048C123.941 27.9048 122.491 27.7548 121.041 27.4548C122.491 29.3148 124.271 29.9448 126.171 29.9448C127.881 29.9448 129.691 29.4348 131.441 28.8348C132.981 28.3048 134.441 27.8148 135.771 27.8148C141.951 27.8148 139.971 36.4348 137.791 39.5248C135.271 43.1048 130.111 45.3248 124.331 45.3248C119.571 45.3248 115.041 43.8548 111.561 41.1948C105.801 36.7848 102.881 28.6948 104.301 21.0748C106.091 11.4048 114.721 4.7648 124.401 4.7648M124.931 19.4848C125.721 19.4848 127.851 18.7048 126.961 17.5748C126.631 17.1548 125.931 16.8748 125.401 16.8748C124.021 16.8748 122.671 18.1648 122.631 18.6648C122.731 18.8448 123.681 19.4848 124.931 19.4848ZM124.401 4.1848C114.231 4.1848 105.531 11.2448 103.731 20.9748C102.281 28.8048 105.281 37.1148 111.211 41.6548C114.791 44.3948 119.451 45.9048 124.331 45.9048C130.291 45.9048 135.631 43.5848 138.261 39.8548C139.941 37.4748 141.351 32.3848 139.841 29.4748C139.311 28.4548 138.171 27.2348 135.761 27.2348C134.331 27.2348 132.831 27.7448 131.241 28.2848C129.671 28.8148 127.841 29.3648 126.151 29.3648C124.821 29.3648 123.691 29.0248 122.731 28.3248C123.611 28.4348 124.481 28.4848 125.351 28.4848C130.661 28.4848 136.361 25.3248 138.921 20.9748C140.241 18.7348 141.321 15.1848 138.991 11.0048C136.681 6.8548 130.951 4.1748 124.391 4.1748L124.401 4.1848ZM123.371 18.5048C123.721 18.0948 124.561 17.4648 125.411 17.4648C125.801 17.4648 126.311 17.6848 126.511 17.9448C126.621 18.0848 126.601 18.1348 126.581 18.1748C126.401 18.5448 125.401 18.9148 124.941 18.9148C124.261 18.9148 123.691 18.6948 123.371 18.5148V18.5048Z" fill="white"/>
<path d="M151.351 46.305C149.091 46.305 144.741 45.995 141.041 43.915C137.591 41.975 135.761 38.975 135.741 35.255C135.731 32.055 137.131 28.315 140.231 27.665C140.541 27.605 140.861 27.565 141.181 27.565C143.281 27.565 145.311 28.935 146.951 30.035L147.451 30.365C147.661 30.505 147.881 30.655 148.101 30.805C149.051 31.465 150.131 32.205 151.191 32.465C151.321 32.495 151.451 32.515 151.591 32.515C152.101 32.515 152.701 32.285 152.701 31.625C152.701 30.935 149.821 29.735 148.281 29.085C144.441 27.485 139.681 25.495 137.821 20.925C136.261 17.085 137.411 12.985 138.881 10.635C141.331 6.70499 146.591 4.36499 152.931 4.36499C159.271 4.36499 164.491 6.63499 166.401 10.155C167.711 12.555 167.721 16.005 166.441 18.345C165.461 20.125 164.031 21.035 162.181 21.035C160.331 21.035 158.391 20.145 157.071 19.485C156.471 19.175 154.621 18.255 153.421 18.255C153.061 18.255 152.801 18.345 152.651 18.515C152.481 18.705 152.421 19.035 152.481 19.495C152.561 20.145 154.981 20.875 156.591 21.355C160.041 22.395 164.311 23.685 166.621 27.505C168.931 31.325 168.551 36.505 165.661 40.695C163.061 44.465 157.721 45.695 154.761 46.095C153.641 46.245 152.501 46.325 151.371 46.325L151.351 46.305Z" fill="white"/>
<path d="M152.921 4.66498C159.091 4.66498 164.281 6.87498 166.131 10.305C167.361 12.565 167.441 15.885 166.171 18.215C165.141 20.085 163.721 20.755 162.161 20.755C160.601 20.755 158.801 20.055 157.181 19.235C156.521 18.905 154.671 17.965 153.401 17.965C152.591 17.965 152.021 18.345 152.171 19.525C152.271 20.355 154.511 21.035 156.491 21.625C159.881 22.645 164.101 23.925 166.351 27.645C168.781 31.665 167.991 36.775 165.401 40.525C163.121 43.845 158.501 45.285 154.701 45.795C153.591 45.945 152.471 46.025 151.351 46.025C144.631 46.025 136.061 43.335 136.031 35.265C136.021 32.495 137.151 28.615 140.281 27.955C140.581 27.895 140.881 27.865 141.171 27.865C143.391 27.865 145.541 29.465 147.271 30.625C148.421 31.385 149.741 32.435 151.111 32.775C151.261 32.815 151.421 32.835 151.581 32.835C152.281 32.835 152.981 32.475 152.981 31.655C152.981 30.775 150.431 29.705 148.371 28.845C144.591 27.265 139.881 25.305 138.071 20.845C136.551 17.105 137.681 13.105 139.111 10.815C141.511 6.97498 146.671 4.68498 152.911 4.68498M152.911 4.10498C146.471 4.10498 141.121 6.50498 138.611 10.515C137.111 12.925 135.921 17.135 137.531 21.075C139.441 25.765 144.271 27.775 148.151 29.395C149.381 29.905 152.241 31.105 152.401 31.685C152.401 32.225 151.771 32.265 151.581 32.265C151.471 32.265 151.361 32.255 151.251 32.225C150.241 31.975 149.181 31.245 148.251 30.605C148.031 30.455 147.811 30.295 147.591 30.155C147.431 30.045 147.261 29.935 147.091 29.825C145.421 28.705 143.351 27.305 141.161 27.305C140.821 27.305 140.481 27.335 140.151 27.405C136.891 28.085 135.421 31.965 135.431 35.285C135.441 39.115 137.331 42.195 140.881 44.195C144.631 46.305 149.041 46.625 151.331 46.625C152.471 46.625 153.621 46.545 154.761 46.395C157.761 45.995 163.201 44.735 165.861 40.875C168.811 36.585 169.191 31.285 166.831 27.365C164.471 23.455 160.131 22.145 156.641 21.095C155.421 20.725 152.911 19.965 152.731 19.465C152.691 19.115 152.731 18.855 152.831 18.725C152.951 18.595 153.201 18.565 153.391 18.565C154.521 18.565 156.321 19.475 156.911 19.765C158.261 20.445 160.271 21.345 162.151 21.345C164.031 21.345 165.641 20.395 166.671 18.505C168.001 16.085 167.981 12.525 166.631 10.045C164.671 6.43498 159.281 4.10498 152.901 4.10498H152.911Z" fill="white"/>
<path d="M56.3913 45.9549C54.8513 45.9549 53.2713 45.6149 51.9513 44.9849C45.3313 41.8649 44.9913 31.8549 45.3713 26.1649C45.6813 21.5149 46.2113 13.7349 52.7013 8.55487C56.1813 5.77487 60.7613 4.24487 65.6013 4.24487C69.1713 4.24487 72.7613 5.11487 75.7513 6.70487C78.7413 5.09487 82.2313 4.24487 85.8413 4.24487C91.2213 4.24487 96.3313 6.14487 99.8513 9.45487C103.701 13.0749 104.651 17.5349 105.341 20.7949C106.941 28.3949 106.451 41.6449 98.2713 44.8749C96.9713 45.3849 95.5613 45.6549 94.2013 45.6549C92.2013 45.6549 90.4213 45.0849 89.0413 44.0049C84.7713 40.6549 85.6213 33.7149 86.3813 27.5849C86.7913 24.2249 87.4213 19.1649 86.0913 18.4449C85.9113 18.3449 85.6813 18.2949 85.4313 18.2949C85.1513 18.2949 84.8713 18.3549 84.6313 18.4749C83.0013 19.2749 83.3313 24.2649 83.5913 28.2749C83.9913 34.4149 84.4413 41.3649 80.0213 44.3749C78.6713 45.2949 76.9813 45.7949 75.2513 45.7949C73.7413 45.7949 72.3413 45.4049 71.1913 44.6649C67.0313 41.9749 67.5713 35.4749 68.0813 29.1849C68.4213 24.9949 68.8513 19.7849 67.1513 18.9049C66.8413 18.7449 66.5613 18.6649 66.3213 18.6649C66.0413 18.6649 65.8113 18.7749 65.6013 18.9949C64.3413 20.3549 64.7113 25.2549 64.8313 26.8649C64.8513 27.0849 64.8613 27.2649 64.8713 27.3949L64.9113 28.0449C65.2713 34.3649 65.6713 41.5149 61.0613 44.6349C59.8213 45.4749 58.2313 45.9249 56.4613 45.9349H56.3913V45.9549Z" fill="white"/>
<path d="M65.6113 4.53483C69.2113 4.53483 72.7813 5.41483 75.7613 7.03483C78.7513 5.40483 82.2113 4.53483 85.8513 4.53483C91.1613 4.53483 96.2013 6.40483 99.6613 9.66483C103.451 13.2248 104.381 17.6348 105.071 20.8548C106.661 28.3648 106.191 41.4448 98.1813 44.6048C96.9513 45.0948 95.5813 45.3648 94.2113 45.3648C92.4213 45.3648 90.6513 44.8848 89.2313 43.7848C85.0913 40.5448 85.9313 33.6848 86.6813 27.6348C87.1513 23.7948 87.7413 19.0148 86.2413 18.2048C86.0013 18.0748 85.7213 18.0148 85.4413 18.0148C85.1213 18.0148 84.7913 18.0948 84.5113 18.2248C82.7113 19.1048 83.0313 23.9948 83.3113 28.3048C83.7013 34.3648 84.1513 41.2348 79.8713 44.1448C78.5613 45.0348 76.9113 45.5148 75.2713 45.5148C73.8913 45.5148 72.5113 45.1648 71.3713 44.4348C67.3613 41.8348 67.8913 35.4248 68.4013 29.2248C68.7713 24.7248 69.1913 19.6348 67.3113 18.6648C66.9513 18.4848 66.6313 18.3948 66.3513 18.3948C63.6913 18.3948 64.5313 26.0448 64.6013 27.4248C64.6113 27.6448 64.6213 27.8548 64.6413 28.0748C64.9913 34.3148 65.3913 41.3848 60.9213 44.4148C59.6613 45.2648 58.0813 45.6548 56.4813 45.6648C56.4613 45.6648 56.4413 45.6648 56.4213 45.6648C54.9013 45.6648 53.3713 45.3248 52.1013 44.7248C45.6413 41.6748 45.3113 31.8048 45.6913 26.1948C46.0013 21.5748 46.5213 13.8948 52.9213 8.78483C56.3513 6.04483 60.8713 4.54483 65.6413 4.54483M65.6413 3.96483C60.7413 3.96483 56.0913 5.51483 52.5613 8.33483C45.9613 13.6048 45.4313 21.4648 45.1213 26.1548C44.7313 31.9148 45.0913 42.0548 51.8713 45.2548C53.2313 45.8948 54.8513 46.2448 56.4413 46.2448H56.5113C58.3413 46.2348 59.9913 45.7648 61.2713 44.8948C66.0213 41.6848 65.6113 34.4348 65.2513 28.0448C65.2413 27.8248 65.2313 27.6148 65.2113 27.3948C65.2113 27.2648 65.1913 27.0848 65.1713 26.8548C65.0513 25.2748 64.6913 20.4648 65.8713 19.2048C66.0213 19.0448 66.1813 18.9648 66.3813 18.9648C66.5713 18.9648 66.8113 19.0348 67.0713 19.1748C68.6013 19.9548 68.1713 25.2748 67.8513 29.1548C67.3313 35.5348 66.7813 42.1148 71.0913 44.9048C72.2813 45.6748 73.7413 46.0848 75.3013 46.0848C77.0813 46.0848 78.8313 45.5648 80.2313 44.6148C84.7913 41.5148 84.3313 34.4748 83.9313 28.2548C83.6913 24.5348 83.3513 19.4448 84.8113 18.7348C85.0113 18.6348 85.2513 18.5848 85.4813 18.5848C85.6813 18.5848 85.8613 18.6248 86.0013 18.7048C87.1613 19.3248 86.5213 24.4748 86.1413 27.5548C85.3813 33.7648 84.5113 40.7948 88.9113 44.2348C90.3413 45.3548 92.1813 45.9448 94.2513 45.9448C95.6513 45.9448 97.1013 45.6648 98.4313 45.1448C106.771 41.8548 107.301 28.4248 105.671 20.7348C104.971 17.4448 104.011 12.9248 100.091 9.24483C96.5213 5.88483 91.3413 3.95483 85.8813 3.95483C82.2813 3.95483 78.8013 4.79483 75.7913 6.37483C72.7913 4.81483 69.2013 3.95483 65.6513 3.95483L65.6413 3.96483Z" fill="white"/>
<path d="M39.1913 45.8649C33.3413 45.8649 30.0713 42.3149 29.4713 35.2949C29.1213 31.1949 29.0713 21.3949 36.2613 18.9349C37.1613 18.6249 38.1313 18.4749 39.1213 18.4749C41.2413 18.4749 42.8613 19.1649 43.1713 19.3049C49.2713 22.0849 48.9813 29.1849 48.8013 33.4249V33.5449C48.5913 38.8349 47.3613 45.8549 39.1913 45.8549V45.8649Z" fill="white"/>
<path d="M41.7412 14.5348C39.2312 15.5448 36.6412 15.3948 34.8212 14.1248C33.0012 12.8548 31.9612 10.4348 32.3012 8.23482C32.6512 5.91482 34.5412 3.80482 37.2212 2.71482C39.7412 1.69482 42.3212 1.84482 44.1012 3.11482C45.9612 4.43482 46.9512 6.97482 46.5012 9.29482C46.0712 11.5448 44.2912 13.5048 41.7412 14.5348V14.5348Z" fill="#282828"/>
<path d="M44.2712 2.87489C42.4012 1.54489 39.7312 1.38489 37.1112 2.44489C34.3312 3.56489 32.3812 5.77489 32.0112 8.19489C31.6612 10.4949 32.7512 13.0349 34.6512 14.3649C36.5512 15.6949 39.2412 15.8549 41.8412 14.8049C44.4812 13.7349 46.3312 11.6949 46.7812 9.35489C47.2512 6.92489 46.2112 4.26489 44.2612 2.87489H44.2712ZM46.2212 9.24489C45.8112 11.3949 44.0912 13.2749 41.6312 14.2649C39.2112 15.2449 36.7312 15.1049 34.9912 13.8849C33.2612 12.6749 32.2712 10.3649 32.5912 8.27489C32.9312 6.05489 34.7512 4.02489 37.3312 2.98489C39.7612 2.00489 42.2312 2.13489 43.9412 3.34489C45.7112 4.60489 46.6512 7.02489 46.2212 9.23489V9.24489Z" fill="#282828"/>
<path d="M43.3013 19.0648C42.9913 18.9248 41.3113 18.2048 39.1313 18.2048C38.1013 18.2048 37.1013 18.3648 36.1713 18.6848C28.7913 21.2048 28.8313 31.1548 29.1913 35.3148C29.8013 42.4948 33.1713 46.1248 39.2013 46.1248C47.6213 46.1248 48.8813 38.9448 49.1013 33.5548V33.4348C49.2813 29.1348 49.5813 21.9248 43.3113 19.0648H43.3013ZM48.5113 33.4148V33.5348C48.2813 39.3148 46.8213 45.5848 39.1913 45.5848C32.4613 45.5848 30.2213 40.7248 29.7613 35.2648C29.4113 31.1848 29.3513 21.5748 36.3613 19.1848C37.2313 18.8848 38.1613 18.7348 39.1213 18.7348C41.1713 18.7348 42.7413 19.4048 43.0413 19.5348C48.9713 22.2348 48.6813 29.2248 48.5113 33.4048V33.4148Z" fill="white"/>
<path d="M20.1813 45.7549C16.3013 45.7149 12.1913 44.5549 9.19127 42.6649C-0.958734 36.2549 -0.0787338 22.0349 0.771266 16.2149C1.90127 8.48485 6.27127 4.97485 12.3113 4.97485C15.9113 4.97485 18.9713 5.84485 21.2413 8.18485C25.0513 12.1149 26.1513 20.2649 21.0513 28.4149C21.6113 28.3649 22.1713 28.3349 22.7313 28.3349C26.9513 28.3349 30.3613 29.9449 31.8513 32.6349C33.2213 35.1049 33.2513 37.5849 31.9413 39.8149C29.7513 43.5349 24.3113 45.7549 20.3213 45.7549H20.2013H20.1813Z" fill="white"/>
<path d="M12.3113 5.26481C15.8313 5.26481 18.8213 6.10482 21.0313 8.39481C25.0613 12.5548 25.6113 20.9748 20.4813 28.7748C21.2413 28.6748 21.9913 28.6248 22.7313 28.6248C26.8413 28.6248 30.1613 30.1748 31.6013 32.7748C35.7013 40.1648 26.4813 45.4648 20.3213 45.4648C20.2813 45.4648 20.2413 45.4648 20.2013 45.4648C16.2513 45.4248 12.2013 44.2048 9.37125 42.4148C-0.658747 36.0948 0.211253 22.0148 1.06125 16.2548C1.95125 10.1348 5.32125 5.26481 12.3113 5.26481ZM12.3113 4.68481C6.10125 4.68481 1.63125 8.27481 0.481253 16.1748C-0.378747 22.0448 -1.25875 36.4048 9.04125 42.9048C12.0813 44.8248 16.2413 45.9948 20.1813 46.0448H20.3113C24.3813 46.0448 29.9413 43.7648 32.1813 39.9648C33.5513 37.6448 33.5212 35.0548 32.1012 32.4948C30.5612 29.7148 27.0513 28.0448 22.7213 28.0448C22.3513 28.0448 21.9713 28.0548 21.5913 28.0848C26.4213 19.9748 25.2513 11.9248 21.4413 7.99481C19.1213 5.59481 15.9813 4.69481 12.3013 4.69481L12.3113 4.68481Z" fill="white"/>
<path d="M124.341 43.8749C119.521 43.8749 114.921 42.3849 111.401 39.6849C105.561 35.2049 102.601 27.0149 104.031 19.2849C105.811 9.69486 114.381 2.73486 124.421 2.73486C130.871 2.73486 136.501 5.35486 138.761 9.41486C141.021 13.4649 139.971 16.9149 138.691 19.0949C136.181 23.3649 130.581 26.4549 125.371 26.4549C124.201 26.4549 123.001 26.3549 121.811 26.1549C122.971 27.3349 124.411 27.9149 126.171 27.9149C127.931 27.9149 129.761 27.3649 131.351 26.8149C132.921 26.2849 134.401 25.7749 135.771 25.7749C137.591 25.7749 138.871 26.4749 139.591 27.8649C141.051 30.6749 139.661 35.6249 138.031 37.9449C135.451 41.5949 130.211 43.8649 124.331 43.8649L124.341 43.8749ZM124.621 15.5749C123.631 15.9349 123.871 17.4449 124.921 17.4549C124.921 17.4549 124.941 17.4549 124.951 17.4549C125.451 17.4549 126.601 17.0749 126.861 16.5449C126.911 16.4349 126.961 16.2649 126.751 16.0149C126.491 15.6949 125.901 15.4249 125.421 15.4249C125.151 15.4249 124.871 15.4849 124.621 15.5749V15.5749Z" fill="#282828"/>
<path d="M124.411 3.02481C130.761 3.02481 136.291 5.58481 138.501 9.55481C143.331 18.2048 133.541 26.1648 125.371 26.1648C124.041 26.1648 122.711 26.0348 121.371 25.7748C121.261 25.7548 121.181 25.8848 121.261 25.9648C122.671 27.6248 124.371 28.2048 126.181 28.2048C127.891 28.2048 129.701 27.6948 131.451 27.0948C132.991 26.5648 134.451 26.0748 135.781 26.0748C141.961 26.0748 139.981 34.6948 137.801 37.7848C135.281 41.3648 130.121 43.5848 124.341 43.5848C119.581 43.5848 115.051 42.1148 111.571 39.4548C105.811 35.0448 102.891 26.9548 104.311 19.3348C106.101 9.66481 114.731 3.02481 124.411 3.02481M124.941 17.7448C125.731 17.7448 127.861 16.9648 126.971 15.8348C126.641 15.4148 125.941 15.1348 125.411 15.1348C124.881 15.1348 124.321 15.3348 123.861 15.6148C122.981 16.1448 123.211 17.4748 124.221 17.6748C124.451 17.7148 124.691 17.7448 124.951 17.7448M124.421 2.44481C114.251 2.44481 105.551 9.50481 103.751 19.2348C102.301 27.0648 105.301 35.3748 111.231 39.9148C114.811 42.6548 119.471 44.1648 124.351 44.1648C130.311 44.1648 135.651 41.8448 138.281 38.1148C139.961 35.7348 141.371 30.6448 139.861 27.7348C139.331 26.7148 138.191 25.4948 135.781 25.4948C134.351 25.4948 132.851 26.0048 131.261 26.5448C129.691 27.0748 127.861 27.6248 126.171 27.6248C124.841 27.6248 123.711 27.2848 122.751 26.5848C123.631 26.6948 124.501 26.7448 125.371 26.7448C130.681 26.7448 136.381 23.5848 138.941 19.2348C140.261 16.9948 141.341 13.4448 139.011 9.26481C136.701 5.11481 130.971 2.43481 124.411 2.43481L124.421 2.44481Z" fill="white"/>
<path d="M151.351 44.565C149.091 44.565 144.741 44.255 141.041 42.175C137.591 40.235 135.761 37.235 135.741 33.515C135.731 30.315 137.131 26.575 140.231 25.925C140.541 25.865 140.861 25.825 141.181 25.825C143.281 25.825 145.311 27.195 146.951 28.295L147.451 28.625C147.661 28.765 147.881 28.915 148.101 29.065C149.051 29.725 150.131 30.465 151.191 30.725C151.321 30.755 151.451 30.775 151.591 30.775C152.101 30.775 152.701 30.545 152.701 29.885C152.701 29.195 149.821 27.995 148.281 27.345C144.441 25.745 139.681 23.755 137.821 19.185C136.261 15.345 137.411 11.245 138.881 8.895C141.331 4.965 146.591 2.625 152.931 2.625C159.271 2.625 164.491 4.895 166.401 8.415C167.711 10.815 167.721 14.265 166.441 16.605C165.461 18.385 164.031 19.295 162.181 19.295C160.331 19.295 158.391 18.405 157.071 17.745C156.471 17.435 154.621 16.515 153.421 16.515C153.061 16.515 152.801 16.605 152.651 16.775C152.481 16.965 152.421 17.295 152.481 17.755C152.561 18.405 154.981 19.135 156.591 19.615C160.041 20.655 164.311 21.945 166.621 25.765C168.931 29.585 168.551 34.765 165.661 38.955C163.061 42.725 157.721 43.955 154.761 44.355C153.641 44.505 152.501 44.585 151.371 44.585L151.351 44.565Z" fill="#282828"/>
<path d="M152.921 2.91498C159.091 2.91498 164.281 5.12498 166.131 8.55498C167.361 10.815 167.441 14.135 166.171 16.465C165.141 18.335 163.721 19.005 162.161 19.005C160.601 19.005 158.801 18.305 157.181 17.485C156.521 17.155 154.671 16.215 153.401 16.215C152.591 16.215 152.021 16.595 152.171 17.775C152.271 18.605 154.511 19.285 156.491 19.875C159.881 20.895 164.101 22.175 166.351 25.895C168.781 29.915 167.991 35.025 165.401 38.775C163.121 42.095 158.501 43.535 154.701 44.045C153.591 44.195 152.471 44.275 151.351 44.275C144.631 44.275 136.061 41.585 136.031 33.515C136.021 30.745 137.151 26.865 140.281 26.205C140.581 26.145 140.881 26.115 141.171 26.115C143.391 26.115 145.541 27.715 147.271 28.875C148.421 29.635 149.741 30.685 151.111 31.025C151.261 31.065 151.421 31.085 151.581 31.085C152.281 31.085 152.981 30.725 152.981 29.905C152.981 29.025 150.431 27.955 148.371 27.095C144.591 25.515 139.881 23.555 138.071 19.095C136.551 15.355 137.681 11.355 139.111 9.06498C141.511 5.22498 146.671 2.93498 152.911 2.93498M152.911 2.35498C146.471 2.35498 141.121 4.75498 138.611 8.76498C137.111 11.175 135.921 15.385 137.531 19.325C139.441 24.015 144.271 26.025 148.151 27.645C149.381 28.155 152.241 29.355 152.401 29.935C152.401 30.475 151.771 30.515 151.581 30.515C151.471 30.515 151.361 30.505 151.251 30.475C150.241 30.225 149.181 29.495 148.251 28.855C148.031 28.705 147.811 28.545 147.591 28.405C147.431 28.295 147.261 28.185 147.091 28.075C145.421 26.955 143.351 25.555 141.161 25.555C140.821 25.555 140.481 25.585 140.151 25.655C136.891 26.335 135.421 30.215 135.431 33.535C135.441 37.365 137.331 40.445 140.881 42.445C144.631 44.555 149.041 44.875 151.331 44.875C152.471 44.875 153.621 44.795 154.761 44.645C157.761 44.245 163.201 42.985 165.861 39.125C168.811 34.835 169.191 29.535 166.831 25.615C164.471 21.705 160.131 20.395 156.641 19.345C155.421 18.975 152.911 18.215 152.731 17.715C152.691 17.365 152.731 17.105 152.831 16.975C152.951 16.845 153.201 16.815 153.391 16.815C154.521 16.815 156.321 17.725 156.911 18.015C158.261 18.695 160.271 19.595 162.151 19.595C164.031 19.595 165.641 18.645 166.671 16.755C168.001 14.335 167.981 10.775 166.631 8.29498C164.671 4.68498 159.281 2.35498 152.901 2.35498H152.911Z" fill="white"/>
<path d="M56.3913 44.2049C54.8513 44.2049 53.2713 43.8649 51.9513 43.2349C45.3313 40.1149 44.9913 30.1049 45.3713 24.4149C45.6813 19.7649 46.2113 11.9849 52.7013 6.80487C56.1813 4.02487 60.7613 2.49487 65.6013 2.49487C69.1713 2.49487 72.7613 3.36487 75.7513 4.95487C78.7413 3.34487 82.2313 2.49487 85.8413 2.49487C91.2213 2.49487 96.3313 4.39487 99.8513 7.70487C103.701 11.3249 104.651 15.7849 105.341 19.0449C106.941 26.6449 106.451 39.8949 98.2713 43.1249C96.9713 43.6349 95.5613 43.9049 94.2013 43.9049C92.2013 43.9049 90.4213 43.3349 89.0413 42.2549C84.7713 38.9049 85.6213 31.9649 86.3813 25.8349C86.7913 22.4749 87.4213 17.4149 86.0913 16.6949C85.9113 16.5949 85.6813 16.5449 85.4313 16.5449C85.1513 16.5449 84.8713 16.6049 84.6313 16.7249C83.0013 17.5249 83.3313 22.5149 83.5913 26.5249C83.9913 32.6649 84.4413 39.6149 80.0213 42.6249C78.6713 43.5449 76.9813 44.0449 75.2513 44.0449C73.7413 44.0449 72.3413 43.6549 71.1913 42.9149C67.0313 40.2249 67.5713 33.7249 68.0813 27.4349C68.4213 23.2449 68.8513 18.0349 67.1513 17.1549C66.8413 16.9949 66.5613 16.9149 66.3213 16.9149C66.0413 16.9149 65.8113 17.0249 65.6013 17.2449C64.3413 18.6049 64.7113 23.5049 64.8313 25.1149C64.8513 25.3349 64.8613 25.5149 64.8713 25.6449L64.9113 26.2949C65.2713 32.6149 65.6713 39.7649 61.0613 42.8849C59.8213 43.7249 58.2313 44.1749 56.4613 44.1849H56.3913V44.2049Z" fill="#282828"/>
<path d="M65.6113 2.79484C69.2113 2.79484 72.7813 3.67484 75.7613 5.29484C78.7513 3.66484 82.2113 2.79484 85.8513 2.79484C91.1613 2.79484 96.2013 4.66484 99.6613 7.92484C103.451 11.4848 104.381 15.8948 105.071 19.1148C106.661 26.6248 106.191 39.7048 98.1813 42.8648C96.9513 43.3548 95.5813 43.6248 94.2113 43.6248C92.4213 43.6248 90.6513 43.1448 89.2313 42.0448C85.0913 38.8048 85.9313 31.9448 86.6813 25.8948C87.1513 22.0548 87.7413 17.2748 86.2413 16.4648C86.0013 16.3348 85.7213 16.2748 85.4413 16.2748C85.1213 16.2748 84.7913 16.3548 84.5113 16.4848C82.7113 17.3648 83.0313 22.2548 83.3113 26.5648C83.7013 32.6248 84.1513 39.4948 79.8713 42.4048C78.5613 43.2948 76.9113 43.7748 75.2713 43.7748C73.8913 43.7748 72.5113 43.4248 71.3713 42.6948C67.3613 40.0948 67.8913 33.6848 68.4013 27.4848C68.7713 22.9848 69.1913 17.8948 67.3113 16.9248C66.9513 16.7448 66.6313 16.6548 66.3513 16.6548C63.6913 16.6548 64.5313 24.3048 64.6013 25.6848C64.6113 25.9048 64.6213 26.1148 64.6413 26.3348C64.9913 32.5748 65.3913 39.6448 60.9213 42.6748C59.6613 43.5248 58.0813 43.9148 56.4813 43.9248C56.4613 43.9248 56.4413 43.9248 56.4213 43.9248C54.9013 43.9248 53.3713 43.5848 52.1013 42.9848C45.6413 39.9348 45.3113 30.0648 45.6913 24.4548C46.0013 19.8348 46.5213 12.1548 52.9213 7.04484C56.3513 4.30484 60.8713 2.80484 65.6413 2.80484M65.6413 2.22484C60.7413 2.22484 56.0913 3.77484 52.5613 6.59484C45.9613 11.8648 45.4313 19.7248 45.1213 24.4148C44.7313 30.1748 45.0913 40.3148 51.8713 43.5148C53.2313 44.1548 54.8513 44.5048 56.4413 44.5048H56.5113C58.3413 44.4948 59.9913 44.0248 61.2713 43.1548C66.0213 39.9448 65.6113 32.6948 65.2513 26.3048C65.2413 26.0848 65.2313 25.8748 65.2113 25.6548C65.2113 25.5248 65.1913 25.3448 65.1713 25.1148C65.0513 23.5348 64.6913 18.7248 65.8713 17.4648C66.0213 17.3048 66.1813 17.2248 66.3813 17.2248C66.5713 17.2248 66.8113 17.2948 67.0713 17.4348C68.6013 18.2148 68.1713 23.5348 67.8513 27.4148C67.3313 33.7948 66.7813 40.3748 71.0913 43.1648C72.2813 43.9348 73.7413 44.3448 75.3013 44.3448C77.0813 44.3448 78.8313 43.8248 80.2313 42.8748C84.7913 39.7748 84.3313 32.7348 83.9313 26.5148C83.6913 22.7948 83.3513 17.7048 84.8113 16.9948C85.0113 16.8948 85.2513 16.8448 85.4813 16.8448C85.6813 16.8448 85.8613 16.8848 86.0013 16.9648C87.1613 17.5848 86.5213 22.7348 86.1413 25.8148C85.3813 32.0248 84.5113 39.0548 88.9113 42.4948C90.3413 43.6148 92.1813 44.2048 94.2513 44.2048C95.6513 44.2048 97.1013 43.9248 98.4313 43.4048C106.771 40.1148 107.301 26.6848 105.671 18.9948C104.971 15.7048 104.011 11.1848 100.091 7.50484C96.5213 4.14484 91.3413 2.21484 85.8813 2.21484C82.2813 2.21484 78.8013 3.05484 75.7913 4.63484C72.7913 3.07484 69.2013 2.21484 65.6513 2.21484L65.6413 2.22484Z" fill="white"/>
<path d="M39.1913 44.1249C33.3413 44.1249 30.0713 40.5749 29.4713 33.5549C29.1213 29.4549 29.0713 19.6549 36.2613 17.1949C37.1613 16.8849 38.1313 16.7349 39.1213 16.7349C41.2413 16.7349 42.8613 17.4249 43.1713 17.5649C49.2713 20.3449 48.9813 27.4449 48.8013 31.6849V31.8049C48.5913 37.0949 47.3613 44.1149 39.1913 44.1149V44.1249Z" fill="#282828"/>
<path d="M41.7412 12.7848C39.2312 13.7948 36.6412 13.6448 34.8212 12.3748C33.0012 11.1048 31.9612 8.68482 32.3012 6.48482C32.6512 4.16482 34.5412 2.05482 37.2212 0.964824C39.7412 -0.0551757 42.3212 0.0948244 44.1012 1.36482C45.9612 2.68482 46.9512 5.22482 46.5012 7.54482C46.0712 9.79482 44.2912 11.7548 41.7412 12.7848Z" fill="#C0F467"/>
<path d="M44.2712 1.12489C42.4012 -0.205107 39.7312 -0.365107 37.1112 0.694893C34.3312 1.81489 32.3812 4.02489 32.0112 6.44489C31.6612 8.74489 32.7512 11.2849 34.6512 12.6149C36.5512 13.9449 39.2412 14.1049 41.8412 13.0549C44.4812 11.9849 46.3312 9.94489 46.7812 7.60489C47.2512 5.17489 46.2112 2.51489 44.2612 1.12489H44.2712ZM46.2212 7.49489C45.8112 9.64489 44.0912 11.5249 41.6312 12.5149C39.2112 13.4949 36.7312 13.3549 34.9912 12.1349C33.2612 10.9249 32.2712 8.61489 32.5912 6.52489C32.9312 4.30489 34.7512 2.27489 37.3312 1.23489C39.7612 0.254893 42.2312 0.384893 43.9412 1.59489C45.7112 2.85489 46.6512 5.27489 46.2212 7.48489V7.49489Z" fill="#282828"/>
<path d="M43.3013 17.3248C42.9913 17.1848 41.3113 16.4648 39.1313 16.4648C38.1013 16.4648 37.1013 16.6248 36.1713 16.9448C28.7913 19.4648 28.8313 29.4148 29.1913 33.5748C29.8013 40.7548 33.1713 44.3848 39.2013 44.3848C47.6213 44.3848 48.8813 37.2048 49.1013 31.8148V31.6948C49.2813 27.3948 49.5813 20.1848 43.3113 17.3248H43.3013ZM48.5113 31.6748V31.7948C48.2813 37.5748 46.8213 43.8448 39.1913 43.8448C32.4613 43.8448 30.2213 38.9848 29.7613 33.5248C29.4113 29.4448 29.3513 19.8348 36.3613 17.4448C37.2313 17.1448 38.1613 16.9948 39.1213 16.9948C41.1713 16.9948 42.7413 17.6648 43.0413 17.7948C48.9713 20.4948 48.6813 27.4848 48.5113 31.6648V31.6748Z" fill="white"/>
<path d="M20.1813 44.0149C16.3013 43.9749 12.1913 42.8149 9.19127 40.9249C-0.958734 34.5049 -0.0787338 20.2949 0.771266 14.4749C1.90127 6.73486 6.27127 3.23486 12.3113 3.23486C15.9113 3.23486 18.9713 4.10486 21.2413 6.44486C25.0513 10.3749 26.1513 18.5249 21.0513 26.6749C21.6113 26.6249 22.1713 26.5949 22.7313 26.5949C26.9513 26.5949 30.3613 28.2049 31.8513 30.8949C33.2213 33.3649 33.2513 35.8449 31.9413 38.0749C29.7513 41.7949 24.3113 44.0149 20.3213 44.0149H20.2013H20.1813Z" fill="#282828"/>
<path d="M12.3113 3.52482C15.8313 3.52482 18.8213 4.36482 21.0313 6.65482C25.0613 10.8148 25.6113 19.2348 20.4813 27.0348C21.2413 26.9348 21.9913 26.8848 22.7313 26.8848C26.8413 26.8848 30.1613 28.4348 31.6013 31.0348C35.7013 38.4248 26.4813 43.7248 20.3213 43.7248C20.2813 43.7248 20.2413 43.7248 20.2013 43.7248C16.2513 43.6848 12.2013 42.4648 9.37125 40.6748C-0.658747 34.3548 0.211253 20.2748 1.06125 14.5148C1.95125 8.39482 5.32125 3.52482 12.3113 3.52482ZM12.3113 2.94482C6.10125 2.94482 1.63125 6.53482 0.481253 14.4348C-0.378747 20.3048 -1.25875 34.6648 9.04125 41.1648C12.0813 43.0848 16.2413 44.2548 20.1813 44.3048H20.3113C24.3813 44.3048 29.9413 42.0248 32.1813 38.2248C33.5513 35.9048 33.5212 33.3148 32.1012 30.7548C30.5612 27.9748 27.0513 26.3048 22.7213 26.3048C22.3513 26.3048 21.9713 26.3148 21.5913 26.3448C26.4213 18.2348 25.2513 10.1848 21.4413 6.25482C19.1213 3.85482 15.9813 2.95482 12.3013 2.95482L12.3113 2.94482Z" fill="white"/>
</svg>
