<svg width="514" height="279" viewBox="0 0 514 279" fill="none" xmlns="http://www.w3.org/2000/svg">
<mask id="path-1-inside-1_104_421" fill="white">
<path fill-rule="evenodd" clip-rule="evenodd" d="M164.826 246.575H164.944V244.722V217.855C164.944 198.923 128.02 183.577 82.4721 183.577C36.924 183.577 0 198.923 0 217.855V244.722V246.575H0.118435C2.4342 264.644 38.4197 279 82.4721 279C126.525 279 162.51 264.644 164.826 246.575Z"/>
</mask>
<path fill-rule="evenodd" clip-rule="evenodd" d="M164.826 246.575H164.944V244.722V217.855C164.944 198.923 128.02 183.577 82.4721 183.577C36.924 183.577 0 198.923 0 217.855V244.722V246.575H0.118435C2.4342 264.644 38.4197 279 82.4721 279C126.525 279 162.51 264.644 164.826 246.575Z" fill="#F9C818"/>
<path d="M164.944 246.575V247.575H165.944V246.575H164.944ZM164.826 246.575V245.575H163.946L163.834 246.447L164.826 246.575ZM0 246.575H-1V247.575H0V246.575ZM0.118435 246.575L1.11032 246.447L0.998457 245.575H0.118435V246.575ZM164.944 245.575H164.826V247.575H164.944V245.575ZM163.944 244.722V246.575H165.944V244.722H163.944ZM163.944 217.855V244.722H165.944V217.855H163.944ZM165.944 217.855C165.944 212.773 163.462 208.022 159.164 203.799C154.87 199.579 148.707 195.825 141.173 192.693C126.099 186.428 105.345 182.577 82.4721 182.577V184.577C105.147 184.577 125.629 188.399 140.405 194.54C147.795 197.611 153.71 201.243 157.762 205.225C161.811 209.204 163.944 213.471 163.944 217.855H165.944ZM82.4721 182.577C59.5993 182.577 38.845 186.428 23.7717 192.693C16.2373 195.825 10.0746 199.579 5.78017 203.799C1.48228 208.022 -1 212.773 -1 217.855H1C1 213.471 3.13322 209.204 7.18197 205.225C11.2342 201.243 17.1492 197.611 24.5393 194.54C39.3151 188.399 59.7968 184.577 82.4721 184.577V182.577ZM1 244.722V217.855H-1V244.722H1ZM1 246.575V244.722H-1V246.575H1ZM0.118435 245.575H0V247.575H0.118435V245.575ZM-0.873453 246.702C-0.253728 251.537 2.60561 256.027 7.10518 260.013C11.6067 264.001 17.8109 267.542 25.2764 270.493C40.2101 276.397 60.3491 280 82.4721 280V278C60.5427 278 40.6627 274.425 26.0116 268.633C18.6847 265.737 12.7051 262.302 8.43139 258.516C4.15573 254.728 1.64848 250.647 1.11032 246.447L-0.873453 246.702ZM82.4721 280C104.595 280 124.734 276.397 139.668 270.493C147.133 267.542 153.338 264.001 157.839 260.013C162.339 256.027 165.198 251.537 165.818 246.702L163.834 246.447C163.296 250.647 160.788 254.728 156.513 258.516C152.239 262.302 146.26 265.737 138.933 268.633C124.282 274.425 104.402 278 82.4721 278V280Z" fill="black" mask="url(#path-1-inside-1_104_421)"/>
<path d="M164.444 218.111C164.444 222.706 162.222 227.128 158.111 231.198C153.999 235.269 148.022 238.959 140.596 242.069C125.746 248.287 105.196 252.145 82.4721 252.145C59.7479 252.145 39.1984 248.287 24.3486 242.069C16.9227 238.959 10.9457 235.269 6.83284 231.198C2.72177 227.128 0.5 222.706 0.5 218.111C0.5 213.516 2.72177 209.094 6.83284 205.024C10.9457 200.952 16.9227 197.262 24.3486 194.153C39.1984 187.934 59.7479 184.077 82.4721 184.077C105.196 184.077 125.746 187.934 140.596 194.153C148.022 197.262 153.999 200.952 158.111 205.024C162.222 209.094 164.444 213.516 164.444 218.111Z" fill="#F9DC4A" stroke="black"/>
<mask id="path-4-inside-2_104_421" fill="white">
<path fill-rule="evenodd" clip-rule="evenodd" d="M164.826 209.314H164.944V207.461V180.594C164.944 161.663 128.02 146.316 82.4721 146.316C36.924 146.316 0 161.663 0 180.594C0 180.594 0 180.594 0 180.594V207.461V209.314H0.118435C2.43419 227.384 38.4197 241.739 82.4721 241.739C126.525 241.739 162.51 227.384 164.826 209.314Z"/>
</mask>
<path fill-rule="evenodd" clip-rule="evenodd" d="M164.826 209.314H164.944V207.461V180.594C164.944 161.663 128.02 146.316 82.4721 146.316C36.924 146.316 0 161.663 0 180.594C0 180.594 0 180.594 0 180.594V207.461V209.314H0.118435C2.43419 227.384 38.4197 241.739 82.4721 241.739C126.525 241.739 162.51 227.384 164.826 209.314Z" fill="#F9C818"/>
<path d="M164.944 209.314V210.314H165.944V209.314H164.944ZM164.826 209.314V208.314H163.946L163.834 209.187L164.826 209.314ZM0 209.314H-1V210.314H0V209.314ZM0.118435 209.314L1.11032 209.187L0.998457 208.314H0.118435V209.314ZM164.944 208.314H164.826V210.314H164.944V208.314ZM163.944 207.461V209.314H165.944V207.461H163.944ZM163.944 180.594V207.461H165.944V180.594H163.944ZM165.944 180.594C165.944 175.512 163.462 170.762 159.164 166.538C154.87 162.318 148.707 158.564 141.173 155.432C126.099 149.167 105.345 145.316 82.4721 145.316V147.316C105.147 147.316 125.629 151.138 140.405 157.279C147.795 160.351 153.71 163.983 157.762 167.965C161.811 171.943 163.944 176.211 163.944 180.594H165.944ZM82.4721 145.316C59.5993 145.316 38.845 149.167 23.7717 155.432C16.2373 158.564 10.0746 162.318 5.78017 166.538C1.48228 170.762 -1 175.512 -1 180.594H1C1 176.211 3.13322 171.943 7.18197 167.965C11.2342 163.983 17.1492 160.351 24.5393 157.279C39.3151 151.138 59.7968 147.316 82.4721 147.316V145.316ZM-1 180.594C-1 180.594 -1 180.594 -1 180.594C-1 180.594 -1 180.594 -1 180.594C-1 180.594 -1 180.594 -1 180.594V180.594V180.594C-1 180.594 -1 180.594 -1 180.594C-1 180.594 -1 180.594 -1 180.594C-1 180.594 -1 180.594 -1 180.594C-1 180.594 -1 180.594 -1 180.594C-1 180.594 -1 180.594 -1 180.594V180.594V180.594V180.594C-1 180.594 -1 180.594 -1 180.594C-1 180.594 -1 180.594 -1 180.594H1C1 180.594 1 180.594 1 180.594C1 180.594 1 180.594 1 180.594V180.594V180.594V180.594C1 180.594 1 180.594 1 180.594C1 180.594 1 180.594 1 180.594C1 180.594 1 180.594 1 180.594C1 180.594 1 180.594 1 180.594C1 180.594 1 180.594 1 180.594V180.594V180.594C1 180.594 1 180.594 1 180.594C1 180.594 1 180.594 1 180.594C1 180.594 1 180.594 1 180.594H-1ZM1 207.461V180.594H-1V207.461H1ZM1 209.314V207.461H-1V209.314H1ZM0.118435 208.314H0V210.314H0.118435V208.314ZM-0.873453 209.441C-0.25373 214.277 2.60561 218.766 7.10518 222.752C11.6067 226.74 17.8109 230.282 25.2764 233.233C40.2101 239.136 60.3491 242.739 82.4721 242.739V240.739C60.5427 240.739 40.6627 237.165 26.0116 231.373C18.6847 228.476 12.7051 225.041 8.43139 221.255C4.15573 217.467 1.64848 213.386 1.11032 209.187L-0.873453 209.441ZM82.4721 242.739C104.595 242.739 124.734 239.136 139.668 233.233C147.133 230.282 153.338 226.74 157.839 222.752C162.339 218.766 165.198 214.277 165.818 209.441L163.834 209.187C163.296 213.386 160.788 217.467 156.513 221.255C152.239 225.041 146.26 228.476 138.933 231.373C124.282 237.165 104.402 240.739 82.4721 240.739V242.739Z" fill="black" mask="url(#path-4-inside-2_104_421)"/>
<path d="M164.444 180.85C164.444 185.445 162.222 189.867 158.111 193.937C153.999 198.009 148.022 201.699 140.596 204.808C125.746 211.026 105.196 214.884 82.4721 214.884C59.7479 214.884 39.1984 211.026 24.3486 204.808C16.9227 201.699 10.9457 198.009 6.83284 193.937C2.72177 189.867 0.5 185.445 0.5 180.85C0.5 176.255 2.72177 171.833 6.83284 167.763C10.9457 163.691 16.9227 160.001 24.3486 156.892C39.1984 150.674 59.7479 146.816 82.4721 146.816C105.196 146.816 125.746 150.674 140.596 156.892C148.022 160.001 153.999 163.691 158.111 167.763C162.222 171.833 164.444 176.255 164.444 180.85Z" fill="#F9DC4A" stroke="black"/>
<mask id="path-7-inside-3_104_421" fill="white">
<path fill-rule="evenodd" clip-rule="evenodd" d="M164.826 172.053H164.944V170.2V143.334C164.944 124.402 128.02 109.055 82.4721 109.055C36.924 109.055 0 124.402 0 143.334C0 143.334 0 143.334 0 143.334V170.2V172.053H0.118435C2.43419 190.123 38.4197 204.479 82.4721 204.479C126.525 204.479 162.51 190.123 164.826 172.053Z"/>
</mask>
<path fill-rule="evenodd" clip-rule="evenodd" d="M164.826 172.053H164.944V170.2V143.334C164.944 124.402 128.02 109.055 82.4721 109.055C36.924 109.055 0 124.402 0 143.334C0 143.334 0 143.334 0 143.334V170.2V172.053H0.118435C2.43419 190.123 38.4197 204.479 82.4721 204.479C126.525 204.479 162.51 190.123 164.826 172.053Z" fill="#F9C818"/>
<path d="M164.944 172.053V173.053H165.944V172.053H164.944ZM164.826 172.053V171.053H163.946L163.834 171.926L164.826 172.053ZM0 172.053H-1V173.053H0V172.053ZM0.118435 172.053L1.11032 171.926L0.998457 171.053H0.118435V172.053ZM164.944 171.053H164.826V173.053H164.944V171.053ZM163.944 170.2V172.053H165.944V170.2H163.944ZM163.944 143.334V170.2H165.944V143.334H163.944ZM165.944 143.334C165.944 138.252 163.462 133.501 159.164 129.278C154.87 125.058 148.707 121.303 141.173 118.172C126.099 111.907 105.345 108.055 82.4721 108.055V110.055C105.147 110.055 125.629 113.877 140.405 120.019C147.795 123.09 153.71 126.722 157.762 130.704C161.811 134.683 163.944 138.95 163.944 143.334H165.944ZM82.4721 108.055C59.5993 108.055 38.845 111.907 23.7717 118.172C16.2373 121.303 10.0746 125.058 5.78017 129.278C1.48228 133.501 -1 138.252 -1 143.334H1C1 138.95 3.13322 134.683 7.18197 130.704C11.2342 126.722 17.1492 123.09 24.5393 120.019C39.3151 113.877 59.7968 110.055 82.4721 110.055V108.055ZM-1 143.334V143.334V143.334C-1 143.334 -1 143.334 -1 143.334C-1 143.334 -1 143.334 -1 143.334C-1 143.334 -1 143.334 -1 143.334C-1 143.334 -1 143.334 -1 143.334C-1 143.334 -1 143.334 -1 143.334C-1 143.334 -1 143.334 -1 143.334V143.334H1V143.334C1 143.334 1 143.334 1 143.334C1 143.334 1 143.334 1 143.334C1 143.334 1 143.334 1 143.334C1 143.334 1 143.334 1 143.334C1 143.334 1 143.334 1 143.334C1 143.334 1 143.334 1 143.334V143.334V143.334H-1ZM1 170.2V143.334H-1V170.2H1ZM1 172.053V170.2H-1V172.053H1ZM0.118435 171.053H0V173.053H0.118435V171.053ZM-0.873453 172.181C-0.25373 177.016 2.60561 181.506 7.10518 185.492C11.6067 189.479 17.8109 193.021 25.2764 195.972C40.2101 201.876 60.3491 205.479 82.4721 205.479V203.479C60.5427 203.479 40.6627 199.904 26.0116 194.112C18.6847 191.216 12.7051 187.781 8.43139 183.995C4.15573 180.207 1.64848 176.125 1.11032 171.926L-0.873453 172.181ZM82.4721 205.479C104.595 205.479 124.734 201.876 139.668 195.972C147.133 193.021 153.338 189.479 157.839 185.492C162.339 181.506 165.198 177.016 165.818 172.181L163.834 171.926C163.296 176.125 160.788 180.207 156.513 183.995C152.239 187.781 146.26 191.216 138.933 194.112C124.282 199.904 104.402 203.479 82.4721 203.479V205.479Z" fill="black" mask="url(#path-7-inside-3_104_421)"/>
<path d="M164.444 143.59C164.444 148.184 162.222 152.607 158.111 156.677C153.999 160.748 148.022 164.438 140.596 167.548C125.746 173.766 105.196 177.624 82.4721 177.624C59.7479 177.624 39.1984 173.766 24.3486 167.548C16.9227 164.438 10.9457 160.748 6.83284 156.677C2.72177 152.607 0.5 148.184 0.5 143.59C0.5 138.995 2.72177 134.573 6.83284 130.503C10.9457 126.431 16.9227 122.741 24.3486 119.631C39.1984 113.413 59.7479 109.555 82.4721 109.555C105.196 109.555 125.746 113.413 140.596 119.631C148.022 122.741 153.999 126.431 158.111 130.503C162.222 134.573 164.444 138.995 164.444 143.59Z" fill="#F9DC4A" stroke="black"/>
<mask id="path-10-inside-4_104_421" fill="white">
<path fill-rule="evenodd" clip-rule="evenodd" d="M164.826 134.793H164.944V132.94V106.073C164.944 87.1417 128.02 71.7948 82.4721 71.7948C36.924 71.7948 0 87.1417 0 106.073V132.94V134.793H0.118435C2.43419 152.863 38.4197 167.218 82.4721 167.218C126.525 167.218 162.51 152.863 164.826 134.793Z"/>
</mask>
<path fill-rule="evenodd" clip-rule="evenodd" d="M164.826 134.793H164.944V132.94V106.073C164.944 87.1417 128.02 71.7948 82.4721 71.7948C36.924 71.7948 0 87.1417 0 106.073V132.94V134.793H0.118435C2.43419 152.863 38.4197 167.218 82.4721 167.218C126.525 167.218 162.51 152.863 164.826 134.793Z" fill="#F9C818"/>
<path d="M164.944 134.793V135.793H165.944V134.793H164.944ZM164.826 134.793V133.793H163.946L163.834 134.666L164.826 134.793ZM0 134.793H-1V135.793H0V134.793ZM0.118435 134.793L1.11032 134.666L0.998457 133.793H0.118435V134.793ZM164.944 133.793H164.826V135.793H164.944V133.793ZM163.944 132.94V134.793H165.944V132.94H163.944ZM163.944 106.073V132.94H165.944V106.073H163.944ZM165.944 106.073C165.944 100.991 163.462 96.2406 159.164 92.0172C154.87 87.7972 148.707 84.0428 141.173 80.9113C126.099 74.6463 105.345 70.7948 82.4721 70.7948V72.7948C105.147 72.7948 125.629 76.6168 140.405 82.7581C147.795 85.8297 153.71 89.4617 157.762 93.4437C161.811 97.4223 163.944 101.69 163.944 106.073H165.944ZM82.4721 70.7948C59.5993 70.7948 38.845 74.6463 23.7717 80.9113C16.2373 84.0428 10.0746 87.7972 5.78017 92.0172C1.48228 96.2406 -1 100.991 -1 106.073H1C1 101.69 3.13322 97.4223 7.18197 93.4437C11.2342 89.4617 17.1492 85.8297 24.5393 82.7581C39.3151 76.6168 59.7968 72.7948 82.4721 72.7948V70.7948ZM1 132.94V106.073H-1V132.94H1ZM1 134.793V132.94H-1V134.793H1ZM0.118435 133.793H0V135.793H0.118435V133.793ZM-0.873453 134.92C-0.25373 139.756 2.60561 144.245 7.10518 148.231C11.6067 152.219 17.8109 155.76 25.2764 158.712C40.2101 164.615 60.3491 168.218 82.4721 168.218V166.218C60.5427 166.218 40.6627 162.644 26.0116 156.852C18.6847 153.955 12.7051 150.52 8.43139 146.734C4.15573 142.946 1.64848 138.865 1.11032 134.666L-0.873453 134.92ZM82.4721 168.218C104.595 168.218 124.734 164.615 139.668 158.712C147.133 155.76 153.338 152.219 157.839 148.231C162.339 144.245 165.198 139.756 165.818 134.92L163.834 134.666C163.296 138.865 160.788 142.946 156.513 146.734C152.239 150.52 146.26 153.955 138.933 156.852C124.282 162.644 104.402 166.218 82.4721 166.218V168.218Z" fill="black" mask="url(#path-10-inside-4_104_421)"/>
<path d="M164.444 106.329C164.444 110.924 162.222 115.346 158.111 119.416C153.999 123.488 148.022 127.178 140.596 130.287C125.746 136.505 105.196 140.363 82.4721 140.363C59.7479 140.363 39.1984 136.505 24.3486 130.287C16.9227 127.178 10.9457 123.488 6.83284 119.416C2.72177 115.346 0.5 110.924 0.5 106.329C0.5 101.734 2.72177 97.312 6.83284 93.2421C10.9457 89.1703 16.9227 85.4804 24.3486 82.3708C39.1984 76.1527 59.7479 72.2948 82.4721 72.2948C105.196 72.2948 125.746 76.1527 140.596 82.3708C148.022 85.4804 153.999 89.1703 158.111 93.2421C162.222 97.312 164.444 101.734 164.444 106.329Z" fill="#F9DC4A" stroke="black"/>
<mask id="path-13-inside-5_104_421" fill="white">
<path fill-rule="evenodd" clip-rule="evenodd" d="M164.826 99.3498H164.944V97.4969V70.6301C164.944 51.6987 128.02 36.3518 82.4721 36.3518C36.924 36.3518 0 51.6987 0 70.6301V97.4969V99.3498H0.118427C2.43412 117.42 38.4196 131.775 82.4721 131.775C126.525 131.775 162.51 117.42 164.826 99.3498Z"/>
</mask>
<path fill-rule="evenodd" clip-rule="evenodd" d="M164.826 99.3498H164.944V97.4969V70.6301C164.944 51.6987 128.02 36.3518 82.4721 36.3518C36.924 36.3518 0 51.6987 0 70.6301V97.4969V99.3498H0.118427C2.43412 117.42 38.4196 131.775 82.4721 131.775C126.525 131.775 162.51 117.42 164.826 99.3498Z" fill="#F9C818"/>
<path d="M164.944 99.3498V100.35H165.944V99.3498H164.944ZM164.826 99.3498V98.3498H163.946L163.834 99.2227L164.826 99.3498ZM0 99.3498H-1V100.35H0V99.3498ZM0.118427 99.3498L1.11032 99.2227L0.998453 98.3498H0.118427V99.3498ZM164.944 98.3498H164.826V100.35H164.944V98.3498ZM163.944 97.4969V99.3498H165.944V97.4969H163.944ZM163.944 70.6301V97.4969H165.944V70.6301H163.944ZM165.944 70.6301C165.944 65.548 163.462 60.7976 159.164 56.5742C154.87 52.3542 148.707 48.5999 141.173 45.4683C126.099 39.2033 105.345 35.3518 82.4721 35.3518V37.3518C105.147 37.3518 125.629 41.1738 140.405 47.3151C147.795 50.3867 153.71 54.0187 157.762 58.0007C161.811 61.9793 163.944 66.2465 163.944 70.6301H165.944ZM82.4721 35.3518C59.5993 35.3518 38.845 39.2033 23.7717 45.4683C16.2373 48.5999 10.0746 52.3542 5.78017 56.5742C1.48228 60.7976 -1 65.548 -1 70.6301H1C1 66.2465 3.13322 61.9793 7.18197 58.0007C11.2342 54.0187 17.1492 50.3867 24.5393 47.3151C39.3151 41.1738 59.7968 37.3518 82.4721 37.3518V35.3518ZM1 97.4969V70.6301H-1V97.4969H1ZM1 99.3498V97.4969H-1V99.3498H1ZM0.118427 98.3498H0V100.35H0.118427V98.3498ZM-0.873461 99.4769C-0.253756 104.313 2.60557 108.802 7.10513 112.788C11.6066 116.776 17.8109 120.317 25.2763 123.269C40.21 129.172 60.349 132.775 82.4721 132.775V130.775C60.5427 130.775 40.6627 127.201 26.0116 121.409C18.6847 118.512 12.7051 115.077 8.43135 111.291C4.1557 107.503 1.64846 103.422 1.11032 99.2227L-0.873461 99.4769ZM82.4721 132.775C104.595 132.775 124.734 129.172 139.668 123.269C147.133 120.317 153.338 116.776 157.839 112.788C162.339 108.802 165.198 104.313 165.818 99.4769L163.834 99.2227C163.296 103.422 160.789 107.503 156.513 111.291C152.239 115.077 146.26 118.512 138.933 121.409C124.282 127.201 104.402 130.775 82.4721 130.775V132.775Z" fill="black" mask="url(#path-13-inside-5_104_421)"/>
<path d="M164.444 70.886C164.444 75.4809 162.222 79.903 158.111 83.973C153.999 88.0448 148.022 91.7347 140.596 94.8442C125.746 101.062 105.196 104.92 82.4721 104.92C59.7479 104.92 39.1984 101.062 24.3486 94.8442C16.9227 91.7347 10.9457 88.0448 6.83284 83.973C2.72177 79.903 0.5 75.4809 0.5 70.886C0.5 66.2911 2.72177 61.8691 6.83284 57.7991C10.9457 53.7273 16.9227 50.0374 24.3486 46.9278C39.1984 40.7097 59.7479 36.8518 82.4721 36.8518C105.196 36.8518 125.746 40.7097 140.596 46.9278C148.022 50.0374 153.999 53.7273 158.111 57.7991C162.222 61.8691 164.444 66.2911 164.444 70.886Z" fill="#F9DC4A" stroke="black"/>
<path d="M90.9305 51.684C90.9305 53.882 90.9554 55.6091 91.0053 56.8651C91.0553 58.0862 91.1301 59.1678 91.2299 60.1098C90.8307 60.04 90.057 59.9877 88.9091 59.9528C87.8111 59.9179 86.5383 59.9004 85.0909 59.9004C83.6435 59.8655 82.221 59.8481 80.8235 59.8481H70.492L69.369 69.1635C70.5668 68.6751 71.9893 68.2389 73.6364 67.8552C75.3333 67.4714 77.4046 67.2795 79.8503 67.2795C83.0945 67.2795 85.7647 67.6458 87.861 68.3785C89.9572 69.0763 91.5045 70.0532 92.5027 71.3092C93.5009 72.5303 94 73.9084 94 75.4436C94 77.4671 93.1765 79.2988 91.5294 80.9386C89.8824 82.5784 87.6863 83.974 84.9412 85.1253C82.246 86.2767 79.2513 87.1489 75.9572 87.742C72.6631 88.37 69.344 88.684 66 88.684V87.742C68.2959 87.742 70.5169 87.4803 72.6631 86.957C74.8093 86.4337 76.7558 85.6661 78.5027 84.6543C80.2496 83.6774 81.6221 82.4563 82.6203 80.991C83.6684 79.5256 84.1925 77.816 84.1925 75.8622C84.1925 73.6642 83.4189 71.9721 81.8717 70.7859C80.3743 69.5647 78.2032 68.9542 75.3583 68.9542C73.9608 68.9542 72.7629 69.0763 71.7647 69.3205C70.8164 69.5647 69.8182 69.8787 68.7701 70.2625L67.8717 69.8439L69.893 53.725C70.4421 53.7948 71.066 53.8472 71.7647 53.882C72.5134 53.9169 73.2371 53.9344 73.9358 53.9344H84.9412C86.6381 53.9344 87.7611 53.7774 88.3102 53.4634C88.8592 53.1145 89.2086 52.5214 89.3583 51.684H90.9305Z" fill="#752B00"/>
<mask id="path-17-inside-6_104_421" fill="white">
<path fill-rule="evenodd" clip-rule="evenodd" d="M340.354 246.575H340.472V244.722V217.855C340.472 198.923 303.548 183.577 258 183.577C212.452 183.577 175.528 198.923 175.528 217.855V244.722V246.575H175.646C177.962 264.644 213.948 279 258 279C302.052 279 338.038 264.644 340.354 246.575Z"/>
</mask>
<path fill-rule="evenodd" clip-rule="evenodd" d="M340.354 246.575H340.472V244.722V217.855C340.472 198.923 303.548 183.577 258 183.577C212.452 183.577 175.528 198.923 175.528 217.855V244.722V246.575H175.646C177.962 264.644 213.948 279 258 279C302.052 279 338.038 264.644 340.354 246.575Z" fill="#F9C818"/>
<path d="M340.472 246.575V247.575H341.472V246.575H340.472ZM340.354 246.575V245.575H339.474L339.362 246.447L340.354 246.575ZM175.528 246.575H174.528V247.575H175.528V246.575ZM175.646 246.575L176.638 246.447L176.526 245.575H175.646V246.575ZM340.472 245.575H340.354V247.575H340.472V245.575ZM339.472 244.722V246.575H341.472V244.722H339.472ZM339.472 217.855V244.722H341.472V217.855H339.472ZM341.472 217.855C341.472 212.773 338.99 208.022 334.692 203.799C330.398 199.579 324.235 195.825 316.7 192.693C301.627 186.428 280.873 182.577 258 182.577V184.577C280.675 184.577 301.157 188.399 315.933 194.54C323.323 197.611 329.238 201.243 333.29 205.225C337.339 209.204 339.472 213.471 339.472 217.855H341.472ZM258 182.577C235.127 182.577 214.373 186.428 199.3 192.693C191.765 195.825 185.602 199.579 181.308 203.799C177.01 208.022 174.528 212.773 174.528 217.855H176.528C176.528 213.471 178.661 209.204 182.71 205.225C186.762 201.243 192.677 197.611 200.067 194.54C214.843 188.399 235.325 184.577 258 184.577V182.577ZM176.528 244.722V217.855H174.528V244.722H176.528ZM176.528 246.575V244.722H174.528V246.575H176.528ZM175.646 245.575H175.528V247.575H175.646V245.575ZM174.654 246.702C175.274 251.537 178.134 256.027 182.633 260.013C187.135 264.001 193.339 267.542 200.804 270.493C215.738 276.397 235.877 280 258 280V278C236.071 278 216.191 274.425 201.54 268.633C194.213 265.737 188.233 262.302 183.959 258.516C179.684 254.728 177.176 250.647 176.638 246.447L174.654 246.702ZM258 280C280.123 280 300.262 276.397 315.196 270.493C322.661 267.542 328.865 264.001 333.367 260.013C337.867 256.027 340.726 251.537 341.346 246.702L339.362 246.447C338.824 250.647 336.316 254.728 332.041 258.516C327.767 262.302 321.787 265.737 314.46 268.633C299.809 274.425 279.929 278 258 278V280Z" fill="black" mask="url(#path-17-inside-6_104_421)"/>
<path d="M339.972 218.111C339.972 222.706 337.75 227.128 333.639 231.198C329.526 235.269 323.549 238.959 316.123 242.069C301.274 248.287 280.724 252.145 258 252.145C235.276 252.145 214.726 248.287 199.877 242.069C192.451 238.959 186.474 235.269 182.361 231.198C178.25 227.128 176.028 222.706 176.028 218.111C176.028 213.516 178.25 209.094 182.361 205.024C186.474 200.952 192.451 197.262 199.877 194.153C214.726 187.934 235.276 184.077 258 184.077C280.724 184.077 301.274 187.934 316.123 194.153C323.549 197.262 329.526 200.952 333.639 205.024C337.75 209.094 339.972 213.516 339.972 218.111Z" fill="#F9DC4A" stroke="black"/>
<mask id="path-20-inside-7_104_421" fill="white">
<path fill-rule="evenodd" clip-rule="evenodd" d="M340.354 209.314H340.472V207.461V180.594C340.472 161.663 303.548 146.316 258 146.316C212.452 146.316 175.528 161.663 175.528 180.594C175.528 180.594 175.528 180.594 175.528 180.594V207.461V209.314H175.646C177.962 227.384 213.948 241.739 258 241.739C302.052 241.739 338.038 227.384 340.354 209.314Z"/>
</mask>
<path fill-rule="evenodd" clip-rule="evenodd" d="M340.354 209.314H340.472V207.461V180.594C340.472 161.663 303.548 146.316 258 146.316C212.452 146.316 175.528 161.663 175.528 180.594C175.528 180.594 175.528 180.594 175.528 180.594V207.461V209.314H175.646C177.962 227.384 213.948 241.739 258 241.739C302.052 241.739 338.038 227.384 340.354 209.314Z" fill="#F9C818"/>
<path d="M340.472 209.314V210.314H341.472V209.314H340.472ZM340.354 209.314V208.314H339.474L339.362 209.187L340.354 209.314ZM175.528 209.314H174.528V210.314H175.528V209.314ZM175.646 209.314L176.638 209.187L176.526 208.314H175.646V209.314ZM340.472 208.314H340.354V210.314H340.472V208.314ZM339.472 207.461V209.314H341.472V207.461H339.472ZM339.472 180.594V207.461H341.472V180.594H339.472ZM341.472 180.594C341.472 175.512 338.99 170.762 334.692 166.538C330.398 162.318 324.235 158.564 316.7 155.432C301.627 149.167 280.873 145.316 258 145.316V147.316C280.675 147.316 301.157 151.138 315.933 157.279C323.323 160.351 329.238 163.983 333.29 167.965C337.339 171.943 339.472 176.211 339.472 180.594H341.472ZM258 145.316C235.127 145.316 214.373 149.167 199.3 155.432C191.765 158.564 185.602 162.318 181.308 166.538C177.01 170.762 174.528 175.512 174.528 180.594H176.528C176.528 176.211 178.661 171.943 182.71 167.965C186.762 163.983 192.677 160.351 200.067 157.279C214.843 151.138 235.325 147.316 258 147.316V145.316ZM174.528 180.594C174.528 180.594 174.528 180.594 174.528 180.594C174.528 180.594 174.528 180.594 174.528 180.594C174.528 180.594 174.528 180.594 174.528 180.594V180.594V180.594C174.528 180.594 174.528 180.594 174.528 180.594C174.528 180.594 174.528 180.594 174.528 180.594C174.528 180.594 174.528 180.594 174.528 180.594C174.528 180.594 174.528 180.594 174.528 180.594C174.528 180.594 174.528 180.594 174.528 180.594V180.594V180.594V180.594C174.528 180.594 174.528 180.594 174.528 180.594C174.528 180.594 174.528 180.594 174.528 180.594H176.528C176.528 180.594 176.528 180.594 176.528 180.594C176.528 180.594 176.528 180.594 176.528 180.594V180.594V180.594V180.594C176.528 180.594 176.528 180.594 176.528 180.594C176.528 180.594 176.528 180.594 176.528 180.594C176.528 180.594 176.528 180.594 176.528 180.594C176.528 180.594 176.528 180.594 176.528 180.594C176.528 180.594 176.528 180.594 176.528 180.594V180.594V180.594C176.528 180.594 176.528 180.594 176.528 180.594C176.528 180.594 176.528 180.594 176.528 180.594C176.528 180.594 176.528 180.594 176.528 180.594H174.528ZM176.528 207.461V180.594H174.528V207.461H176.528ZM176.528 209.314V207.461H174.528V209.314H176.528ZM175.646 208.314H175.528V210.314H175.646V208.314ZM174.654 209.441C175.274 214.277 178.133 218.766 182.633 222.752C187.135 226.74 193.339 230.282 200.804 233.233C215.738 239.136 235.877 242.739 258 242.739V240.739C236.071 240.739 216.191 237.165 201.54 231.373C194.213 228.476 188.233 225.041 183.959 221.255C179.684 217.467 177.176 213.386 176.638 209.187L174.654 209.441ZM258 242.739C280.123 242.739 300.262 239.136 315.196 233.233C322.661 230.282 328.865 226.74 333.367 222.752C337.867 218.766 340.726 214.277 341.346 209.441L339.362 209.187C338.824 213.386 336.316 217.467 332.041 221.255C327.767 225.041 321.787 228.476 314.46 231.373C299.809 237.165 279.929 240.739 258 240.739V242.739Z" fill="black" mask="url(#path-20-inside-7_104_421)"/>
<path d="M339.972 180.85C339.972 185.445 337.75 189.867 333.639 193.937C329.526 198.009 323.549 201.699 316.123 204.808C301.274 211.026 280.724 214.884 258 214.884C235.276 214.884 214.726 211.026 199.877 204.808C192.451 201.699 186.474 198.009 182.361 193.937C178.25 189.867 176.028 185.445 176.028 180.85C176.028 176.255 178.25 171.833 182.361 167.763C186.474 163.691 192.451 160.001 199.877 156.892C214.726 150.674 235.276 146.816 258 146.816C280.724 146.816 301.274 150.674 316.123 156.892C323.549 160.001 329.526 163.691 333.639 167.763C337.75 171.833 339.972 176.255 339.972 180.85Z" fill="#F9DC4A" stroke="black"/>
<mask id="path-23-inside-8_104_421" fill="white">
<path fill-rule="evenodd" clip-rule="evenodd" d="M340.354 172.053H340.472V170.2V143.334C340.472 124.402 303.548 109.055 258 109.055C212.452 109.055 175.528 124.402 175.528 143.334C175.528 143.334 175.528 143.334 175.528 143.334V170.2V172.053H175.646C177.962 190.123 213.948 204.479 258 204.479C302.052 204.479 338.038 190.123 340.354 172.053Z"/>
</mask>
<path fill-rule="evenodd" clip-rule="evenodd" d="M340.354 172.053H340.472V170.2V143.334C340.472 124.402 303.548 109.055 258 109.055C212.452 109.055 175.528 124.402 175.528 143.334C175.528 143.334 175.528 143.334 175.528 143.334V170.2V172.053H175.646C177.962 190.123 213.948 204.479 258 204.479C302.052 204.479 338.038 190.123 340.354 172.053Z" fill="#F9C818"/>
<path d="M340.472 172.053V173.053H341.472V172.053H340.472ZM340.354 172.053V171.053H339.474L339.362 171.926L340.354 172.053ZM175.528 172.053H174.528V173.053H175.528V172.053ZM175.646 172.053L176.638 171.926L176.526 171.053H175.646V172.053ZM340.472 171.053H340.354V173.053H340.472V171.053ZM339.472 170.2V172.053H341.472V170.2H339.472ZM339.472 143.334V170.2H341.472V143.334H339.472ZM341.472 143.334C341.472 138.252 338.99 133.501 334.692 129.278C330.398 125.058 324.235 121.303 316.7 118.172C301.627 111.907 280.873 108.055 258 108.055V110.055C280.675 110.055 301.157 113.877 315.933 120.019C323.323 123.09 329.238 126.722 333.29 130.704C337.339 134.683 339.472 138.95 339.472 143.334H341.472ZM258 108.055C235.127 108.055 214.373 111.907 199.3 118.172C191.765 121.303 185.602 125.058 181.308 129.278C177.01 133.501 174.528 138.252 174.528 143.334H176.528C176.528 138.95 178.661 134.683 182.71 130.704C186.762 126.722 192.677 123.09 200.067 120.019C214.843 113.877 235.325 110.055 258 110.055V108.055ZM174.528 143.334V143.334V143.334C174.528 143.334 174.528 143.334 174.528 143.334C174.528 143.334 174.528 143.334 174.528 143.334C174.528 143.334 174.528 143.334 174.528 143.334C174.528 143.334 174.528 143.334 174.528 143.334C174.528 143.334 174.528 143.334 174.528 143.334C174.528 143.334 174.528 143.334 174.528 143.334V143.334H176.528V143.334C176.528 143.334 176.528 143.334 176.528 143.334C176.528 143.334 176.528 143.334 176.528 143.334C176.528 143.334 176.528 143.334 176.528 143.334C176.528 143.334 176.528 143.334 176.528 143.334C176.528 143.334 176.528 143.334 176.528 143.334C176.528 143.334 176.528 143.334 176.528 143.334V143.334V143.334H174.528ZM176.528 170.2V143.334H174.528V170.2H176.528ZM176.528 172.053V170.2H174.528V172.053H176.528ZM175.646 171.053H175.528V173.053H175.646V171.053ZM174.654 172.181C175.274 177.016 178.133 181.506 182.633 185.492C187.135 189.479 193.339 193.021 200.804 195.972C215.738 201.876 235.877 205.479 258 205.479V203.479C236.071 203.479 216.191 199.904 201.54 194.112C194.213 191.216 188.233 187.781 183.959 183.995C179.684 180.207 177.176 176.125 176.638 171.926L174.654 172.181ZM258 205.479C280.123 205.479 300.262 201.876 315.196 195.972C322.661 193.021 328.865 189.479 333.367 185.492C337.867 181.506 340.726 177.016 341.346 172.181L339.362 171.926C338.824 176.125 336.316 180.207 332.041 183.995C327.767 187.781 321.787 191.216 314.46 194.112C299.809 199.904 279.929 203.479 258 203.479V205.479Z" fill="black" mask="url(#path-23-inside-8_104_421)"/>
<path d="M339.972 143.59C339.972 148.184 337.75 152.607 333.639 156.677C329.526 160.748 323.549 164.438 316.123 167.548C301.274 173.766 280.724 177.624 258 177.624C235.276 177.624 214.726 173.766 199.877 167.548C192.451 164.438 186.474 160.748 182.361 156.677C178.25 152.607 176.028 148.184 176.028 143.59C176.028 138.995 178.25 134.573 182.361 130.503C186.474 126.431 192.451 122.741 199.877 119.631C214.726 113.413 235.276 109.555 258 109.555C280.724 109.555 301.274 113.413 316.123 119.631C323.549 122.741 329.526 126.431 333.639 130.503C337.75 134.573 339.972 138.995 339.972 143.59Z" fill="#F9DC4A" stroke="black"/>
<mask id="path-26-inside-9_104_421" fill="white">
<path fill-rule="evenodd" clip-rule="evenodd" d="M340.354 134.793H340.472V132.94V106.073C340.472 87.1417 303.548 71.7948 258 71.7948C212.452 71.7948 175.528 87.1417 175.528 106.073V132.94V134.793H175.646C177.962 152.863 213.948 167.218 258 167.218C302.052 167.218 338.038 152.863 340.354 134.793Z"/>
</mask>
<path fill-rule="evenodd" clip-rule="evenodd" d="M340.354 134.793H340.472V132.94V106.073C340.472 87.1417 303.548 71.7948 258 71.7948C212.452 71.7948 175.528 87.1417 175.528 106.073V132.94V134.793H175.646C177.962 152.863 213.948 167.218 258 167.218C302.052 167.218 338.038 152.863 340.354 134.793Z" fill="#F9C818"/>
<path d="M340.472 134.793V135.793H341.472V134.793H340.472ZM340.354 134.793V133.793H339.474L339.362 134.666L340.354 134.793ZM175.528 134.793H174.528V135.793H175.528V134.793ZM175.646 134.793L176.638 134.666L176.526 133.793H175.646V134.793ZM340.472 133.793H340.354V135.793H340.472V133.793ZM339.472 132.94V134.793H341.472V132.94H339.472ZM339.472 106.073V132.94H341.472V106.073H339.472ZM341.472 106.073C341.472 100.991 338.99 96.2406 334.692 92.0172C330.398 87.7972 324.235 84.0428 316.7 80.9113C301.627 74.6463 280.873 70.7948 258 70.7948V72.7948C280.675 72.7948 301.157 76.6168 315.933 82.7581C323.323 85.8297 329.238 89.4617 333.29 93.4437C337.339 97.4223 339.472 101.69 339.472 106.073H341.472ZM258 70.7948C235.127 70.7948 214.373 74.6463 199.3 80.9113C191.765 84.0428 185.602 87.7972 181.308 92.0172C177.01 96.2406 174.528 100.991 174.528 106.073H176.528C176.528 101.69 178.661 97.4223 182.71 93.4437C186.762 89.4617 192.677 85.8297 200.067 82.7581C214.843 76.6168 235.325 72.7948 258 72.7948V70.7948ZM176.528 132.94V106.073H174.528V132.94H176.528ZM176.528 134.793V132.94H174.528V134.793H176.528ZM175.646 133.793H175.528V135.793H175.646V133.793ZM174.654 134.92C175.274 139.756 178.133 144.245 182.633 148.231C187.135 152.219 193.339 155.76 200.804 158.712C215.738 164.615 235.877 168.218 258 168.218V166.218C236.071 166.218 216.191 162.644 201.54 156.852C194.213 153.955 188.233 150.52 183.959 146.734C179.684 142.946 177.176 138.865 176.638 134.666L174.654 134.92ZM258 168.218C280.123 168.218 300.262 164.615 315.196 158.712C322.661 155.76 328.865 152.219 333.367 148.231C337.867 144.245 340.726 139.756 341.346 134.92L339.362 134.666C338.824 138.865 336.316 142.946 332.041 146.734C327.767 150.52 321.787 153.955 314.46 156.852C299.809 162.644 279.929 166.218 258 166.218V168.218Z" fill="black" mask="url(#path-26-inside-9_104_421)"/>
<path d="M339.972 106.329C339.972 110.924 337.75 115.346 333.639 119.416C329.526 123.488 323.549 127.178 316.123 130.287C301.274 136.505 280.724 140.363 258 140.363C235.276 140.363 214.726 136.505 199.877 130.287C192.451 127.178 186.474 123.488 182.361 119.416C178.25 115.346 176.028 110.924 176.028 106.329C176.028 101.734 178.25 97.312 182.361 93.2421C186.474 89.1703 192.451 85.4804 199.877 82.3708C214.726 76.1527 235.276 72.2948 258 72.2948C280.724 72.2948 301.274 76.1527 316.123 82.3708C323.549 85.4804 329.526 89.1703 333.639 93.2421C337.75 97.312 339.972 101.734 339.972 106.329Z" fill="#F9DC4A" stroke="black"/>
<mask id="path-29-inside-10_104_421" fill="white">
<path fill-rule="evenodd" clip-rule="evenodd" d="M340.354 99.3498H340.472V97.4969V70.6301C340.472 51.6987 303.548 36.3518 258 36.3518C212.452 36.3518 175.528 51.6987 175.528 70.6301L175.528 97.4969V99.3498H175.646C177.962 117.42 213.947 131.775 258 131.775C302.053 131.775 338.038 117.42 340.354 99.3498Z"/>
</mask>
<path fill-rule="evenodd" clip-rule="evenodd" d="M340.354 99.3498H340.472V97.4969V70.6301C340.472 51.6987 303.548 36.3518 258 36.3518C212.452 36.3518 175.528 51.6987 175.528 70.6301L175.528 97.4969V99.3498H175.646C177.962 117.42 213.947 131.775 258 131.775C302.053 131.775 338.038 117.42 340.354 99.3498Z" fill="#F9C818"/>
<path d="M340.472 99.3498V100.35H341.472V99.3498H340.472ZM340.354 99.3498V98.3498H339.474L339.362 99.2227L340.354 99.3498ZM175.528 70.6301H176.528H175.528ZM175.528 97.4969H174.528H175.528ZM175.528 99.3498H174.528V100.35H175.528V99.3498ZM175.646 99.3498L176.638 99.2227L176.526 98.3498H175.646V99.3498ZM340.472 98.3498H340.354V100.35H340.472V98.3498ZM339.472 97.4969V99.3498H341.472V97.4969H339.472ZM339.472 70.6301V97.4969H341.472V70.6301H339.472ZM341.472 70.6301C341.472 65.548 338.99 60.7976 334.692 56.5742C330.398 52.3542 324.235 48.5999 316.7 45.4683C301.627 39.2033 280.873 35.3518 258 35.3518V37.3518C280.675 37.3518 301.157 41.1738 315.933 47.3151C323.323 50.3867 329.238 54.0187 333.29 58.0007C337.339 61.9793 339.472 66.2465 339.472 70.6301H341.472ZM258 35.3518C235.127 35.3518 214.373 39.2033 199.3 45.4683C191.765 48.5999 185.602 52.3542 181.308 56.5742C177.01 60.7976 174.528 65.548 174.528 70.6301H176.528C176.528 66.2465 178.661 61.9793 182.71 58.0007C186.762 54.0187 192.677 50.3867 200.067 47.3151C214.843 41.1738 235.325 37.3518 258 37.3518V35.3518ZM176.528 97.4969L176.528 70.6301H174.528L174.528 97.4969H176.528ZM176.528 99.3498V97.4969H174.528V99.3498H176.528ZM175.646 98.3498H175.528V100.35H175.646V98.3498ZM174.654 99.4769C175.274 104.313 178.133 108.802 182.633 112.788C187.134 116.776 193.339 120.317 200.804 123.269C215.738 129.172 235.877 132.775 258 132.775V130.775C236.071 130.775 216.191 127.201 201.539 121.409C194.213 118.512 188.233 115.077 183.959 111.291C179.684 107.503 177.176 103.422 176.638 99.2227L174.654 99.4769ZM258 132.775C280.123 132.775 300.262 129.172 315.196 123.269C322.661 120.317 328.866 116.776 333.367 112.788C337.867 108.802 340.726 104.313 341.346 99.4769L339.362 99.2227C338.824 103.422 336.316 107.503 332.041 111.291C327.767 115.077 321.787 118.512 314.461 121.409C299.809 127.201 279.929 130.775 258 130.775V132.775Z" fill="black" mask="url(#path-29-inside-10_104_421)"/>
<path d="M339.972 70.886C339.972 75.4809 337.75 79.903 333.639 83.973C329.526 88.0448 323.549 91.7347 316.123 94.8442C301.274 101.062 280.724 104.92 258 104.92C235.276 104.92 214.726 101.062 199.877 94.8442C192.451 91.7347 186.474 88.0448 182.361 83.973C178.25 79.903 176.028 75.4809 176.028 70.886C176.028 66.2911 178.25 61.8691 182.361 57.7991C186.474 53.7273 192.451 50.0374 199.877 46.9278C214.726 40.7097 235.276 36.8518 258 36.8518C280.724 36.8518 301.274 40.7097 316.123 46.9278C323.549 50.0374 329.526 53.7273 333.639 57.7991C337.75 61.8691 339.972 66.2911 339.972 70.886Z" fill="#F9DC4A" stroke="black"/>
<path d="M267.93 51.684C267.93 53.882 267.955 55.6091 268.005 56.8651C268.055 58.0862 268.13 59.1678 268.23 60.1098C267.831 60.04 267.057 59.9877 265.909 59.9528C264.811 59.9179 263.538 59.9004 262.091 59.9004C260.643 59.8655 259.221 59.8481 257.824 59.8481H247.492L246.369 69.1635C247.567 68.6751 248.989 68.2389 250.636 67.8552C252.333 67.4714 254.405 67.2795 256.85 67.2795C260.094 67.2795 262.765 67.6458 264.861 68.3785C266.957 69.0763 268.504 70.0532 269.503 71.3092C270.501 72.5303 271 73.9084 271 75.4436C271 77.4671 270.176 79.2988 268.529 80.9386C266.882 82.5784 264.686 83.974 261.941 85.1253C259.246 86.2767 256.251 87.1489 252.957 87.742C249.663 88.37 246.344 88.684 243 88.684V87.742C245.296 87.742 247.517 87.4803 249.663 86.957C251.809 86.4337 253.756 85.6661 255.503 84.6543C257.25 83.6774 258.622 82.4563 259.62 80.991C260.668 79.5256 261.193 77.816 261.193 75.8622C261.193 73.6642 260.419 71.9721 258.872 70.7859C257.374 69.5647 255.203 68.9542 252.358 68.9542C250.961 68.9542 249.763 69.0763 248.765 69.3205C247.816 69.5647 246.818 69.8787 245.77 70.2625L244.872 69.8439L246.893 53.725C247.442 53.7948 248.066 53.8472 248.765 53.882C249.513 53.9169 250.237 53.9344 250.936 53.9344H261.941C263.638 53.9344 264.761 53.7774 265.31 53.4634C265.859 53.1145 266.209 52.5214 266.358 51.684H267.93Z" fill="#752B00"/>
<mask id="path-33-inside-11_104_421" fill="white">
<path fill-rule="evenodd" clip-rule="evenodd" d="M513.882 246.575H514V244.722V217.855C514 198.923 477.076 183.577 431.528 183.577C385.98 183.577 349.056 198.923 349.056 217.855C349.056 217.858 349.056 217.861 349.056 217.864V244.722V246.575H349.174C351.49 264.644 387.475 279 431.528 279C475.58 279 511.566 264.644 513.882 246.575Z"/>
</mask>
<path fill-rule="evenodd" clip-rule="evenodd" d="M513.882 246.575H514V244.722V217.855C514 198.923 477.076 183.577 431.528 183.577C385.98 183.577 349.056 198.923 349.056 217.855C349.056 217.858 349.056 217.861 349.056 217.864V244.722V246.575H349.174C351.49 264.644 387.475 279 431.528 279C475.58 279 511.566 264.644 513.882 246.575Z" fill="#F9C818"/>
<path d="M514 246.575V247.575H515V246.575H514ZM513.882 246.575V245.575H513.002L512.89 246.447L513.882 246.575ZM349.056 217.864H350.056L350.056 217.864L349.056 217.864ZM349.056 246.575H348.056V247.575H349.056V246.575ZM349.174 246.575L350.166 246.447L350.054 245.575H349.174V246.575ZM514 245.575H513.882V247.575H514V245.575ZM513 244.722V246.575H515V244.722H513ZM513 217.855V244.722H515V217.855H513ZM515 217.855C515 212.773 512.518 208.022 508.22 203.799C503.925 199.579 497.763 195.825 490.228 192.693C475.155 186.428 454.401 182.577 431.528 182.577V184.577C454.203 184.577 474.685 188.399 489.461 194.54C496.851 197.611 502.766 201.243 506.818 205.225C510.867 209.204 513 213.471 513 217.855H515ZM431.528 182.577C408.655 182.577 387.901 186.428 372.827 192.693C365.293 195.825 359.13 199.579 354.836 203.799C350.538 208.022 348.056 212.773 348.056 217.855H350.056C350.056 213.471 352.189 209.204 356.238 205.225C360.29 201.243 366.205 197.611 373.595 194.54C388.371 188.399 408.853 184.577 431.528 184.577V182.577ZM348.056 217.855C348.056 217.858 348.056 217.862 348.056 217.865L350.056 217.864C350.056 217.861 350.056 217.858 350.056 217.855H348.056ZM350.056 244.722V217.864H348.056V244.722H350.056ZM350.056 246.575V244.722H348.056V246.575H350.056ZM349.174 245.575H349.056V247.575H349.174V245.575ZM348.182 246.702C348.802 251.537 351.661 256.027 356.161 260.013C360.662 264.001 366.867 267.542 374.332 270.493C389.266 276.397 409.405 280 431.528 280V278C409.598 278 389.719 274.425 375.067 268.633C367.74 265.737 361.761 262.302 357.487 258.516C353.212 254.728 350.704 250.647 350.166 246.447L348.182 246.702ZM431.528 280C453.651 280 473.79 276.397 488.724 270.493C496.189 267.542 502.393 264.001 506.895 260.013C511.394 256.027 514.254 251.537 514.873 246.702L512.89 246.447C512.352 250.647 509.844 254.728 505.569 258.516C501.295 262.302 495.315 265.737 487.988 268.633C473.337 274.425 453.457 278 431.528 278V280Z" fill="black" mask="url(#path-33-inside-11_104_421)"/>
<path d="M513.5 218.111C513.5 222.706 511.278 227.128 507.167 231.198C503.054 235.269 497.077 238.959 489.651 242.069C474.802 248.287 454.252 252.145 431.528 252.145C408.804 252.145 388.254 248.287 373.404 242.069C365.978 238.959 360.002 235.269 355.889 231.198C351.778 227.128 349.556 222.706 349.556 218.111C349.556 213.516 351.778 209.094 355.889 205.024C360.002 200.952 365.978 197.262 373.404 194.153C388.254 187.934 408.804 184.077 431.528 184.077C454.252 184.077 474.802 187.934 489.651 194.153C497.077 197.262 503.054 200.952 507.167 205.024C511.278 209.094 513.5 213.516 513.5 218.111Z" fill="#F9DC4A" stroke="black"/>
<mask id="path-36-inside-12_104_421" fill="white">
<path fill-rule="evenodd" clip-rule="evenodd" d="M513.882 209.314H514V207.461V180.594C514 161.663 477.076 146.316 431.528 146.316C385.98 146.316 349.056 161.663 349.056 180.594C349.056 180.597 349.056 180.601 349.056 180.604V207.461V209.314H349.174C351.49 227.384 387.475 241.739 431.528 241.739C475.58 241.739 511.566 227.384 513.882 209.314Z"/>
</mask>
<path fill-rule="evenodd" clip-rule="evenodd" d="M513.882 209.314H514V207.461V180.594C514 161.663 477.076 146.316 431.528 146.316C385.98 146.316 349.056 161.663 349.056 180.594C349.056 180.597 349.056 180.601 349.056 180.604V207.461V209.314H349.174C351.49 227.384 387.475 241.739 431.528 241.739C475.58 241.739 511.566 227.384 513.882 209.314Z" fill="#F9C818"/>
<path d="M514 209.314V210.314H515V209.314H514ZM513.882 209.314V208.314H513.002L512.89 209.187L513.882 209.314ZM349.056 180.604H350.056L350.056 180.603L349.056 180.604ZM349.056 209.314H348.056V210.314H349.056V209.314ZM349.174 209.314L350.166 209.187L350.054 208.314H349.174V209.314ZM514 208.314H513.882V210.314H514V208.314ZM513 207.461V209.314H515V207.461H513ZM513 180.594V207.461H515V180.594H513ZM515 180.594C515 175.512 512.518 170.762 508.22 166.538C503.925 162.318 497.763 158.564 490.228 155.432C475.155 149.167 454.401 145.316 431.528 145.316V147.316C454.203 147.316 474.685 151.138 489.461 157.279C496.851 160.351 502.766 163.983 506.818 167.965C510.867 171.943 513 176.211 513 180.594H515ZM431.528 145.316C408.655 145.316 387.901 149.167 372.827 155.432C365.293 158.564 359.13 162.318 354.836 166.538C350.538 170.762 348.056 175.512 348.056 180.594H350.056C350.056 176.211 352.189 171.943 356.238 167.965C360.29 163.983 366.205 160.351 373.595 157.279C388.371 151.138 408.853 147.316 431.528 147.316V145.316ZM348.056 180.594C348.056 180.598 348.056 180.601 348.056 180.604L350.056 180.603C350.056 180.6 350.056 180.597 350.056 180.594H348.056ZM350.056 207.461V180.604H348.056V207.461H350.056ZM350.056 209.314V207.461H348.056V209.314H350.056ZM349.174 208.314H349.056V210.314H349.174V208.314ZM348.182 209.441C348.802 214.277 351.661 218.766 356.161 222.752C360.662 226.74 366.867 230.282 374.332 233.233C389.266 239.136 409.405 242.739 431.528 242.739V240.739C409.598 240.739 389.719 237.165 375.067 231.373C367.74 228.476 361.761 225.041 357.487 221.255C353.212 217.467 350.704 213.386 350.166 209.187L348.182 209.441ZM431.528 242.739C453.651 242.739 473.79 239.136 488.724 233.233C496.189 230.282 502.393 226.74 506.895 222.752C511.394 218.766 514.254 214.277 514.873 209.441L512.89 209.187C512.352 213.386 509.844 217.467 505.569 221.255C501.295 225.041 495.315 228.476 487.988 231.373C473.337 237.165 453.457 240.739 431.528 240.739V242.739Z" fill="black" mask="url(#path-36-inside-12_104_421)"/>
<path d="M513.5 180.85C513.5 185.445 511.278 189.867 507.167 193.937C503.054 198.009 497.077 201.699 489.651 204.808C474.802 211.027 454.252 214.884 431.528 214.884C408.804 214.884 388.254 211.027 373.404 204.808C365.978 201.699 360.002 198.009 355.889 193.937C351.778 189.867 349.556 185.445 349.556 180.85C349.556 176.255 351.778 171.833 355.889 167.763C360.002 163.691 365.978 160.002 373.404 156.892C388.254 150.674 408.804 146.816 431.528 146.816C454.252 146.816 474.802 150.674 489.651 156.892C497.077 160.002 503.054 163.691 507.167 167.763C511.278 171.833 513.5 176.255 513.5 180.85Z" fill="#F9DC4A" stroke="black"/>
<mask id="path-39-inside-13_104_421" fill="white">
<path fill-rule="evenodd" clip-rule="evenodd" d="M513.882 172.053H514V170.2V143.334C514 124.402 477.076 109.055 431.528 109.055C385.98 109.055 349.056 124.402 349.056 143.334C349.056 143.334 349.056 143.334 349.056 143.334C349.056 143.337 349.056 143.34 349.056 143.343V170.2V172.053H349.174C351.49 190.123 387.475 204.479 431.528 204.479C475.58 204.479 511.566 190.123 513.882 172.053Z"/>
</mask>
<path fill-rule="evenodd" clip-rule="evenodd" d="M513.882 172.053H514V170.2V143.334C514 124.402 477.076 109.055 431.528 109.055C385.98 109.055 349.056 124.402 349.056 143.334C349.056 143.334 349.056 143.334 349.056 143.334C349.056 143.337 349.056 143.34 349.056 143.343V170.2V172.053H349.174C351.49 190.123 387.475 204.479 431.528 204.479C475.58 204.479 511.566 190.123 513.882 172.053Z" fill="#F9C818"/>
<path d="M514 172.053V173.053H515V172.053H514ZM513.882 172.053V171.053H513.002L512.89 171.926L513.882 172.053ZM349.056 143.334L350.056 143.334L349.056 143.334ZM349.056 143.343H350.056L350.056 143.342L349.056 143.343ZM349.056 172.053H348.056V173.053H349.056V172.053ZM349.174 172.053L350.166 171.926L350.054 171.053H349.174V172.053ZM514 171.053H513.882V173.053H514V171.053ZM513 170.2V172.053H515V170.2H513ZM513 143.334V170.2H515V143.334H513ZM515 143.334C515 138.252 512.518 133.501 508.22 129.278C503.925 125.058 497.763 121.303 490.228 118.172C475.155 111.907 454.401 108.055 431.528 108.055V110.055C454.203 110.055 474.685 113.877 489.461 120.019C496.851 123.09 502.766 126.722 506.818 130.704C510.867 134.683 513 138.95 513 143.334H515ZM431.528 108.055C408.655 108.055 387.901 111.907 372.827 118.172C365.293 121.303 359.13 125.058 354.836 129.278C350.538 133.501 348.056 138.252 348.056 143.334H350.056C350.056 138.95 352.189 134.683 356.238 130.704C360.29 126.722 366.205 123.09 373.595 120.019C388.371 113.877 408.853 110.055 431.528 110.055V108.055ZM348.056 143.334C348.056 143.356 348.057 143.375 348.057 143.392C348.058 143.408 348.06 143.422 348.061 143.433C348.062 143.444 348.063 143.453 348.063 143.458C348.064 143.46 348.064 143.463 348.064 143.464C348.064 143.464 348.064 143.465 348.064 143.465C348.064 143.466 348.065 143.466 348.065 143.466C348.065 143.466 348.065 143.466 348.065 143.466C348.065 143.466 348.065 143.466 348.065 143.466C348.065 143.466 348.065 143.466 348.065 143.466C348.065 143.466 348.065 143.466 348.065 143.466C348.065 143.467 348.064 143.462 348.063 143.458C348.063 143.453 348.062 143.444 348.061 143.433C348.06 143.422 348.058 143.408 348.057 143.392C348.057 143.375 348.056 143.356 348.056 143.334L350.056 143.334C350.056 143.312 350.055 143.292 350.054 143.275C350.053 143.259 350.052 143.245 350.051 143.234C350.05 143.223 350.049 143.215 350.048 143.21C350.048 143.207 350.047 143.205 350.047 143.204C350.047 143.203 350.047 143.202 350.047 143.202C350.047 143.202 350.047 143.202 350.047 143.202C350.047 143.202 350.047 143.202 350.047 143.202C350.047 143.202 350.047 143.202 350.047 143.202C350.047 143.202 350.047 143.202 350.047 143.202C350.047 143.202 350.047 143.202 350.047 143.202C350.047 143.201 350.047 143.205 350.048 143.21C350.049 143.215 350.05 143.223 350.051 143.234C350.052 143.245 350.053 143.259 350.054 143.275C350.055 143.292 350.056 143.312 350.056 143.334H348.056ZM348.056 143.334C348.056 143.336 348.056 143.34 348.056 143.344L350.056 143.342C350.056 143.34 350.056 143.338 350.056 143.334L348.056 143.334ZM350.056 170.2V143.343H348.056V170.2H350.056ZM350.056 172.053V170.2H348.056V172.053H350.056ZM349.174 171.053H349.056V173.053H349.174V171.053ZM348.182 172.181C348.802 177.016 351.661 181.506 356.161 185.492C360.662 189.479 366.867 193.021 374.332 195.972C389.266 201.876 409.405 205.479 431.528 205.479V203.479C409.598 203.479 389.719 199.904 375.067 194.112C367.74 191.216 361.761 187.781 357.487 183.995C353.212 180.207 350.704 176.125 350.166 171.926L348.182 172.181ZM431.528 205.479C453.651 205.479 473.79 201.876 488.724 195.972C496.189 193.021 502.393 189.479 506.895 185.492C511.394 181.506 514.254 177.016 514.873 172.181L512.89 171.926C512.352 176.125 509.844 180.207 505.569 183.995C501.295 187.781 495.315 191.216 487.988 194.112C473.337 199.904 453.457 203.479 431.528 203.479V205.479Z" fill="black" mask="url(#path-39-inside-13_104_421)"/>
<path d="M513.5 143.59C513.5 148.184 511.278 152.607 507.167 156.677C503.054 160.748 497.077 164.438 489.651 167.548C474.802 173.766 454.252 177.624 431.528 177.624C408.804 177.624 388.254 173.766 373.404 167.548C365.978 164.438 360.002 160.748 355.889 156.677C351.778 152.607 349.556 148.184 349.556 143.59C349.556 138.995 351.778 134.573 355.889 130.503C360.002 126.431 365.978 122.741 373.404 119.631C388.254 113.413 408.804 109.555 431.528 109.555C454.252 109.555 474.802 113.413 489.651 119.631C497.077 122.741 503.054 126.431 507.167 130.503C511.278 134.573 513.5 138.995 513.5 143.59Z" fill="#F9DC4A" stroke="black"/>
<mask id="path-42-inside-14_104_421" fill="white">
<path fill-rule="evenodd" clip-rule="evenodd" d="M513.882 134.793H514V132.94V106.073C514 87.1417 477.076 71.7948 431.528 71.7948C385.98 71.7948 349.056 87.1417 349.056 106.073C349.056 106.076 349.056 106.079 349.056 106.083V132.94V134.793H349.174C351.49 152.863 387.475 167.218 431.528 167.218C475.58 167.218 511.566 152.863 513.882 134.793Z"/>
</mask>
<path fill-rule="evenodd" clip-rule="evenodd" d="M513.882 134.793H514V132.94V106.073C514 87.1417 477.076 71.7948 431.528 71.7948C385.98 71.7948 349.056 87.1417 349.056 106.073C349.056 106.076 349.056 106.079 349.056 106.083V132.94V134.793H349.174C351.49 152.863 387.475 167.218 431.528 167.218C475.58 167.218 511.566 152.863 513.882 134.793Z" fill="#F9C818"/>
<path d="M514 134.793V135.793H515V134.793H514ZM513.882 134.793V133.793H513.002L512.89 134.666L513.882 134.793ZM349.056 106.083H350.056L350.056 106.082L349.056 106.083ZM349.056 134.793H348.056V135.793H349.056V134.793ZM349.174 134.793L350.166 134.666L350.054 133.793H349.174V134.793ZM514 133.793H513.882V135.793H514V133.793ZM513 132.94V134.793H515V132.94H513ZM513 106.073V132.94H515V106.073H513ZM515 106.073C515 100.991 512.518 96.2406 508.22 92.0172C503.925 87.7972 497.763 84.0428 490.228 80.9113C475.155 74.6463 454.401 70.7948 431.528 70.7948V72.7948C454.203 72.7948 474.685 76.6168 489.461 82.7581C496.851 85.8297 502.766 89.4617 506.818 93.4437C510.867 97.4223 513 101.69 513 106.073H515ZM431.528 70.7948C408.655 70.7948 387.901 74.6463 372.827 80.9113C365.293 84.0428 359.13 87.7972 354.836 92.0172C350.538 96.2406 348.056 100.991 348.056 106.073H350.056C350.056 101.69 352.189 97.4223 356.238 93.4437C360.29 89.4617 366.205 85.8297 373.595 82.7581C388.371 76.6168 408.853 72.7948 431.528 72.7948V70.7948ZM348.056 106.073C348.056 106.076 348.056 106.08 348.056 106.083L350.056 106.082C350.056 106.079 350.056 106.076 350.056 106.073H348.056ZM350.056 132.94V106.083H348.056V132.94H350.056ZM350.056 134.793V132.94H348.056V134.793H350.056ZM349.174 133.793H349.056V135.793H349.174V133.793ZM348.182 134.92C348.802 139.756 351.661 144.245 356.161 148.231C360.662 152.219 366.867 155.76 374.332 158.712C389.266 164.615 409.405 168.218 431.528 168.218V166.218C409.598 166.218 389.719 162.644 375.067 156.852C367.74 153.955 361.761 150.52 357.487 146.734C353.212 142.946 350.704 138.865 350.166 134.666L348.182 134.92ZM431.528 168.218C453.651 168.218 473.79 164.615 488.724 158.712C496.189 155.76 502.393 152.219 506.895 148.231C511.394 144.245 514.254 139.756 514.873 134.92L512.89 134.666C512.352 138.865 509.844 142.946 505.569 146.734C501.295 150.52 495.315 153.955 487.988 156.852C473.337 162.644 453.457 166.218 431.528 166.218V168.218Z" fill="black" mask="url(#path-42-inside-14_104_421)"/>
<path d="M513.5 106.329C513.5 110.924 511.278 115.346 507.167 119.416C503.054 123.488 497.077 127.178 489.651 130.287C474.802 136.505 454.252 140.363 431.528 140.363C408.804 140.363 388.254 136.505 373.404 130.287C365.978 127.178 360.002 123.488 355.889 119.416C351.778 115.346 349.556 110.924 349.556 106.329C349.556 101.734 351.778 97.312 355.889 93.2421C360.002 89.1703 365.978 85.4804 373.404 82.3708C388.254 76.1527 408.804 72.2948 431.528 72.2948C454.252 72.2948 474.802 76.1527 489.651 82.3708C497.077 85.4804 503.054 89.1703 507.167 93.2421C511.278 97.312 513.5 101.734 513.5 106.329Z" fill="#F9DC4A" stroke="black"/>
<mask id="path-45-inside-15_104_421" fill="white">
<path fill-rule="evenodd" clip-rule="evenodd" d="M513.882 99.3498H514V97.4969V70.6301C514 51.6987 477.076 36.3518 431.528 36.3518C385.98 36.3518 349.056 51.6987 349.056 70.6301C349.056 70.6333 349.056 70.6364 349.056 70.6396V97.4969V99.3498H349.174C351.49 117.42 387.475 131.775 431.528 131.775C475.58 131.775 511.566 117.42 513.882 99.3498Z"/>
</mask>
<path fill-rule="evenodd" clip-rule="evenodd" d="M513.882 99.3498H514V97.4969V70.6301C514 51.6987 477.076 36.3518 431.528 36.3518C385.98 36.3518 349.056 51.6987 349.056 70.6301C349.056 70.6333 349.056 70.6364 349.056 70.6396V97.4969V99.3498H349.174C351.49 117.42 387.475 131.775 431.528 131.775C475.58 131.775 511.566 117.42 513.882 99.3498Z" fill="#F9C818"/>
<path d="M514 99.3498V100.35H515V99.3498H514ZM513.882 99.3498V98.3498H513.002L512.89 99.2227L513.882 99.3498ZM349.056 70.6396H350.056L350.056 70.6389L349.056 70.6396ZM349.056 99.3498H348.056V100.35H349.056V99.3498ZM349.174 99.3498L350.166 99.2227L350.054 98.3498H349.174V99.3498ZM514 98.3498H513.882V100.35H514V98.3498ZM513 97.4969V99.3498H515V97.4969H513ZM513 70.6301V97.4969H515V70.6301H513ZM515 70.6301C515 65.548 512.518 60.7976 508.22 56.5742C503.925 52.3542 497.763 48.5999 490.228 45.4683C475.155 39.2033 454.401 35.3518 431.528 35.3518V37.3518C454.203 37.3518 474.685 41.1738 489.461 47.3151C496.851 50.3867 502.766 54.0187 506.818 58.0007C510.867 61.9793 513 66.2465 513 70.6301H515ZM431.528 35.3518C408.655 35.3518 387.901 39.2033 372.827 45.4683C365.293 48.5999 359.13 52.3542 354.836 56.5742C350.538 60.7976 348.056 65.548 348.056 70.6301H350.056C350.056 66.2465 352.189 61.9793 356.238 58.0007C360.29 54.0187 366.205 50.3867 373.595 47.3151C388.371 41.1738 408.853 37.3518 431.528 37.3518V35.3518ZM348.056 70.6301C348.056 70.6335 348.056 70.6368 348.056 70.6402L350.056 70.6389C350.056 70.636 350.056 70.6331 350.056 70.6301H348.056ZM350.056 97.4969V70.6396H348.056V97.4969H350.056ZM350.056 99.3498V97.4969H348.056V99.3498H350.056ZM349.174 98.3498H349.056V100.35H349.174V98.3498ZM348.182 99.4769C348.802 104.313 351.661 108.802 356.161 112.788C360.662 116.776 366.867 120.317 374.332 123.269C389.266 129.172 409.405 132.775 431.528 132.775V130.775C409.598 130.775 389.718 127.201 375.067 121.409C367.74 118.512 361.761 115.077 357.487 111.291C353.211 107.503 350.704 103.422 350.166 99.2227L348.182 99.4769ZM431.528 132.775C453.651 132.775 473.79 129.172 488.724 123.269C496.189 120.317 502.393 116.776 506.895 112.788C511.394 108.802 514.254 104.313 514.873 99.4769L512.89 99.2227C512.352 103.422 509.844 107.503 505.569 111.291C501.295 115.077 495.315 118.512 487.988 121.409C473.337 127.201 453.457 130.775 431.528 130.775V132.775Z" fill="black" mask="url(#path-45-inside-15_104_421)"/>
<path d="M513.5 70.886C513.5 75.4809 511.278 79.903 507.167 83.973C503.054 88.0448 497.077 91.7347 489.651 94.8442C474.802 101.062 454.252 104.92 431.528 104.92C408.804 104.92 388.254 101.062 373.404 94.8442C365.978 91.7347 360.002 88.0448 355.889 83.973C351.778 79.903 349.556 75.4809 349.556 70.886C349.556 66.2911 351.778 61.8691 355.889 57.7991C360.002 53.7273 365.978 50.0374 373.404 46.9278C388.254 40.7097 408.804 36.8518 431.528 36.8518C454.252 36.8518 474.802 40.7097 489.651 46.9278C497.077 50.0374 503.054 53.7273 507.167 57.7991C511.278 61.8691 513.5 66.2911 513.5 70.886Z" fill="#F9DC4A" stroke="black"/>
<mask id="path-48-inside-16_104_421" fill="white">
<path fill-rule="evenodd" clip-rule="evenodd" d="M513.882 62.998H514V61.1451V34.2994C514 34.2924 514 34.2854 514 34.2783C514 15.3469 477.076 0 431.528 0C385.98 0 349.056 15.3469 349.056 34.2783L349.056 61.1451V62.998H349.174C351.49 81.0678 387.475 95.4235 431.528 95.4235C475.58 95.4235 511.566 81.0678 513.882 62.998Z"/>
</mask>
<path fill-rule="evenodd" clip-rule="evenodd" d="M513.882 62.998H514V61.1451V34.2994C514 34.2924 514 34.2854 514 34.2783C514 15.3469 477.076 0 431.528 0C385.98 0 349.056 15.3469 349.056 34.2783L349.056 61.1451V62.998H349.174C351.49 81.0678 387.475 95.4235 431.528 95.4235C475.58 95.4235 511.566 81.0678 513.882 62.998Z" fill="#F9C818"/>
<path d="M514 62.998V63.998H515V62.998H514ZM513.882 62.998V61.998H513.002L512.89 62.8709L513.882 62.998ZM349.056 34.2783H350.056H349.056ZM349.056 61.1451H348.056H349.056ZM349.056 62.998H348.056V63.998H349.056V62.998ZM349.174 62.998L350.166 62.8709L350.054 61.998H349.174V62.998ZM514 61.998H513.882V63.998H514V61.998ZM513 61.1451V62.998H515V61.1451H513ZM513 34.2994V61.1451H515V34.2994H513ZM515 34.2994C515 34.2965 515 34.2936 515 34.29C515 34.2865 515 34.2825 515 34.2783H513C513 34.2812 513 34.2842 513 34.2878C513 34.2912 513 34.2953 513 34.2994H515ZM515 34.2783C515 29.1962 512.518 24.4458 508.22 20.2224C503.925 16.0024 497.763 12.248 490.228 9.11647C475.155 2.85148 454.401 -1 431.528 -1V1C454.203 1 474.685 4.82198 489.461 10.9633C496.851 14.0349 502.766 17.6669 506.818 21.6489C510.867 25.6275 513 29.8947 513 34.2783H515ZM431.528 -1C408.655 -1 387.901 2.85148 372.828 9.11647C365.293 12.248 359.13 16.0024 354.836 20.2224C350.538 24.4458 348.056 29.1962 348.056 34.2783H350.056C350.056 29.8947 352.189 25.6275 356.238 21.6489C360.29 17.6669 366.205 14.0349 373.595 10.9633C388.371 4.82198 408.853 1 431.528 1V-1ZM350.056 61.1451L350.056 34.2783H348.056L348.056 61.1451H350.056ZM350.056 62.998V61.1451H348.056V62.998H350.056ZM349.174 61.998H349.056V63.998H349.174V61.998ZM348.182 63.1251C348.802 67.9608 351.661 72.4501 356.161 76.4362C360.662 80.424 366.867 83.9657 374.332 86.9169C389.266 92.8204 409.405 96.4235 431.528 96.4235V94.4235C409.598 94.4235 389.718 90.8487 375.067 85.0569C367.74 82.1605 361.761 78.7252 357.487 74.9392C353.211 71.1514 350.704 67.0701 350.166 62.8709L348.182 63.1251ZM431.528 96.4235C453.651 96.4235 473.79 92.8204 488.724 86.9169C496.189 83.9657 502.393 80.424 506.895 76.4362C511.394 72.4501 514.254 67.9608 514.873 63.1251L512.89 62.8709C512.352 67.0701 509.844 71.1514 505.569 74.9392C501.295 78.7252 495.315 82.1605 487.988 85.0569C473.337 90.8487 453.457 94.4235 431.528 94.4235V96.4235Z" fill="black" mask="url(#path-48-inside-16_104_421)"/>
<path d="M513.5 34.5342C513.5 39.1291 511.278 43.5512 507.167 47.6211C503.054 51.693 497.077 55.3829 489.651 58.4924C474.802 64.7105 454.252 68.5684 431.528 68.5684C408.804 68.5684 388.254 64.7105 373.404 58.4924C365.978 55.3829 360.002 51.693 355.889 47.6211C351.778 43.5512 349.556 39.1291 349.556 34.5342C349.556 29.9393 351.778 25.5172 355.889 21.4473C360.002 17.3755 365.978 13.6856 373.404 10.576C388.254 4.35787 408.804 0.5 431.528 0.5C454.252 0.5 474.802 4.35787 489.651 10.576C497.077 13.6856 503.054 17.3755 507.167 21.4473C511.278 25.5172 513.5 29.9393 513.5 34.5342Z" fill="#F9DC4A" stroke="black"/>
<path d="M442.93 15.684C442.93 17.882 442.955 19.6091 443.005 20.8651C443.055 22.0862 443.13 23.1678 443.23 24.1098C442.831 24.04 442.057 23.9877 440.909 23.9528C439.811 23.9179 438.538 23.9004 437.091 23.9004C435.643 23.8655 434.221 23.8481 432.824 23.8481H422.492L421.369 33.1635C422.567 32.6751 423.989 32.2389 425.636 31.8552C427.333 31.4714 429.405 31.2795 431.85 31.2795C435.094 31.2795 437.765 31.6458 439.861 32.3785C441.957 33.0763 443.504 34.0532 444.503 35.3092C445.501 36.5303 446 37.9084 446 39.4436C446 41.4671 445.176 43.2988 443.529 44.9386C441.882 46.5784 439.686 47.974 436.941 49.1253C434.246 50.2767 431.251 51.1489 427.957 51.742C424.663 52.37 421.344 52.684 418 52.684V51.742C420.296 51.742 422.517 51.4803 424.663 50.957C426.809 50.4337 428.756 49.6661 430.503 48.6543C432.25 47.6774 433.622 46.4563 434.62 44.991C435.668 43.5256 436.193 41.816 436.193 39.8622C436.193 37.6642 435.419 35.9721 433.872 34.7859C432.374 33.5647 430.203 32.9542 427.358 32.9542C425.961 32.9542 424.763 33.0763 423.765 33.3205C422.816 33.5647 421.818 33.8787 420.77 34.2625L419.872 33.8439L421.893 17.725C422.442 17.7948 423.066 17.8472 423.765 17.882C424.513 17.9169 425.237 17.9344 425.936 17.9344H436.941C438.638 17.9344 439.761 17.7774 440.31 17.4634C440.859 17.1145 441.209 16.5214 441.358 15.684H442.93Z" fill="#752B00"/>
</svg>
